<svg width="321" height="273" viewBox="0 0 321 273" fill="none" xmlns="http://www.w3.org/2000/svg">
<rect width="321" height="273" fill="white"/>
<circle cx="108" cy="149" r="100" fill="#07041B"/>
<path d="M295.595 182.351L303.904 186.062L302.393 189.445C301.997 190.331 301.472 191.027 300.819 191.533C300.171 192.05 299.451 192.355 298.659 192.448C297.868 192.54 297.065 192.405 296.25 192.041C295.435 191.676 294.798 191.169 294.339 190.518C293.88 189.867 293.622 189.125 293.567 188.293C293.516 187.473 293.688 186.62 294.084 185.734L295.595 182.351ZM295.962 183.569L294.865 186.026C294.536 186.761 294.394 187.462 294.438 188.127C294.487 188.804 294.698 189.406 295.07 189.933C295.45 190.463 295.972 190.877 296.637 191.174C297.31 191.474 297.966 191.587 298.607 191.513C299.248 191.438 299.833 191.192 300.361 190.773C300.894 190.366 301.325 189.794 301.654 189.058L302.752 186.601L295.962 183.569Z" fill="#6F5C37"/>
<path d="M287.355 198.485C287.721 197.876 288.169 197.417 288.698 197.108C289.235 196.804 289.805 196.656 290.407 196.664C291.016 196.677 291.61 196.857 292.19 197.206C292.769 197.554 293.208 197.985 293.506 198.498C293.799 199.019 293.943 199.57 293.936 200.153C293.933 200.747 293.768 201.316 293.442 201.858C293.111 202.408 292.692 202.818 292.185 203.089C291.681 203.373 291.129 203.501 290.528 203.473C289.935 203.45 289.345 203.262 288.759 202.91C288.722 202.887 288.683 202.859 288.643 202.825C288.606 202.802 288.565 202.778 288.52 202.751L291.583 197.66L292.173 198.015L289.365 202.683L289.319 202.23C289.742 202.485 290.173 202.618 290.612 202.628C291.053 202.651 291.46 202.562 291.834 202.362C292.207 202.162 292.517 201.858 292.762 201.449C293.003 201.048 293.127 200.632 293.134 200.201C293.14 199.77 293.03 199.365 292.803 198.986C292.576 198.606 292.247 198.287 291.816 198.028L291.694 197.954C291.248 197.686 290.796 197.546 290.339 197.534C289.884 197.533 289.455 197.649 289.052 197.882C288.652 198.127 288.316 198.476 288.043 198.929C287.829 199.286 287.693 199.654 287.636 200.034C287.575 200.422 287.607 200.806 287.733 201.185L286.952 201.322C286.797 200.875 286.756 200.405 286.829 199.913C286.898 199.429 287.073 198.953 287.355 198.485Z" fill="#6F5C37"/>
<path d="M280.312 208.817C280.742 208.252 281.237 207.844 281.797 207.595C282.364 207.351 282.946 207.266 283.543 207.339C284.148 207.418 284.719 207.662 285.257 208.071C285.795 208.481 286.184 208.956 286.425 209.499C286.66 210.048 286.743 210.612 286.673 211.191C286.605 211.781 286.379 212.328 285.996 212.832C285.608 213.342 285.147 213.705 284.613 213.92C284.081 214.146 283.518 214.214 282.924 214.121C282.337 214.034 281.771 213.783 281.227 213.368C281.192 213.342 281.157 213.31 281.121 213.271C281.086 213.245 281.048 213.216 281.007 213.185L284.604 208.457L285.153 208.874L281.854 213.209L281.857 212.754C282.251 213.053 282.664 213.232 283.099 213.29C283.535 213.361 283.95 213.317 284.343 213.158C284.736 213 285.076 212.731 285.365 212.352C285.648 211.979 285.817 211.579 285.87 211.151C285.923 210.724 285.858 210.309 285.673 209.907C285.489 209.505 285.197 209.152 284.797 208.848L284.683 208.761C284.269 208.447 283.835 208.258 283.381 208.196C282.929 208.146 282.49 208.215 282.064 208.403C281.64 208.603 281.268 208.913 280.948 209.334C280.696 209.665 280.521 210.016 280.423 210.388C280.32 210.767 280.31 211.152 280.394 211.543L279.603 211.594C279.497 211.132 279.508 210.661 279.634 210.18C279.755 209.706 279.981 209.252 280.312 208.817Z" fill="#6F5C37"/>
<path d="M268.073 222.606L274.098 229.426L271.321 231.879C270.594 232.521 269.828 232.937 269.024 233.127C268.22 233.329 267.438 233.308 266.679 233.065C265.921 232.821 265.246 232.365 264.655 231.696C264.064 231.027 263.695 230.301 263.547 229.518C263.399 228.736 263.471 227.954 263.765 227.174C264.058 226.406 264.569 225.701 265.296 225.059L268.073 222.606ZM267.903 223.866L265.886 225.648C265.282 226.181 264.862 226.76 264.627 227.384C264.391 228.02 264.334 228.655 264.454 229.289C264.58 229.929 264.884 230.522 265.366 231.068C265.854 231.62 266.405 231.995 267.019 232.192C267.633 232.39 268.267 232.408 268.922 232.246C269.576 232.096 270.205 231.754 270.809 231.221L272.826 229.439L267.903 223.866Z" fill="#6F5C37"/>
<path d="M253.889 233.876C254.475 233.474 255.073 233.242 255.682 233.18C256.297 233.126 256.877 233.227 257.421 233.484C257.971 233.748 258.437 234.158 258.82 234.715C259.203 235.272 259.423 235.846 259.482 236.437C259.534 237.032 259.436 237.594 259.189 238.121C258.939 238.661 258.554 239.11 258.032 239.468C257.504 239.831 256.952 240.032 256.378 240.069C255.802 240.118 255.246 240.005 254.711 239.731C254.181 239.465 253.722 239.05 253.334 238.485C253.31 238.45 253.286 238.408 253.264 238.36C253.239 238.324 253.212 238.285 253.183 238.242L258.079 234.877L258.469 235.445L253.98 238.53L254.126 238.099C254.405 238.506 254.743 238.806 255.137 238.997C255.529 239.201 255.937 239.289 256.36 239.261C256.782 239.233 257.19 239.085 257.583 238.815C257.969 238.55 258.254 238.222 258.438 237.833C258.623 237.443 258.69 237.029 258.641 236.589C258.591 236.15 258.424 235.723 258.139 235.309L258.058 235.191C257.764 234.763 257.411 234.448 256.999 234.247C256.585 234.058 256.147 233.986 255.684 234.031C255.218 234.088 254.767 234.267 254.332 234.566C253.989 234.802 253.713 235.081 253.503 235.403C253.287 235.731 253.157 236.093 253.115 236.491L252.348 236.292C252.391 235.821 252.549 235.376 252.819 234.959C253.083 234.546 253.439 234.186 253.889 233.876Z" fill="#6F5C37"/>
<path d="M244.129 239.86C244.624 239.591 245.129 239.406 245.646 239.303C246.166 239.208 246.61 239.198 246.977 239.275L246.959 240.114C246.616 240.063 246.217 240.073 245.761 240.142C245.31 240.22 244.875 240.372 244.456 240.599C243.885 240.91 243.521 241.221 243.365 241.532C243.213 241.851 243.218 242.16 243.379 242.457C243.499 242.678 243.664 242.81 243.875 242.853C244.082 242.908 244.317 242.904 244.579 242.841C244.844 242.785 245.13 242.704 245.437 242.597C245.744 242.489 246.054 242.389 246.369 242.297C246.677 242.209 246.975 242.161 247.266 242.151C247.561 242.149 247.836 242.211 248.093 242.338C248.341 242.469 248.559 242.706 248.745 243.049C248.923 243.376 248.99 243.719 248.948 244.078C248.906 244.436 248.749 244.782 248.477 245.117C248.202 245.464 247.809 245.776 247.299 246.053C246.911 246.264 246.493 246.421 246.047 246.526C245.605 246.638 245.212 246.678 244.87 246.647L244.871 245.803C245.236 245.841 245.592 245.816 245.938 245.727C246.289 245.645 246.616 245.521 246.921 245.356C247.461 245.062 247.81 244.75 247.965 244.419C248.117 244.1 248.115 243.795 247.958 243.506C247.833 243.278 247.668 243.136 247.46 243.081C247.245 243.03 247.003 243.028 246.733 243.076C246.46 243.136 246.174 243.217 245.875 243.32C245.568 243.428 245.259 243.522 244.947 243.602C244.633 243.694 244.33 243.745 244.039 243.755C243.745 243.776 243.474 243.722 243.225 243.59C242.973 243.471 242.758 243.247 242.58 242.92C242.39 242.57 242.323 242.211 242.381 241.845C242.435 241.49 242.609 241.139 242.904 240.792C243.195 240.456 243.603 240.146 244.129 239.86Z" fill="#6F5C37"/>
<path d="M235.419 244.225L238.136 250.486L237.29 250.853L234.572 244.592L235.419 244.225ZM238.308 252.055C238.482 251.979 238.655 251.975 238.826 252.043C238.997 252.11 239.119 252.227 239.192 252.394C239.264 252.561 239.265 252.726 239.194 252.889C239.126 253.06 239.005 253.184 238.83 253.26C238.655 253.336 238.484 253.344 238.317 253.284C238.149 253.225 238.029 253.111 237.957 252.945C237.881 252.77 237.876 252.597 237.944 252.426C238.003 252.258 238.125 252.135 238.308 252.055Z" fill="#6F5C37"/>
<path d="M223.851 245.88C224.444 245.688 225.041 245.59 225.642 245.587C226.242 245.584 226.763 245.688 227.205 245.901L226.976 246.713C226.583 246.539 226.138 246.446 225.642 246.434C225.136 246.416 224.631 246.488 224.128 246.651C223.303 246.918 222.76 247.308 222.498 247.821C222.233 248.326 222.232 248.982 222.493 249.79L223.018 251.41L223.255 252.564L223.702 253.649L224.339 255.615L223.498 255.887L221.651 250.186C221.288 249.065 221.299 248.155 221.683 247.456C222.056 246.753 222.779 246.227 223.851 245.88ZM224.889 248.536C225.507 248.336 226.106 248.288 226.686 248.391C227.269 248.503 227.782 248.752 228.226 249.136C228.661 249.524 228.979 250.027 229.179 250.645C229.379 251.264 229.415 251.853 229.287 252.414C229.153 252.986 228.882 253.483 228.473 253.907C228.063 254.332 227.55 254.644 226.931 254.844C226.354 255.031 225.796 255.079 225.257 254.99C224.718 254.9 224.236 254.665 223.812 254.283C223.387 253.901 223.066 253.372 222.847 252.696C222.628 252.02 222.578 251.403 222.698 250.845C222.818 250.286 223.069 249.809 223.45 249.412C223.832 249.015 224.311 248.723 224.889 248.536ZM225.054 249.344C224.576 249.498 224.184 249.735 223.877 250.053C223.572 250.379 223.37 250.754 223.271 251.178C223.174 251.611 223.202 252.062 223.354 252.532C223.506 253.002 223.747 253.379 224.076 253.664C224.405 253.949 224.787 254.131 225.222 254.208C225.66 254.294 226.118 254.26 226.596 254.105C227.066 253.953 227.458 253.712 227.77 253.383C228.077 253.065 228.28 252.694 228.38 252.27C228.471 251.849 228.441 251.404 228.289 250.934C228.136 250.464 227.898 250.081 227.575 249.785C227.246 249.499 226.862 249.314 226.424 249.228C225.981 249.153 225.524 249.191 225.054 249.344Z" fill="#6F5C37"/>
<path d="M212.395 258.627C211.851 258.735 211.354 258.723 210.904 258.592C210.447 258.471 210.061 258.22 209.748 257.841C209.425 257.463 209.2 256.951 209.072 256.305L208.3 252.416L209.205 252.236L209.959 256.036C210.099 256.741 210.383 257.237 210.811 257.523C211.232 257.82 211.762 257.905 212.399 257.778C212.875 257.684 213.272 257.503 213.591 257.237C213.902 256.981 214.119 256.65 214.242 256.246C214.358 255.852 214.366 255.4 214.264 254.89L213.566 251.37L214.471 251.191L215.8 257.885L214.933 258.057L214.568 256.221L214.777 256.538C214.661 257.064 214.396 257.51 213.982 257.875C213.57 258.248 213.041 258.499 212.395 258.627Z" fill="#6F5C37"/>
<path d="M199.325 253.471C199.886 253.422 200.424 253.454 200.938 253.565C201.453 253.686 201.864 253.854 202.17 254.071L201.819 254.833C201.524 254.65 201.154 254.499 200.709 254.381C200.265 254.272 199.805 254.238 199.33 254.28C198.683 254.336 198.225 254.476 197.957 254.7C197.691 254.932 197.572 255.216 197.601 255.553C197.623 255.803 197.722 255.99 197.898 256.114C198.066 256.248 198.283 256.337 198.548 256.384C198.814 256.439 199.109 256.478 199.433 256.502C199.757 256.526 200.081 256.559 200.407 256.6C200.724 256.642 201.017 256.716 201.288 256.823C201.559 256.939 201.786 257.106 201.971 257.325C202.147 257.544 202.251 257.848 202.285 258.237C202.318 258.608 202.243 258.95 202.061 259.261C201.88 259.573 201.598 259.828 201.215 260.027C200.824 260.235 200.34 260.364 199.761 260.415C199.321 260.453 198.875 260.431 198.424 260.349C197.974 260.275 197.598 260.155 197.297 259.99L197.634 259.217C197.954 259.398 198.291 259.516 198.644 259.573C198.997 259.637 199.347 259.655 199.692 259.625C200.305 259.571 200.749 259.424 201.024 259.182C201.291 258.95 201.41 258.67 201.381 258.342C201.358 258.083 201.263 257.887 201.095 257.754C200.918 257.621 200.696 257.523 200.43 257.459C200.155 257.405 199.86 257.365 199.545 257.341C199.221 257.317 198.9 257.28 198.583 257.229C198.257 257.188 197.959 257.114 197.689 257.007C197.411 256.909 197.184 256.751 197.008 256.531C196.824 256.321 196.716 256.03 196.684 255.659C196.649 255.262 196.731 254.907 196.93 254.594C197.121 254.29 197.421 254.038 197.83 253.837C198.231 253.645 198.729 253.523 199.325 253.471Z" fill="#6F5C37"/>
<path d="M180.796 253.77L179.837 262.819L176.152 262.429C175.187 262.326 174.363 262.043 173.68 261.578C172.988 261.122 172.475 260.531 172.142 259.808C171.809 259.084 171.69 258.278 171.784 257.39C171.878 256.503 172.164 255.74 172.641 255.102C173.118 254.464 173.744 253.99 174.517 253.68C175.281 253.377 176.146 253.277 177.111 253.379L180.796 253.77ZM179.751 254.496L177.075 254.212C176.274 254.127 175.564 254.209 174.945 254.457C174.316 254.713 173.809 255.099 173.423 255.616C173.036 256.142 172.804 256.766 172.728 257.49C172.65 258.223 172.746 258.882 173.015 259.469C173.284 260.055 173.699 260.535 174.261 260.908C174.813 261.289 175.49 261.522 176.292 261.607L178.968 261.89L179.751 254.496Z" fill="#6F5C37"/>
<path d="M162.904 250.925C163.596 251.085 164.171 251.369 164.629 251.777C165.084 252.194 165.401 252.689 165.579 253.264C165.756 253.848 165.768 254.469 165.616 255.127C165.464 255.786 165.19 256.336 164.794 256.779C164.39 257.219 163.91 257.526 163.354 257.7C162.787 257.881 162.196 257.9 161.579 257.757C160.954 257.613 160.434 257.341 160.019 256.943C159.594 256.551 159.302 256.066 159.142 255.486C158.98 254.915 158.976 254.296 159.131 253.629C159.14 253.587 159.155 253.541 159.175 253.493C159.185 253.45 159.196 253.404 159.208 253.353L164.996 254.691L164.841 255.362L159.534 254.136L159.95 253.952C159.839 254.433 159.846 254.884 159.971 255.304C160.086 255.731 160.296 256.091 160.602 256.384C160.908 256.677 161.293 256.877 161.758 256.985C162.214 257.09 162.648 257.079 163.06 256.952C163.471 256.824 163.823 256.594 164.113 256.261C164.403 255.928 164.605 255.516 164.718 255.027L164.751 254.887C164.868 254.381 164.861 253.908 164.731 253.469C164.591 253.036 164.348 252.664 164.002 252.353C163.645 252.048 163.209 251.836 162.694 251.717C162.289 251.624 161.897 251.609 161.517 251.672C161.129 251.734 160.775 251.883 160.453 252.12L160.081 251.42C160.459 251.134 160.893 250.95 161.383 250.867C161.865 250.783 162.372 250.802 162.904 250.925Z" fill="#6F5C37"/>
<path d="M150.9 247.424C151.57 247.658 152.111 248.003 152.521 248.458C152.929 248.922 153.19 249.449 153.305 250.04C153.417 250.639 153.361 251.258 153.139 251.896C152.916 252.534 152.584 253.052 152.142 253.448C151.693 253.842 151.182 254.095 150.61 254.208C150.028 254.326 149.438 254.28 148.84 254.072C148.235 253.86 147.747 253.534 147.378 253.093C146.998 252.657 146.76 252.143 146.664 251.549C146.565 250.964 146.629 250.348 146.855 249.702C146.869 249.661 146.889 249.618 146.914 249.571C146.928 249.53 146.944 249.485 146.961 249.436L152.57 251.395L152.343 252.045L147.2 250.25L147.634 250.112C147.471 250.578 147.429 251.027 147.508 251.459C147.576 251.895 147.746 252.276 148.018 252.601C148.29 252.925 148.652 253.166 149.102 253.323C149.543 253.477 149.976 253.514 150.399 253.432C150.823 253.35 151.197 253.159 151.522 252.86C151.846 252.56 152.092 252.173 152.257 251.698L152.305 251.563C152.476 251.072 152.521 250.602 152.44 250.151C152.347 249.706 152.146 249.31 151.836 248.963C151.514 248.621 151.104 248.363 150.605 248.189C150.212 248.052 149.824 247.994 149.44 248.016C149.048 248.035 148.679 248.145 148.333 248.346L148.039 247.61C148.446 247.366 148.897 247.23 149.394 247.201C149.882 247.17 150.384 247.244 150.9 247.424Z" fill="#6F5C37"/>
<path d="M134.001 240.051L129.379 247.89L126.188 246.009C125.352 245.516 124.719 244.917 124.29 244.211C123.849 243.508 123.627 242.759 123.624 241.962C123.621 241.165 123.846 240.382 124.299 239.613C124.752 238.844 125.328 238.269 126.027 237.886C126.726 237.503 127.491 237.33 128.324 237.369C129.145 237.41 129.973 237.677 130.809 238.17L134.001 240.051ZM132.75 240.28L130.432 238.913C129.737 238.504 129.057 238.284 128.391 238.253C127.713 238.226 127.091 238.367 126.526 238.678C125.956 238.996 125.486 239.468 125.117 240.095C124.742 240.73 124.556 241.37 124.558 242.015C124.56 242.66 124.74 243.269 125.096 243.841C125.441 244.417 125.961 244.909 126.655 245.319L128.973 246.685L132.75 240.28Z" fill="#6F5C37"/>
<path d="M118.895 230.05C119.459 230.483 119.865 230.979 120.112 231.54C120.354 232.108 120.437 232.69 120.361 233.288C120.28 233.892 120.034 234.462 119.623 234.998C119.211 235.535 118.734 235.922 118.191 236.161C117.64 236.394 117.076 236.475 116.498 236.403C115.908 236.333 115.361 236.105 114.859 235.72C114.35 235.33 113.989 234.867 113.777 234.333C113.552 233.8 113.487 233.237 113.582 232.643C113.671 232.057 113.924 231.492 114.341 230.948C114.367 230.914 114.399 230.879 114.438 230.843C114.464 230.808 114.493 230.771 114.525 230.729L119.24 234.344L118.82 234.891L114.498 231.577L114.953 231.581C114.652 231.973 114.472 232.387 114.412 232.821C114.339 233.257 114.382 233.672 114.539 234.065C114.696 234.459 114.964 234.801 115.342 235.091C115.713 235.375 116.113 235.545 116.54 235.6C116.968 235.655 117.383 235.591 117.785 235.408C118.188 235.225 118.542 234.934 118.848 234.535L118.935 234.422C119.251 234.009 119.441 233.576 119.505 233.122C119.556 232.671 119.489 232.231 119.303 231.805C119.105 231.38 118.796 231.006 118.376 230.684C118.046 230.431 117.695 230.255 117.324 230.156C116.945 230.051 116.56 230.04 116.17 230.123L116.121 229.332C116.583 229.228 117.054 229.239 117.535 229.368C118.009 229.491 118.462 229.718 118.895 230.05Z" fill="#6F5C37"/>
<path d="M110.185 222.62C110.594 223.008 110.927 223.431 111.185 223.89C111.436 224.355 111.582 224.774 111.623 225.147L110.82 225.389C110.762 225.048 110.629 224.671 110.422 224.26C110.209 223.855 109.93 223.488 109.584 223.16C109.112 222.713 108.704 222.463 108.359 222.411C108.008 222.365 107.717 222.465 107.484 222.71C107.311 222.892 107.237 223.091 107.261 223.304C107.273 223.519 107.349 223.74 107.49 223.97C107.625 224.205 107.791 224.452 107.988 224.71C108.185 224.969 108.376 225.234 108.561 225.504C108.74 225.769 108.878 226.039 108.978 226.312C109.071 226.591 109.097 226.873 109.055 227.156C109.007 227.433 108.849 227.713 108.581 227.996C108.325 228.266 108.02 228.437 107.666 228.508C107.312 228.578 106.934 228.536 106.531 228.381C106.117 228.227 105.698 227.95 105.277 227.55C104.956 227.246 104.677 226.898 104.44 226.506C104.197 226.12 104.037 225.759 103.961 225.424L104.763 225.164C104.84 225.524 104.975 225.854 105.167 226.156C105.352 226.463 105.571 226.736 105.823 226.975C106.269 227.398 106.674 227.633 107.037 227.678C107.388 227.724 107.676 227.628 107.903 227.389C108.082 227.2 108.165 226.999 108.153 226.784C108.135 226.564 108.062 226.333 107.933 226.091C107.791 225.85 107.625 225.603 107.435 225.35C107.238 225.092 107.053 224.827 106.88 224.556C106.695 224.285 106.553 224.013 106.454 223.74C106.343 223.467 106.311 223.192 106.359 222.915C106.394 222.638 106.54 222.364 106.797 222.094C107.071 221.805 107.391 221.63 107.758 221.572C108.112 221.513 108.499 221.57 108.921 221.743C109.33 221.916 109.752 222.208 110.185 222.62Z" fill="#6F5C37"/>
<path d="M103.34 215.688L98.2273 220.209L97.6159 219.517L102.729 214.996L103.34 215.688ZM96.7876 220.857C96.9139 221 96.9714 221.163 96.9601 221.346C96.9488 221.53 96.875 221.682 96.7387 221.803C96.6023 221.923 96.4456 221.975 96.2686 221.958C96.0851 221.947 95.9302 221.869 95.8039 221.727C95.6776 221.584 95.6169 221.424 95.6217 221.246C95.6264 221.068 95.697 220.919 95.8334 220.798C95.9762 220.672 96.1394 220.614 96.3229 220.626C96.5006 220.631 96.6555 220.708 96.7876 220.857Z" fill="#6F5C37"/>
<path d="M98.1876 205.199C98.5541 205.704 98.8316 206.242 99.0202 206.811C99.2089 207.381 99.2707 207.909 99.2058 208.395L98.3628 208.429C98.406 208.001 98.3567 207.55 98.2152 207.074C98.0755 206.587 97.8505 206.129 97.54 205.701C97.031 205 96.4921 204.604 95.9231 204.513C95.3613 204.418 94.7366 204.619 94.0491 205.118L92.6708 206.118L91.6474 206.7L90.7539 207.461L89.0809 208.675L88.5617 207.959L93.4124 204.44C94.3664 203.748 95.2348 203.476 96.0178 203.625C96.8027 203.763 97.5259 204.287 98.1876 205.199ZM95.9825 207.008C96.3643 207.534 96.5956 208.089 96.6765 208.673C96.7504 209.261 96.673 209.826 96.4443 210.367C96.2105 210.901 95.8306 211.358 95.3045 211.74C94.7784 212.122 94.2289 212.339 93.656 212.39C93.071 212.44 92.5136 212.336 91.9837 212.078C91.4538 211.82 90.998 211.428 90.6163 210.901C90.26 210.41 90.0411 209.895 89.9595 209.354C89.8779 208.814 89.953 208.283 90.1849 207.761C90.4167 207.24 90.8203 206.77 91.3955 206.353C91.9707 205.936 92.5422 205.698 93.11 205.639C93.6778 205.58 94.2094 205.671 94.7049 205.911C95.2004 206.151 95.6262 206.517 95.9825 207.008ZM95.2662 207.415C94.971 207.008 94.6247 206.708 94.2273 206.515C93.8229 206.326 93.4037 206.25 92.9697 206.287C92.5288 206.328 92.1083 206.494 91.7085 206.784C91.3087 207.074 91.0241 207.42 90.8548 207.821C90.6855 208.223 90.6312 208.642 90.6919 209.08C90.7456 209.523 90.92 209.948 91.2152 210.355C91.5053 210.754 91.8552 211.052 92.2647 211.247C92.662 211.441 93.0777 211.519 93.5117 211.483C93.9406 211.439 94.3549 211.273 94.7548 210.983C95.1546 210.692 95.4452 210.348 95.6266 209.948C95.7959 209.547 95.8537 209.125 95.8001 208.682C95.7343 208.237 95.5563 207.815 95.2662 207.415Z" fill="#6F5C37"/>
<path d="M82.5218 198.249C82.2508 197.765 82.1082 197.289 82.094 196.82C82.068 196.348 82.1869 195.904 82.4507 195.488C82.7102 195.064 83.1274 194.692 83.7021 194.37L87.1617 192.433L87.6126 193.238L84.2324 195.131C83.6048 195.482 83.2211 195.906 83.0813 196.401C82.9298 196.893 83.0128 197.423 83.3303 197.99C83.5675 198.414 83.8619 198.735 84.2137 198.956C84.5536 199.173 84.9349 199.277 85.3574 199.269C85.7682 199.257 86.2004 199.125 86.6541 198.87L89.7848 197.118L90.2357 197.923L84.2807 201.257L83.8488 200.486L85.4822 199.571L85.2458 199.868C84.7089 199.92 84.203 199.806 83.7282 199.525C83.2457 199.249 82.8436 198.824 82.5218 198.249Z" fill="#6F5C37"/>
<path d="M83.3813 184.225C83.6015 184.743 83.7381 185.265 83.791 185.788C83.8359 186.315 83.8025 186.758 83.6909 187.116L82.8583 187.018C82.9413 186.681 82.9699 186.283 82.9442 185.823C82.9104 185.366 82.8004 184.919 82.6141 184.48C82.36 183.882 82.0853 183.49 81.7901 183.305C81.4868 183.123 81.1796 183.098 80.8685 183.23C80.6372 183.328 80.4899 183.48 80.4266 183.686C80.352 183.887 80.3336 184.121 80.3714 184.387C80.4012 184.657 80.4548 184.95 80.5323 185.265C80.6098 185.581 80.6793 185.9 80.7408 186.222C80.7989 186.536 80.819 186.838 80.801 187.128C80.7749 187.422 80.6864 187.69 80.5354 187.933C80.381 188.168 80.1243 188.362 79.7653 188.514C79.4223 188.66 79.0745 188.695 78.722 188.619C78.3695 188.542 78.0395 188.353 77.7321 188.05C77.4134 187.743 77.1405 187.322 76.9135 186.788C76.7408 186.381 76.6239 185.95 76.5628 185.496C76.4937 185.045 76.4911 184.651 76.5548 184.313L77.3943 184.394C77.3214 184.755 77.3129 185.112 77.3686 185.465C77.4163 185.821 77.508 186.159 77.6435 186.478C77.884 187.044 78.1615 187.421 78.4761 187.607C78.7794 187.789 79.0826 187.816 79.3857 187.687C79.625 187.585 79.782 187.434 79.8566 187.233C79.9279 187.024 79.9526 186.783 79.9307 186.509C79.8975 186.232 79.8439 185.939 79.7698 185.631C79.6923 185.316 79.6285 184.999 79.5783 184.682C79.5168 184.359 79.4951 184.053 79.5131 183.763C79.5198 183.468 79.6003 183.204 79.7547 182.968C79.8978 182.729 80.1408 182.536 80.4838 182.391C80.8508 182.235 81.2139 182.203 81.5732 182.295C81.9212 182.383 82.2539 182.59 82.5715 182.916C82.8776 183.238 83.1476 183.674 83.3813 184.225Z" fill="#6F5C37"/>
<path d="M77.3653 166.697L68.4632 168.585L67.6947 164.961C67.4934 164.011 67.508 163.14 67.7385 162.347C67.9587 161.547 68.3615 160.877 68.9468 160.336C69.5321 159.796 70.2614 159.433 71.1346 159.248C72.0079 159.063 72.8216 159.098 73.5759 159.355C74.3302 159.611 74.9744 160.059 75.5088 160.699C76.0328 161.332 76.3955 162.123 76.5968 163.073L77.3653 166.697ZM76.3519 165.929L75.7937 163.296C75.6265 162.508 75.3292 161.858 74.9018 161.346C74.464 160.828 73.9397 160.465 73.3288 160.258C72.7094 160.052 72.0436 160.025 71.3314 160.176C70.6108 160.329 70.0133 160.624 69.539 161.061C69.0647 161.498 68.737 162.042 68.5558 162.692C68.3644 163.335 68.3522 164.05 68.5194 164.839L69.0776 167.471L76.3519 165.929Z" fill="#6F5C37"/>
<path d="M74.5358 148.803C74.5979 149.511 74.5057 150.146 74.2591 150.707C74.0039 151.269 73.6305 151.723 73.139 152.071C72.6389 152.419 72.0521 152.623 71.3787 152.682C70.7052 152.741 70.097 152.651 69.554 152.412C69.0103 152.164 68.5697 151.802 68.2322 151.327C67.8853 150.844 67.6843 150.288 67.629 149.657C67.5729 149.018 67.6701 148.44 67.9205 147.922C68.1615 147.396 68.5328 146.968 69.0344 146.637C69.5274 146.307 70.115 146.111 70.797 146.052C70.8402 146.048 70.8881 146.048 70.9406 146.052C70.9838 146.048 71.0313 146.044 71.0831 146.04L71.6022 151.958L70.9159 152.018L70.4399 146.592L70.7436 146.931C70.2515 146.974 69.825 147.12 69.4641 147.369C69.0937 147.61 68.8165 147.922 68.6325 148.303C68.4485 148.685 68.3773 149.113 68.419 149.588C68.4598 150.054 68.6045 150.463 68.8529 150.816C69.1013 151.168 69.4288 151.431 69.8355 151.604C70.2422 151.777 70.6959 151.842 71.1967 151.798L71.3391 151.785C71.8571 151.74 72.3049 151.587 72.6823 151.328C73.0504 151.061 73.3288 150.715 73.5177 150.289C73.6972 149.856 73.7639 149.376 73.7177 148.849C73.6813 148.435 73.5742 148.057 73.3964 147.716C73.2178 147.366 72.9661 147.075 72.6412 146.843L73.1915 146.272C73.5806 146.543 73.8902 146.898 74.1203 147.339C74.3496 147.771 74.4881 148.26 74.5358 148.803Z" fill="#6F5C37"/>
<path d="M74.1519 136.304C74.1366 137.014 73.9759 137.635 73.6698 138.166C73.355 138.697 72.9344 139.108 72.408 139.4C71.873 139.692 71.2675 139.831 70.5917 139.817C69.9158 139.802 69.321 139.647 68.8073 139.35C68.2937 139.044 67.895 138.637 67.6112 138.128C67.3189 137.61 67.1796 137.035 67.1932 136.403C67.2069 135.761 67.3664 135.197 67.6716 134.709C67.9683 134.213 68.384 133.827 68.9187 133.553C69.4448 133.278 70.05 133.148 70.7345 133.162C70.7779 133.163 70.8254 133.169 70.8772 133.178C70.9205 133.179 70.9682 133.18 71.0202 133.181L70.8927 139.121L70.2038 139.106L70.3207 133.661L70.5859 134.03C70.092 134.02 69.6521 134.119 69.2662 134.327C68.8718 134.527 68.5624 134.806 68.338 135.166C68.1135 135.525 67.9962 135.943 67.986 136.42C67.9759 136.887 68.0752 137.31 68.2838 137.687C68.4925 138.064 68.7895 138.361 69.1749 138.577C69.5604 138.794 70.0044 138.907 70.5069 138.918L70.6499 138.921C71.1698 138.932 71.6314 138.829 72.0349 138.612C72.4298 138.387 72.7443 138.073 72.9783 137.67C73.2038 137.259 73.3223 136.789 73.3336 136.26C73.3426 135.844 73.2772 135.457 73.1375 135.099C72.998 134.732 72.7794 134.415 72.4818 134.149L73.0908 133.642C73.4482 133.953 73.7173 134.34 73.898 134.803C74.079 135.258 74.1636 135.758 74.1519 136.304Z" fill="#6F5C37"/>
<path d="M75.9348 117.955L67.0506 115.985L67.8526 112.368C68.0628 111.42 68.437 110.633 68.9753 110.007C69.5071 109.37 70.1513 108.927 70.9079 108.678C71.6645 108.428 72.4786 108.4 73.3501 108.593C74.2216 108.787 74.9474 109.156 75.5277 109.702C76.1079 110.248 76.5087 110.923 76.73 111.726C76.9447 112.52 76.947 113.39 76.7369 114.338L75.9348 117.955ZM75.3308 116.836L75.9133 114.208C76.0878 113.422 76.0865 112.707 75.9095 112.064C75.7259 111.41 75.399 110.863 74.9288 110.421C74.4501 109.978 73.8554 109.677 73.1446 109.52C72.4254 109.36 71.7594 109.381 71.1466 109.583C70.5338 109.784 70.0104 110.143 69.5763 110.659C69.1357 111.165 68.8281 111.812 68.6536 112.599L68.0711 115.226L75.3308 116.836Z" fill="#6F5C37"/>
<path d="M80.7725 100.496C80.5357 101.166 80.1889 101.706 79.7321 102.114C79.267 102.52 78.7389 102.779 78.1475 102.892C77.548 103.002 76.9295 102.944 76.2921 102.719C75.6548 102.494 75.1386 102.159 74.7435 101.717C74.3514 101.266 74.1002 100.754 73.9898 100.182C73.8741 99.5986 73.9217 99.0088 74.1325 98.4122C74.3461 97.8076 74.6742 97.3214 75.1166 96.9538C75.5537 96.5751 76.0692 96.339 76.6629 96.2455C77.2485 96.149 77.864 96.2149 78.5096 96.443C78.5505 96.4574 78.594 96.4774 78.6401 96.5029C78.681 96.5173 78.7259 96.5332 78.7749 96.5505L76.7957 102.152L76.146 101.923L77.9607 96.7867L78.0968 97.2209C77.6311 97.0563 77.1823 97.0127 76.7506 97.0899C76.3136 97.1561 75.9323 97.3247 75.6067 97.5957C75.2812 97.8668 75.039 98.227 74.8802 98.6764C74.7243 99.1177 74.6864 99.5501 74.7665 99.9737C74.8466 100.397 75.0359 100.772 75.3343 101.098C75.6328 101.424 76.019 101.671 76.4929 101.838L76.6277 101.886C77.118 102.059 77.5887 102.106 78.0396 102.026C78.4853 101.936 78.8822 101.736 79.2304 101.427C79.5733 101.107 79.8328 100.697 80.0089 100.199C80.1475 99.8068 80.2065 99.4186 80.186 99.0345C80.1683 98.6422 80.0598 98.273 79.8604 97.9268L80.5975 97.6357C80.8397 98.0429 80.9741 98.4949 81.0009 98.9915C81.0305 99.4799 80.9544 99.9816 80.7725 100.496Z" fill="#6F5C37"/>
<path d="M85.1441 89.9152C84.902 90.4239 84.6024 90.8716 84.2455 91.2584C83.8807 91.6414 83.5273 91.9099 83.1853 92.0639L82.7068 91.3753C83.0138 91.2143 83.3309 90.9717 83.658 90.6475C83.9773 90.3196 84.2394 89.9405 84.4443 89.5101C84.7237 88.9232 84.8349 88.4578 84.7779 88.1139C84.713 87.7663 84.528 87.5198 84.2228 87.3745C83.9959 87.2665 83.7844 87.257 83.5884 87.3461C83.3883 87.4236 83.2011 87.5648 83.0268 87.7698C82.8446 87.971 82.6611 88.2052 82.4763 88.4724C82.2915 88.7395 82.0989 89.003 81.8984 89.2627C81.7017 89.5146 81.4888 89.73 81.2597 89.9089C81.0227 90.084 80.7632 90.1956 80.4811 90.2437C80.2028 90.284 79.8875 90.2203 79.5354 90.0527C79.1989 89.8925 78.9424 89.6552 78.7657 89.3407C78.5891 89.0262 78.5121 88.6536 78.5348 88.2229C78.5534 87.7806 78.6875 87.2973 78.9371 86.773C79.1271 86.374 79.3719 86.001 79.6714 85.654C79.9631 85.3034 80.2565 85.0399 80.5516 84.8636L81.0474 85.546C80.7293 85.7305 80.4565 85.9606 80.2293 86.2364C79.9942 86.5084 79.8021 86.8009 79.6531 87.1139C79.3886 87.6695 79.2908 88.1269 79.3598 88.4861C79.4246 88.8337 79.6057 89.0783 79.9031 89.2199C80.1379 89.3316 80.3553 89.3487 80.5554 89.2712C80.7592 89.1859 80.9561 89.0445 81.1461 88.847C81.332 88.6379 81.5155 88.4037 81.6966 88.1444C81.8814 87.8772 82.076 87.6195 82.2806 87.3713C82.481 87.1116 82.6958 86.8923 82.9249 86.7134C83.15 86.523 83.4017 86.4077 83.68 86.3674C83.9543 86.3156 84.2596 86.3698 84.5961 86.53C84.956 86.7013 85.2206 86.9521 85.3898 87.2822C85.5549 87.6007 85.6205 87.9871 85.5867 88.4413C85.5487 88.884 85.4012 89.3753 85.1441 89.9152Z" fill="#6F5C37"/>
<path d="M89.6187 81.2615L83.7378 77.7979L84.2063 77.0026L90.0871 80.4662L89.6187 81.2615ZM82.676 76.6294C82.5792 76.7937 82.4418 76.8988 82.2638 76.9449C82.0858 76.9909 81.9184 76.9677 81.7616 76.8754C81.6048 76.783 81.5071 76.65 81.4685 76.4765C81.4225 76.2985 81.4478 76.1273 81.5446 75.963C81.6414 75.7987 81.775 75.6914 81.9455 75.6409C82.1161 75.5905 82.2797 75.6115 82.4366 75.7038C82.6008 75.8006 82.706 75.938 82.7521 76.116C82.8025 76.2865 82.7771 76.4576 82.676 76.6294Z" fill="#6F5C37"/>
<path d="M97.9991 73.1169C97.6322 73.6216 97.2069 74.0518 96.7234 74.4075C96.2398 74.7631 95.7569 74.9853 95.2745 75.0739L94.9819 74.2826C95.4018 74.1914 95.8159 74.005 96.2243 73.7232C96.6448 73.4396 97.0105 73.084 97.3213 72.6564C97.8309 71.9553 98.0407 71.3204 97.9508 70.7514C97.8678 70.1875 97.4829 69.6558 96.7959 69.1564L95.4184 68.1551L94.5484 67.362L93.5486 66.7476L91.8766 65.5322L92.3964 64.8172L97.244 68.3411C98.1973 69.0341 98.7241 69.776 98.8243 70.5667C98.9366 71.3555 98.6616 72.2056 97.9991 73.1169ZM95.5969 71.5796C95.2147 72.1053 94.7585 72.497 94.2284 72.7545C93.6913 73.0069 93.1303 73.1081 92.5453 73.0578C91.9655 73.0006 91.4127 72.7809 90.8869 72.3987C90.3612 72.0165 89.9851 71.561 89.7588 71.0322C89.5306 70.4913 89.4572 69.929 89.5386 69.3453C89.6201 68.7616 89.8519 68.2069 90.2341 67.6812C90.5908 67.1904 91.0135 66.8227 91.5022 66.5779C91.9909 66.3331 92.5191 66.2403 93.0868 66.2995C93.6546 66.3586 94.2259 66.5971 94.8007 67.015C95.3755 67.4328 95.7786 67.9027 96.0101 68.4245C96.2415 68.9463 96.3196 69.4799 96.2446 70.0253C96.1695 70.5708 95.9536 71.0889 95.5969 71.5796ZM94.9879 71.0244C95.2835 70.6178 95.4618 70.1956 95.5229 69.7579C95.577 69.315 95.5195 68.8929 95.3506 68.4915C95.1746 68.085 94.8869 67.7366 94.4873 67.4461C94.0877 67.1556 93.671 66.9919 93.237 66.9551C92.8031 66.9182 92.3873 66.9964 91.9898 67.1895C91.5852 67.3776 91.2351 67.6749 90.9395 68.0815C90.6491 68.481 90.4743 68.9058 90.4151 69.3556C90.354 69.7934 90.4079 70.213 90.5769 70.6143C90.7509 71.0087 91.0377 71.3512 91.4373 71.6416C91.8369 71.9321 92.2546 72.1018 92.6904 72.1508C93.1244 72.1876 93.5436 72.1121 93.9482 71.924C94.3509 71.7238 94.6974 71.424 94.9879 71.0244Z" fill="#6F5C37"/>
<path d="M99.7619 56.0698C100.138 55.6624 100.547 55.3794 100.989 55.2209C101.43 55.0501 101.889 55.0258 102.366 55.148C102.849 55.2638 103.332 55.5451 103.816 55.9921L106.728 58.6827L106.102 59.3606L103.256 56.7318C102.728 56.2437 102.207 56.0098 101.692 56.0302C101.177 56.0383 100.699 56.2811 100.258 56.7585C99.9289 57.115 99.714 57.4945 99.6134 57.8972C99.5123 58.2875 99.531 58.6824 99.6695 59.0817C99.8075 59.4687 100.067 59.8387 100.449 60.1915L103.085 62.6263L102.459 63.3043L97.4454 58.6729L98.0453 58.0236L99.4203 59.2939L99.0654 59.1608C98.8496 58.6664 98.8016 58.1501 98.9213 57.6118C99.0347 57.0676 99.3149 56.5536 99.7619 56.0698Z" fill="#6F5C37"/>
<path d="M113.364 52.5487C112.939 52.9185 112.486 53.2095 112.004 53.4218C111.517 53.6275 111.086 53.7328 110.711 53.7374L110.547 52.9152C110.893 52.89 111.28 52.7941 111.709 52.6273C112.133 52.454 112.525 52.2109 112.884 51.898C113.375 51.4713 113.662 51.0889 113.747 50.7508C113.826 50.4062 113.755 50.1063 113.533 49.8514C113.368 49.6618 113.178 49.5687 112.963 49.5722C112.748 49.5634 112.52 49.6183 112.279 49.7366C112.031 49.8485 111.77 49.99 111.494 50.1613C111.218 50.3325 110.936 50.4973 110.648 50.6555C110.368 50.808 110.086 50.9205 109.805 50.9931C109.518 51.0592 109.235 51.058 108.957 50.9896C108.686 50.9154 108.422 50.7313 108.166 50.4371C107.922 50.1559 107.781 49.836 107.745 49.4771C107.708 49.1183 107.786 48.7459 107.979 48.36C108.172 47.9619 108.488 47.5722 108.926 47.191C109.26 46.9009 109.633 46.6565 110.046 46.4579C110.453 46.2528 110.828 46.1282 111.168 46.0843L111.351 46.9079C110.986 46.9501 110.644 47.0523 110.325 47.2145C110.001 47.3701 109.708 47.5617 109.447 47.7893C108.983 48.1932 108.71 48.5736 108.63 48.9305C108.551 49.2751 108.62 49.5717 108.836 49.8201C109.007 50.0162 109.199 50.1187 109.413 50.1274C109.634 50.1305 109.871 50.0794 110.124 49.9741C110.378 49.8565 110.64 49.715 110.909 49.5494C111.186 49.3782 111.467 49.2195 111.753 49.0736C112.041 48.9154 112.325 48.8 112.607 48.7274C112.889 48.6426 113.166 48.6372 113.437 48.7113C113.709 48.7732 113.968 48.9447 114.212 49.2259C114.474 49.5266 114.617 49.8621 114.64 50.2323C114.664 50.5903 114.57 50.9708 114.358 51.3737C114.147 51.7645 113.815 52.1562 113.364 52.5487Z" fill="#6F5C37"/>
<path d="M128.171 41.4057L123.622 33.5242L126.831 31.6722C127.672 31.187 128.505 30.9314 129.33 30.9052C130.159 30.8673 130.921 31.043 131.616 31.4323C132.311 31.8217 132.882 32.403 133.328 33.1761C133.774 33.9493 133.992 34.7341 133.981 35.5307C133.971 36.3273 133.744 37.0786 133.301 37.7846C132.861 38.4788 132.221 39.0685 131.38 39.5537L128.171 41.4057ZM128.588 40.2042L130.919 38.8591C131.617 38.4562 132.143 37.9724 132.498 37.4076C132.856 36.8309 133.038 36.2201 133.046 35.5751C133.05 34.9225 132.87 34.281 132.506 33.6505C132.138 33.0125 131.672 32.5356 131.11 32.2198C130.547 31.904 129.929 31.7605 129.255 31.7892C128.584 31.806 127.9 32.0159 127.202 32.4188L124.871 33.764L128.588 40.2042Z" fill="#6F5C37"/>
<path d="M144.312 33.1794C143.658 33.4575 143.026 33.5661 142.416 33.5051C141.803 33.4362 141.255 33.2218 140.773 32.862C140.287 32.4941 139.912 31.9992 139.647 31.3771C139.382 30.7549 139.28 30.1487 139.34 29.5582C139.408 28.9644 139.615 28.4336 139.962 27.9657C140.314 27.4865 140.781 27.1231 141.364 26.8756C141.954 26.6246 142.534 26.5381 143.104 26.616C143.678 26.6825 144.2 26.9031 144.671 27.2777C145.137 27.6444 145.504 28.1427 145.772 28.7728C145.789 28.8127 145.804 28.8582 145.816 28.9095C145.833 28.9494 145.852 28.9932 145.872 29.0411L140.405 31.3656L140.135 30.7315L145.148 28.6003L144.92 28.994C144.727 28.5393 144.456 28.179 144.107 27.9128C143.763 27.6353 143.381 27.468 142.961 27.411C142.542 27.3541 142.112 27.4188 141.674 27.6053C141.243 27.7885 140.899 28.0526 140.641 28.3978C140.382 28.743 140.234 29.1358 140.195 29.5761C140.156 30.0163 140.235 30.4678 140.432 30.9304L140.488 31.062C140.691 31.5405 140.975 31.9192 141.338 32.1979C141.706 32.4652 142.121 32.6229 142.584 32.6709C143.052 32.7075 143.529 32.6224 144.016 32.4156C144.398 32.2528 144.725 32.0341 144.994 31.7595C145.271 31.4815 145.47 31.152 145.591 30.7712L146.303 31.118C146.167 31.5717 145.924 31.9761 145.576 32.3313C145.236 32.6831 144.815 32.9658 144.312 33.1794Z" fill="#6F5C37"/>
<path d="M156.079 28.9475C155.399 29.1528 154.759 29.1921 154.159 29.0653C153.557 28.9301 153.036 28.6575 152.595 28.2473C152.152 27.8288 151.833 27.296 151.637 26.6489C151.442 26.0017 151.406 25.3879 151.53 24.8074C151.661 24.2245 151.925 23.7193 152.321 23.292C152.723 22.8538 153.227 22.5434 153.833 22.3606C154.447 22.1752 155.033 22.1523 155.591 22.2916C156.155 22.4202 156.65 22.6962 157.076 23.1197C157.501 23.5348 157.811 24.0702 158.009 24.7256C158.022 24.7671 158.031 24.814 158.038 24.8663C158.051 24.9078 158.064 24.9534 158.079 25.0032L152.392 26.7198L152.193 26.0602L157.407 24.4863L157.138 24.8528C156.995 24.3799 156.765 23.9922 156.447 23.6898C156.136 23.3765 155.774 23.1687 155.363 23.0665C154.952 22.9643 154.518 22.982 154.062 23.1197C153.614 23.255 153.243 23.4801 152.949 23.7952C152.654 24.1103 152.464 24.4846 152.378 24.9181C152.291 25.3515 152.321 25.8089 152.466 26.2901L152.507 26.427C152.657 26.9248 152.898 27.332 153.229 27.6486C153.566 27.9543 153.962 28.1562 154.417 28.2542C154.878 28.3414 155.361 28.3087 155.867 28.1559C156.265 28.0357 156.613 27.8538 156.911 27.61C157.217 27.3638 157.45 27.0579 157.612 26.6924L158.282 27.1147C158.097 27.5508 157.812 27.9265 157.427 28.2417C157.051 28.5545 156.602 28.7897 156.079 28.9475Z" fill="#6F5C37"/>
<path d="M174.081 24.9667L173.206 15.9089L176.893 15.5526C177.86 15.4592 178.724 15.5716 179.486 15.8898C180.256 16.1986 180.876 16.6741 181.348 17.3164C181.819 17.9587 182.098 18.7241 182.183 19.6127C182.269 20.5012 182.142 21.3058 181.803 22.0265C181.463 22.7471 180.945 23.337 180.25 23.796C179.562 24.2456 178.735 24.517 177.769 24.6104L174.081 24.9667ZM174.958 24.046L177.637 23.7872C178.439 23.7097 179.118 23.4874 179.675 23.1201C180.239 22.7435 180.659 22.2632 180.933 21.6795C181.207 21.0871 181.309 20.4286 181.239 19.7039C181.168 18.9707 180.942 18.3438 180.561 17.8234C180.18 17.303 179.676 16.9163 179.051 16.6632C178.434 16.4007 177.724 16.3082 176.922 16.3857L174.243 16.6445L174.958 24.046Z" fill="#6F5C37"/>
<path d="M192.179 24.166C191.469 24.1482 190.849 23.9852 190.319 23.6771C189.79 23.3604 189.38 22.9383 189.09 22.4109C188.8 21.8747 188.663 21.2688 188.68 20.593C188.697 19.9172 188.855 19.323 189.154 18.8103C189.462 18.2979 189.87 17.9007 190.38 17.6188C190.899 17.3284 191.475 17.1911 192.107 17.207C192.748 17.2231 193.312 17.3847 193.799 17.6917C194.294 17.9902 194.678 18.4073 194.951 18.943C195.223 19.47 195.351 20.0758 195.334 20.7602C195.333 20.8035 195.327 20.8511 195.317 20.9028C195.316 20.9462 195.315 20.9938 195.314 21.0458L189.375 20.8965L189.392 20.2078L194.837 20.3446L194.467 20.6084C194.479 20.1145 194.382 19.6743 194.175 19.2876C193.977 18.8925 193.698 18.5821 193.34 18.3564C192.981 18.1306 192.564 18.0118 192.087 17.9998C191.62 17.988 191.197 18.0858 190.819 18.293C190.441 18.5002 190.143 18.7962 189.925 19.1808C189.707 19.5655 189.592 20.0091 189.579 20.5116L189.576 20.6545C189.563 21.1744 189.664 21.6364 189.879 22.0406C190.103 22.4363 190.416 22.752 190.818 22.9875C191.228 23.2145 191.698 23.3347 192.226 23.348C192.642 23.3584 193.029 23.2944 193.388 23.1561C193.756 23.0179 194.073 22.8005 194.341 22.5038L194.846 23.1147C194.533 23.471 194.145 23.7386 193.681 23.9177C193.226 24.097 192.725 24.1798 192.179 24.166Z" fill="#6F5C37"/>
<path d="M203.594 25.0498C203.036 24.9769 202.517 24.8306 202.039 24.6108C201.562 24.3825 201.197 24.1295 200.945 23.8518L201.452 23.1838C201.7 23.4259 202.029 23.6524 202.438 23.8632C202.849 24.0654 203.29 24.1973 203.763 24.259C204.407 24.3432 204.884 24.3049 205.194 24.1443C205.504 23.9751 205.682 23.7229 205.725 23.3877C205.758 23.1385 205.701 22.9345 205.556 22.7757C205.42 22.6094 205.228 22.475 204.979 22.3726C204.732 22.2616 204.452 22.1596 204.141 22.0665C203.83 21.9734 203.52 21.8718 203.211 21.7615C202.91 21.6524 202.64 21.5165 202.399 21.354C202.159 21.1828 201.972 20.9705 201.839 20.7172C201.715 20.465 201.678 20.1455 201.728 19.7588C201.777 19.3893 201.923 19.0719 202.167 18.8066C202.412 18.5413 202.742 18.3529 203.159 18.2412C203.585 18.122 204.086 18.1001 204.662 18.1752C205.1 18.2324 205.531 18.3498 205.953 18.5273C206.377 18.6963 206.718 18.8938 206.977 19.1199L206.482 19.8025C206.208 19.557 205.905 19.3688 205.572 19.238C205.241 19.0986 204.903 19.0064 204.559 18.9616C203.949 18.8819 203.484 18.9304 203.164 19.1071C202.853 19.2763 202.677 19.5242 202.634 19.8508C202.6 20.1086 202.651 20.3207 202.787 20.487C202.931 20.6544 203.127 20.7979 203.373 20.9175C203.63 21.0296 203.909 21.1316 204.212 21.2236C204.523 21.3166 204.828 21.422 205.127 21.5398C205.436 21.65 205.711 21.7865 205.952 21.949C206.203 22.1041 206.391 22.3078 206.515 22.56C206.649 22.8047 206.692 23.1119 206.644 23.4814C206.592 23.8767 206.436 24.2059 206.174 24.4689C205.922 24.7245 205.575 24.9064 205.133 25.0147C204.7 25.1155 204.187 25.1272 203.594 25.0498Z" fill="#6F5C37"/>
<path d="M213.208 26.6278L214.682 19.9639L215.583 20.1633L214.109 26.8272L213.208 26.6278ZM215.465 18.5927C215.279 18.5515 215.136 18.4534 215.037 18.2984C214.939 18.1433 214.909 17.977 214.948 17.7993C214.987 17.6216 215.084 17.4875 215.237 17.3972C215.392 17.2983 215.562 17.2695 215.749 17.3107C215.935 17.3519 216.078 17.4457 216.179 17.5923C216.28 17.7388 216.31 17.901 216.271 18.0787C216.23 18.2648 216.132 18.4073 215.977 18.5062C215.83 18.6069 215.66 18.6357 215.465 18.5927Z" fill="#6F5C37"/>
<path d="M223.545 32.0774C222.952 31.8846 222.411 31.6133 221.923 31.2635C221.436 30.9137 221.075 30.5232 220.841 30.0919L221.503 29.5689C221.72 29.9399 222.026 30.2761 222.42 30.5773C222.82 30.8894 223.271 31.1271 223.774 31.2904C224.598 31.5581 225.267 31.5612 225.78 31.2997C226.291 31.0463 226.677 30.5158 226.939 29.708L227.466 28.0883L227.951 27.0157L228.226 25.8748L228.864 23.9089L229.705 24.182L227.853 29.8818C227.489 31.0029 226.947 31.7333 226.226 32.0732C225.51 32.424 224.617 32.4254 223.545 32.0774ZM224.264 29.3174C223.646 29.1166 223.132 28.804 222.724 28.3796C222.317 27.947 222.048 27.4447 221.914 26.8729C221.789 26.3038 221.827 25.7102 222.028 25.092C222.229 24.4738 222.546 23.9753 222.979 23.5965C223.423 23.2121 223.935 22.9684 224.515 22.8652C225.095 22.7621 225.694 22.8109 226.312 23.0117C226.889 23.1992 227.37 23.4874 227.754 23.8763C228.138 24.2653 228.389 24.7389 228.509 25.2971C228.628 25.8553 228.578 26.4723 228.359 27.1482C228.139 27.8241 227.817 28.3528 227.392 28.7343C226.968 29.1158 226.484 29.3552 225.943 29.4525C225.401 29.5499 224.841 29.5048 224.264 29.3174ZM224.604 28.5666C225.082 28.7219 225.538 28.7609 225.974 28.6835C226.412 28.5979 226.795 28.4127 227.125 28.1279C227.457 27.8348 227.699 27.4534 227.852 26.9836C228.004 26.5137 228.031 26.0668 227.932 25.6427C227.833 25.2187 227.63 24.8475 227.323 24.5292C227.019 24.2026 226.628 23.9617 226.15 23.8064C225.68 23.6538 225.222 23.619 224.776 23.7019C224.341 23.7792 223.959 23.9603 223.629 24.2451C223.308 24.5326 223.071 24.9113 222.918 25.3811C222.766 25.851 222.734 26.3007 222.822 26.7303C222.921 27.1544 223.123 27.5297 223.427 27.8562C223.742 28.1772 224.134 28.414 224.604 28.5666Z" fill="#6F5C37"/>
<path d="M240.302 28.48C240.806 28.7119 241.201 29.0132 241.489 29.3839C241.787 29.7504 241.953 30.1794 241.984 30.6709C242.023 31.166 241.905 31.7127 241.63 32.311L239.972 35.9129L239.134 35.527L240.753 32.0078C241.054 31.3544 241.115 30.7862 240.937 30.3034C240.77 29.8163 240.391 29.4369 239.8 29.1651C239.36 28.9622 238.932 28.8752 238.518 28.9041C238.116 28.9288 237.746 29.0687 237.409 29.3239C237.084 29.5749 236.812 29.9365 236.595 30.4089L235.095 33.6683L234.256 33.2824L237.11 27.0825L237.913 27.4521L237.13 29.1526L237.147 28.774C237.55 28.4158 238.027 28.2104 238.575 28.1577C239.128 28.0972 239.704 28.2046 240.302 28.48Z" fill="#6F5C37"/>
<path d="M247.858 40.3257C247.375 40.036 246.958 39.695 246.607 39.3027C246.261 38.9029 246.027 38.5254 245.907 38.1702L246.638 37.7599C246.769 38.0809 246.98 38.4197 247.272 38.7763C247.567 39.1256 247.92 39.4228 248.329 39.6679C248.886 40.0022 249.339 40.1574 249.686 40.1336C250.039 40.1023 250.302 39.9417 250.476 39.6518C250.605 39.4363 250.634 39.2267 250.565 39.0231C250.507 38.8165 250.384 38.6166 250.197 38.4234C250.014 38.2228 249.798 38.0178 249.55 37.8083C249.302 37.5987 249.058 37.3818 248.818 37.1574C248.587 36.9375 248.393 36.7049 248.236 36.4597C248.085 36.2071 247.999 35.9381 247.978 35.6527C247.964 35.3718 248.058 35.0641 248.258 34.7296C248.45 34.41 248.711 34.1774 249.041 34.0316C249.371 33.8859 249.749 33.845 250.176 33.9088C250.614 33.9696 251.082 34.1494 251.58 34.448C251.959 34.6753 252.307 34.9547 252.624 35.286C252.945 35.61 253.179 35.9273 253.326 36.2379L252.6 36.6661C252.446 36.3317 252.243 36.0382 251.991 35.7856C251.742 35.5255 251.47 35.3064 251.172 35.1281C250.645 34.8116 250.199 34.6705 249.835 34.7048C249.482 34.7361 249.222 34.8929 249.052 35.1754C248.918 35.3983 248.881 35.6131 248.939 35.8197C249.004 36.0307 249.126 36.2403 249.304 36.4483C249.495 36.6534 249.71 36.8585 249.951 37.0635C250.199 37.273 250.437 37.4915 250.665 37.7188C250.904 37.9432 251.102 38.178 251.258 38.4232C251.426 38.6654 251.517 38.927 251.53 39.2079C251.555 39.4859 251.472 39.7846 251.28 40.1042C251.075 40.4461 250.801 40.6855 250.456 40.8223C250.123 40.9561 249.732 40.9845 249.283 40.9073C248.846 40.8271 248.371 40.6333 247.858 40.3257Z" fill="#6F5C37"/>
<path d="M263.035 50.9589L269.123 44.195L271.877 46.6736C272.598 47.3229 273.099 48.036 273.38 48.8129C273.672 49.5892 273.741 50.368 273.585 51.1494C273.43 51.9308 273.054 52.6532 272.457 53.3167C271.859 53.9802 271.181 54.4302 270.42 54.6666C269.659 54.903 268.874 54.9197 268.066 54.7168C267.27 54.5132 266.511 54.0868 265.789 53.4374L263.035 50.9589ZM264.307 50.984L266.307 52.7842C266.906 53.3234 267.529 53.6742 268.176 53.8365C268.835 53.9982 269.472 53.9831 270.088 53.7911C270.71 53.5927 271.264 53.223 271.751 52.6819C272.244 52.1343 272.554 51.5443 272.68 50.9117C272.806 50.2791 272.751 49.6468 272.516 49.0149C272.292 48.3823 271.881 47.7964 271.282 47.2572L269.282 45.457L264.307 50.984Z" fill="#6F5C37"/>
<path d="M275.852 63.7631C275.385 63.2272 275.086 62.6599 274.955 62.0612C274.831 61.4567 274.866 60.8694 275.059 60.2991C275.258 59.7232 275.613 59.2132 276.122 58.7693C276.632 58.3253 277.177 58.0404 277.757 57.9145C278.343 57.7952 278.912 57.8283 279.464 58.0139C280.029 58.2002 280.519 58.532 280.934 59.009C281.355 59.4927 281.617 60.0175 281.719 60.5836C281.834 61.1504 281.786 61.7153 281.575 62.2782C281.37 62.8354 281.01 63.3388 280.494 63.7885C280.461 63.8169 280.422 63.845 280.377 63.8726C280.345 63.9011 280.309 63.9324 280.27 63.9665L276.368 59.4865L276.887 59.034L280.465 63.1415L280.02 63.0463C280.392 62.7218 280.651 62.3527 280.797 61.9389C280.954 61.5259 280.995 61.111 280.919 60.6942C280.844 60.2774 280.649 59.8893 280.336 59.5299C280.029 59.1769 279.671 58.9311 279.263 58.7924C278.855 58.6537 278.435 58.634 278.005 58.7332C277.574 58.8325 277.169 59.0472 276.79 59.3774L276.682 59.4713C276.29 59.8128 276.018 60.1994 275.865 60.6312C275.725 61.0638 275.703 61.5077 275.801 61.9628C275.911 62.4188 276.139 62.8462 276.486 63.2448C276.76 63.5585 277.068 63.801 277.413 63.9722C277.763 64.1499 278.138 64.2372 278.537 64.234L278.428 65.0189C277.954 65.0292 277.495 64.9238 277.049 64.7026C276.609 64.488 276.21 64.1748 275.852 63.7631Z" fill="#6F5C37"/>
<path d="M283.516 73.6433C283.11 73.0599 282.875 72.4635 282.81 71.8541C282.752 71.2398 282.85 70.6596 283.104 70.1137C283.365 69.5628 283.773 69.0944 284.328 68.7085C284.883 68.3225 285.456 68.0985 286.046 68.0364C286.641 67.9815 287.203 68.0762 287.732 68.3207C288.273 68.5673 288.724 68.9503 289.085 69.4697C289.451 69.9962 289.654 70.5464 289.695 71.1202C289.747 71.6962 289.637 72.2525 289.367 72.7891C289.103 73.3208 288.69 73.7821 288.128 74.173C288.093 74.1977 288.051 74.2214 288.003 74.244C287.968 74.2687 287.929 74.2959 287.886 74.3256L284.494 69.4481L285.06 69.0547L288.17 73.5267L287.738 73.3837C288.143 73.1017 288.441 72.7628 288.63 72.3672C288.831 71.9738 288.917 71.5658 288.887 71.1433C288.857 70.7207 288.706 70.3138 288.434 69.9225C288.167 69.5382 287.838 69.255 287.447 69.0727C287.057 68.8905 286.642 68.8253 286.203 68.8772C285.764 68.9291 285.338 69.0985 284.925 69.3855L284.808 69.4672C284.381 69.7641 284.068 70.1188 283.87 70.5314C283.683 70.9462 283.614 71.3851 283.661 71.8482C283.721 72.3134 283.902 72.763 284.203 73.1971C284.441 73.5386 284.722 73.8132 285.045 74.0208C285.374 74.2355 285.737 74.363 286.135 74.4033L285.941 75.1716C285.469 75.1304 285.023 74.9757 284.604 74.7074C284.191 74.4463 283.828 74.0916 283.516 73.6433Z" fill="#6F5C37"/>
<path d="M292.871 89.5304L301.214 85.8961L302.693 89.2928C303.081 90.1827 303.241 91.0393 303.174 91.8624C303.119 92.6901 302.859 93.4274 302.394 94.0742C301.929 94.7211 301.287 95.2228 300.469 95.5793C299.65 95.9358 298.846 96.064 298.056 95.964C297.265 95.864 296.544 95.5542 295.892 95.0346C295.252 94.5195 294.738 93.817 294.35 92.9271L292.871 89.5304ZM294.018 90.08L295.092 92.5471C295.414 93.286 295.836 93.8634 296.357 94.279C296.89 94.6992 297.477 94.9495 298.117 95.0299C298.765 95.1069 299.422 95 300.09 94.7092C300.765 94.415 301.291 94.0062 301.668 93.4828C302.045 92.9593 302.257 92.3612 302.305 91.6884C302.363 91.02 302.232 90.3164 301.91 89.5774L300.835 87.1103L294.018 90.08Z" fill="#6F5C37"/>
<path d="M299.231 106.493C299.028 105.812 298.991 105.172 299.12 104.573C299.258 103.972 299.532 103.451 299.944 103.012C300.364 102.571 300.898 102.253 301.546 102.06C302.194 101.868 302.808 101.834 303.388 101.96C303.971 102.094 304.475 102.36 304.901 102.757C305.337 103.161 305.646 103.666 305.826 104.272C306.009 104.887 306.03 105.473 305.889 106.03C305.758 106.594 305.48 107.088 305.055 107.513C304.638 107.935 304.102 108.244 303.446 108.44C303.404 108.452 303.357 108.462 303.305 108.468C303.263 108.48 303.218 108.494 303.168 108.509L301.473 102.815L302.133 102.618L303.687 107.839L303.322 107.568C303.795 107.427 304.184 107.198 304.487 106.882C304.802 106.571 305.011 106.21 305.115 105.8C305.219 105.389 305.202 104.955 305.066 104.498C304.933 104.05 304.709 103.678 304.395 103.383C304.081 103.087 303.707 102.895 303.274 102.807C302.841 102.719 302.384 102.747 301.902 102.89L301.765 102.931C301.267 103.08 300.858 103.319 300.541 103.648C300.234 103.984 300.03 104.379 299.931 104.834C299.842 105.294 299.873 105.778 300.023 106.285C300.142 106.683 300.323 107.032 300.565 107.331C300.811 107.637 301.116 107.872 301.48 108.035L301.056 108.704C300.62 108.517 300.246 108.231 299.932 107.845C299.62 107.467 299.387 107.017 299.231 106.493Z" fill="#6F5C37"/>
<path d="M301.922 117.621C301.818 117.068 301.797 116.529 301.858 116.007C301.928 115.482 302.056 115.057 302.242 114.732L303.034 115.007C302.88 115.318 302.766 115.7 302.693 116.155C302.627 116.608 302.639 117.069 302.726 117.537C302.845 118.176 303.029 118.618 303.278 118.863C303.535 119.106 303.829 119.196 304.162 119.134C304.409 119.088 304.585 118.971 304.691 118.784C304.808 118.603 304.876 118.379 304.896 118.111C304.925 117.841 304.936 117.543 304.928 117.219C304.92 116.894 304.921 116.567 304.93 116.239C304.941 115.92 304.986 115.621 305.067 115.341C305.155 115.06 305.299 114.817 305.499 114.612C305.7 114.416 305.993 114.282 306.376 114.21C306.742 114.142 307.09 114.183 307.417 114.333C307.745 114.484 308.027 114.74 308.262 115.101C308.507 115.47 308.683 115.94 308.79 116.51C308.871 116.945 308.892 117.39 308.854 117.847C308.825 118.302 308.742 118.688 308.607 119.004L307.805 118.744C307.954 118.408 308.039 118.061 308.06 117.705C308.091 117.346 308.074 116.997 308.01 116.656C307.897 116.051 307.707 115.624 307.44 115.374C307.183 115.131 306.893 115.04 306.569 115.1C306.313 115.148 306.127 115.262 306.011 115.442C305.897 115.631 305.821 115.862 305.783 116.133C305.756 116.411 305.745 116.709 305.751 117.025C305.759 117.35 305.753 117.673 305.734 117.994C305.725 118.322 305.68 118.625 305.6 118.905C305.53 119.191 305.394 119.433 305.193 119.629C305.002 119.832 304.723 119.968 304.357 120.036C303.965 120.11 303.603 120.063 303.272 119.895C302.951 119.735 302.671 119.461 302.431 119.074C302.201 118.693 302.032 118.209 301.922 117.621Z" fill="#6F5C37"/>
<path d="M303.395 127.251L310.188 126.592L310.278 127.511L303.484 128.17L303.395 127.251ZM311.735 126.912C311.716 126.722 311.765 126.557 311.882 126.415C311.999 126.273 312.148 126.193 312.329 126.175C312.51 126.158 312.667 126.208 312.801 126.326C312.943 126.442 313.023 126.596 313.041 126.785C313.06 126.975 313.015 127.141 312.907 127.282C312.798 127.423 312.654 127.502 312.473 127.52C312.283 127.538 312.117 127.489 311.975 127.372C311.834 127.264 311.754 127.111 311.735 126.912Z" fill="#6F5C37"/>
<path d="M301.411 138.768C301.411 138.144 301.501 137.546 301.683 136.974C301.865 136.402 302.125 135.938 302.463 135.582L303.165 136.05C302.879 136.371 302.654 136.765 302.489 137.233C302.316 137.71 302.23 138.213 302.23 138.741C302.23 139.608 302.434 140.245 302.842 140.652C303.241 141.059 303.865 141.263 304.714 141.262L306.417 141.262L307.587 141.391L308.757 141.3L310.824 141.299L310.824 142.183L304.831 142.185C303.653 142.186 302.79 141.896 302.244 141.315C301.689 140.744 301.411 139.895 301.411 138.768ZM304.258 138.598C304.258 137.948 304.396 137.363 304.673 136.842C304.959 136.322 305.353 135.91 305.856 135.607C306.358 135.312 306.934 135.164 307.584 135.164C308.234 135.164 308.806 135.311 309.301 135.605C309.803 135.908 310.194 136.32 310.471 136.84C310.749 137.36 310.888 137.945 310.888 138.595C310.888 139.201 310.763 139.747 310.512 140.233C310.26 140.718 309.888 141.104 309.394 141.39C308.9 141.677 308.298 141.82 307.587 141.82C306.877 141.82 306.274 141.678 305.78 141.392C305.286 141.106 304.909 140.721 304.649 140.235C304.388 139.75 304.258 139.204 304.258 138.598ZM305.077 138.688C305.077 139.191 305.181 139.637 305.39 140.027C305.606 140.417 305.901 140.725 306.274 140.95C306.655 141.175 307.093 141.287 307.587 141.287C308.081 141.287 308.514 141.174 308.887 140.949C309.259 140.723 309.55 140.415 309.758 140.025C309.974 139.635 310.082 139.189 310.082 138.686C310.082 138.192 309.973 137.746 309.756 137.347C309.548 136.957 309.258 136.65 308.885 136.425C308.512 136.208 308.079 136.1 307.585 136.1C307.091 136.1 306.653 136.209 306.272 136.426C305.899 136.651 305.605 136.959 305.388 137.349C305.18 137.748 305.077 138.194 305.077 138.688Z" fill="#6F5C37"/>
<path d="M310.016 153.589C309.951 154.14 309.787 154.61 309.523 154.997C309.267 155.395 308.91 155.685 308.452 155.867C307.994 156.057 307.437 156.114 306.783 156.037L302.845 155.575L302.953 154.658L306.8 155.11C307.515 155.194 308.074 155.076 308.478 154.757C308.889 154.448 309.133 153.97 309.209 153.324C309.265 152.842 309.216 152.409 309.06 152.024C308.912 151.649 308.665 151.341 308.318 151.099C307.979 150.868 307.551 150.722 307.034 150.661L303.471 150.243L303.578 149.326L310.357 150.121L310.254 150.999L308.395 150.781L308.76 150.68C309.225 150.953 309.568 151.342 309.788 151.848C310.016 152.355 310.092 152.935 310.016 153.589Z" fill="#6F5C37"/>
<path d="M301.088 164.439C301.214 163.89 301.41 163.388 301.674 162.933C301.947 162.48 302.234 162.142 302.534 161.917L303.151 162.485C302.886 162.709 302.629 163.015 302.38 163.402C302.14 163.792 301.966 164.219 301.859 164.683C301.714 165.317 301.706 165.795 301.837 166.118C301.975 166.444 302.209 166.644 302.539 166.72C302.784 166.776 302.992 166.739 303.164 166.61C303.343 166.491 303.495 166.312 303.621 166.075C303.755 165.839 303.883 165.57 304.006 165.269C304.128 164.968 304.259 164.669 304.398 164.372C304.536 164.084 304.697 163.827 304.882 163.603C305.075 163.381 305.304 163.215 305.569 163.107C305.832 163.008 306.154 163.001 306.534 163.089C306.897 163.172 307.199 163.348 307.44 163.617C307.68 163.885 307.836 164.232 307.907 164.658C307.985 165.094 307.959 165.595 307.829 166.161C307.73 166.591 307.572 167.009 307.355 167.412C307.146 167.818 306.917 168.139 306.667 168.375L306.035 167.816C306.306 167.567 306.522 167.283 306.684 166.965C306.855 166.648 306.979 166.321 307.056 165.983C307.194 165.383 307.19 164.916 307.045 164.58C306.906 164.255 306.676 164.055 306.355 163.981C306.102 163.923 305.886 163.954 305.708 164.073C305.527 164.2 305.366 164.381 305.223 164.615C305.087 164.86 304.958 165.128 304.838 165.42C304.715 165.721 304.581 166.015 304.436 166.302C304.296 166.599 304.134 166.859 303.949 167.084C303.771 167.318 303.55 167.486 303.287 167.585C303.031 167.695 302.721 167.709 302.358 167.625C301.969 167.536 301.656 167.349 301.42 167.063C301.189 166.788 301.042 166.425 300.976 165.974C300.917 165.534 300.955 165.022 301.088 164.439Z" fill="#6F5C37"/>
<path d="M295.672 182.161L303.987 185.858L302.482 189.243C302.088 190.13 301.565 190.827 300.912 191.334C300.265 191.852 299.545 192.158 298.754 192.253C297.963 192.347 297.16 192.212 296.344 191.85C295.528 191.487 294.89 190.981 294.43 190.33C293.97 189.68 293.711 188.939 293.654 188.107C293.602 187.287 293.772 186.434 294.167 185.547L295.672 182.161ZM296.041 183.378L294.948 185.837C294.621 186.574 294.48 187.275 294.525 187.94C294.576 188.617 294.787 189.218 295.16 189.744C295.541 190.274 296.064 190.687 296.73 190.983C297.403 191.282 298.06 191.394 298.7 191.318C299.341 191.242 299.925 190.995 300.453 190.575C300.986 190.167 301.415 189.594 301.743 188.858L302.836 186.399L296.041 183.378Z" fill="#6F5C37"/>
<path d="M287.46 198.31C287.825 197.7 288.272 197.241 288.801 196.931C289.338 196.626 289.907 196.477 290.509 196.484C291.118 196.495 291.713 196.675 292.293 197.022C292.873 197.37 293.312 197.8 293.611 198.312C293.906 198.832 294.051 199.384 294.045 199.966C294.042 200.561 293.879 201.129 293.553 201.672C293.224 202.222 292.806 202.634 292.299 202.906C291.795 203.19 291.243 203.319 290.643 203.293C290.05 203.271 289.459 203.084 288.872 202.732C288.835 202.71 288.796 202.682 288.756 202.647C288.719 202.625 288.678 202.601 288.633 202.574L291.687 197.478L292.278 197.832L289.478 202.504L289.431 202.052C289.855 202.306 290.286 202.438 290.725 202.448C291.166 202.47 291.573 202.38 291.946 202.179C292.319 201.978 292.628 201.674 292.873 201.265C293.114 200.863 293.237 200.447 293.242 200.016C293.248 199.585 293.137 199.18 292.909 198.801C292.682 198.422 292.352 198.104 291.921 197.845L291.798 197.772C291.352 197.505 290.9 197.365 290.443 197.354C289.988 197.354 289.559 197.471 289.156 197.704C288.757 197.95 288.421 198.299 288.149 198.753C287.936 199.11 287.801 199.479 287.744 199.859C287.684 200.247 287.717 200.63 287.843 201.009L287.063 201.148C286.907 200.701 286.865 200.231 286.937 199.739C287.005 199.255 287.18 198.778 287.46 198.31Z" fill="#6F5C37"/>
<path d="M280.436 208.655C280.865 208.088 281.359 207.68 281.919 207.43C282.485 207.185 283.067 207.099 283.665 207.171C284.269 207.249 284.841 207.492 285.38 207.9C285.918 208.308 286.308 208.784 286.55 209.326C286.786 209.875 286.87 210.438 286.801 211.017C286.734 211.608 286.509 212.155 286.127 212.659C285.74 213.17 285.28 213.534 284.746 213.749C284.215 213.977 283.652 214.045 283.058 213.954C282.471 213.868 281.904 213.618 281.359 213.204C281.324 213.178 281.289 213.146 281.252 213.107C281.218 213.081 281.18 213.053 281.139 213.021L284.728 208.287L285.277 208.703L281.986 213.044L281.988 212.589C282.382 212.887 282.796 213.065 283.231 213.123C283.668 213.193 284.082 213.148 284.475 212.989C284.867 212.83 285.207 212.56 285.495 212.18C285.778 211.807 285.946 211.407 285.998 210.979C286.051 210.551 285.984 210.137 285.799 209.735C285.614 209.334 285.321 208.981 284.921 208.678L284.807 208.591C284.392 208.277 283.958 208.089 283.504 208.028C283.052 207.979 282.613 208.049 282.188 208.237C281.764 208.438 281.392 208.749 281.073 209.17C280.821 209.502 280.647 209.853 280.55 210.226C280.447 210.605 280.438 210.989 280.523 211.38L279.732 211.433C279.625 210.971 279.635 210.5 279.76 210.019C279.881 209.544 280.106 209.09 280.436 208.655Z" fill="#6F5C37"/>
<path d="M268.221 222.465L274.258 229.274L271.486 231.732C270.76 232.376 269.995 232.794 269.191 232.985C268.387 233.188 267.606 233.169 266.847 232.927C266.088 232.684 265.412 232.229 264.82 231.561C264.228 230.894 263.857 230.168 263.707 229.386C263.558 228.603 263.629 227.822 263.922 227.041C264.214 226.273 264.723 225.567 265.449 224.923L268.221 222.465ZM268.054 223.726L266.04 225.511C265.437 226.046 265.018 226.625 264.784 227.25C264.55 227.886 264.493 228.521 264.614 229.155C264.742 229.795 265.047 230.387 265.53 230.932C266.019 231.483 266.57 231.857 267.184 232.054C267.799 232.25 268.433 232.267 269.088 232.104C269.741 231.953 270.37 231.61 270.973 231.075L272.987 229.29L268.054 223.726Z" fill="#6F5C37"/>
<path d="M254.058 233.761C254.643 233.357 255.24 233.124 255.85 233.062C256.464 233.006 257.044 233.106 257.589 233.362C258.139 233.625 258.606 234.035 258.99 234.591C259.374 235.148 259.595 235.721 259.655 236.311C259.708 236.907 259.611 237.468 259.365 237.996C259.116 238.536 258.731 238.986 258.211 239.345C257.683 239.71 257.132 239.911 256.558 239.949C255.982 239.999 255.426 239.887 254.89 239.615C254.359 239.349 253.9 238.934 253.511 238.371C253.486 238.335 253.463 238.293 253.44 238.246C253.416 238.21 253.389 238.171 253.359 238.128L258.249 234.754L258.641 235.321L254.157 238.415L254.302 237.983C254.582 238.39 254.92 238.689 255.315 238.879C255.708 239.082 256.115 239.17 256.538 239.141C256.96 239.113 257.368 238.963 257.76 238.693C258.146 238.427 258.43 238.099 258.614 237.709C258.797 237.319 258.864 236.905 258.814 236.465C258.764 236.026 258.596 235.6 258.31 235.186L258.229 235.068C257.934 234.64 257.58 234.326 257.168 234.126C256.754 233.938 256.316 233.867 255.852 233.913C255.387 233.97 254.937 234.15 254.502 234.45C254.159 234.686 253.883 234.966 253.675 235.289C253.459 235.617 253.33 235.979 253.288 236.377L252.52 236.18C252.563 235.708 252.72 235.263 252.99 234.845C253.252 234.432 253.608 234.071 254.058 233.761Z" fill="#6B4C10"/>
<path d="M244.308 239.762C244.803 239.492 245.308 239.306 245.824 239.202C246.344 239.106 246.788 239.096 247.155 239.172L247.138 240.01C246.795 239.961 246.396 239.971 245.941 240.041C245.49 240.119 245.055 240.273 244.637 240.501C244.066 240.812 243.703 241.123 243.547 241.435C243.396 241.755 243.401 242.063 243.563 242.36C243.683 242.58 243.849 242.712 244.06 242.755C244.267 242.81 244.502 242.805 244.763 242.742C245.029 242.686 245.315 242.604 245.621 242.496C245.928 242.388 246.238 242.288 246.553 242.195C246.86 242.107 247.159 242.057 247.449 242.047C247.744 242.044 248.02 242.106 248.276 242.233C248.525 242.364 248.743 242.6 248.93 242.943C249.108 243.27 249.177 243.613 249.135 243.971C249.093 244.329 248.937 244.676 248.666 245.011C248.391 245.359 247.999 245.671 247.489 245.949C247.101 246.161 246.684 246.319 246.238 246.424C245.796 246.537 245.404 246.578 245.061 246.547L245.06 245.704C245.426 245.741 245.782 245.715 246.128 245.625C246.478 245.543 246.805 245.419 247.11 245.253C247.65 244.958 247.997 244.645 248.152 244.314C248.304 243.995 248.301 243.69 248.143 243.401C248.019 243.173 247.853 243.031 247.645 242.977C247.43 242.926 247.188 242.925 246.918 242.973C246.645 243.034 246.359 243.116 246.06 243.219C245.753 243.327 245.445 243.421 245.133 243.502C244.819 243.595 244.516 243.646 244.226 243.657C243.932 243.679 243.66 243.625 243.411 243.494C243.159 243.375 242.943 243.152 242.765 242.825C242.574 242.475 242.507 242.116 242.564 241.75C242.617 241.395 242.791 241.043 243.085 240.696C243.375 240.359 243.783 240.048 244.308 239.762Z" fill="#6F5C37"/>
<path d="M235.606 244.142L238.335 250.398L237.489 250.767L234.76 244.511L235.606 244.142ZM238.508 251.967C238.683 251.891 238.856 251.887 239.027 251.954C239.198 252.021 239.32 252.138 239.393 252.305C239.466 252.472 239.467 252.637 239.396 252.8C239.329 252.971 239.208 253.095 239.033 253.171C238.859 253.247 238.687 253.256 238.52 253.196C238.352 253.137 238.232 253.024 238.159 252.857C238.083 252.683 238.078 252.51 238.146 252.338C238.205 252.171 238.326 252.047 238.508 251.967Z" fill="#6F5C37"/>
<path d="M224.041 245.818C224.634 245.625 225.231 245.526 225.831 245.522C226.431 245.518 226.953 245.621 227.395 245.832L227.168 246.645C226.774 246.472 226.329 246.38 225.833 246.369C225.326 246.351 224.822 246.425 224.319 246.589C223.495 246.857 222.952 247.248 222.691 247.761C222.428 248.267 222.427 248.923 222.69 249.731L223.218 251.35L223.457 252.503L223.906 253.587L224.546 255.552L223.705 255.826L221.849 250.128C221.484 249.007 221.493 248.097 221.876 247.398C222.248 246.694 222.969 246.167 224.041 245.818ZM225.083 248.472C225.701 248.271 226.3 248.222 226.881 248.324C227.464 248.435 227.977 248.683 228.422 249.067C228.857 249.453 229.176 249.956 229.377 250.574C229.579 251.192 229.616 251.781 229.489 252.342C229.356 252.914 229.085 253.412 228.677 253.837C228.268 254.262 227.755 254.575 227.137 254.776C226.56 254.964 226.002 255.014 225.463 254.925C224.924 254.837 224.441 254.602 224.016 254.221C223.592 253.84 223.269 253.311 223.049 252.635C222.829 251.96 222.778 251.343 222.897 250.784C223.016 250.226 223.266 249.748 223.647 249.351C224.028 248.953 224.506 248.66 225.083 248.472ZM225.25 249.279C224.772 249.435 224.38 249.672 224.074 249.991C223.77 250.318 223.569 250.693 223.47 251.117C223.374 251.55 223.403 252.001 223.556 252.47C223.709 252.94 223.95 253.317 224.28 253.602C224.609 253.886 224.992 254.067 225.427 254.144C225.865 254.229 226.323 254.194 226.801 254.038C227.271 253.885 227.661 253.644 227.973 253.314C228.28 252.996 228.482 252.624 228.581 252.2C228.672 251.779 228.64 251.333 228.487 250.864C228.334 250.394 228.096 250.011 227.772 249.716C227.442 249.431 227.058 249.246 226.62 249.161C226.177 249.087 225.72 249.126 225.25 249.279Z" fill="#6F5C37"/>
<path d="M212.608 258.585C212.064 258.694 211.567 258.683 211.117 258.553C210.659 258.432 210.273 258.182 209.959 257.804C209.636 257.426 209.41 256.915 209.28 256.269L208.501 252.381L209.406 252.2L210.167 255.998C210.309 256.704 210.593 257.199 211.022 257.485C211.443 257.78 211.973 257.864 212.61 257.736C213.086 257.641 213.483 257.46 213.801 257.193C214.112 256.936 214.328 256.606 214.451 256.201C214.566 255.807 214.573 255.355 214.471 254.845L213.766 251.327L214.671 251.145L216.011 257.837L215.145 258.011L214.777 256.175L214.986 256.492C214.871 257.018 214.606 257.465 214.194 257.83C213.782 258.204 213.254 258.456 212.608 258.585Z" fill="#6F5C37"/>
<path d="M199.528 253.453C200.089 253.403 200.627 253.433 201.142 253.544C201.657 253.663 202.068 253.831 202.374 254.048L202.024 254.81C201.73 254.627 201.36 254.477 200.914 254.36C200.47 254.252 200.01 254.219 199.535 254.261C198.888 254.319 198.43 254.46 198.163 254.684C197.897 254.916 197.778 255.201 197.808 255.538C197.831 255.788 197.93 255.975 198.106 256.098C198.275 256.231 198.492 256.321 198.757 256.367C199.023 256.421 199.318 256.46 199.642 256.484C199.966 256.507 200.29 256.539 200.616 256.58C200.933 256.621 201.227 256.695 201.497 256.801C201.768 256.916 201.996 257.083 202.181 257.302C202.357 257.521 202.463 257.825 202.497 258.213C202.53 258.584 202.456 258.926 202.275 259.238C202.094 259.55 201.812 259.806 201.43 260.005C201.04 260.214 200.555 260.344 199.977 260.395C199.537 260.435 199.091 260.413 198.64 260.332C198.19 260.259 197.814 260.14 197.512 259.975L197.848 259.202C198.168 259.382 198.505 259.5 198.858 259.555C199.212 259.62 199.561 259.636 199.907 259.606C200.519 259.551 200.963 259.403 201.237 259.161C201.504 258.928 201.622 258.648 201.593 258.32C201.57 258.061 201.474 257.865 201.306 257.732C201.129 257.6 200.907 257.502 200.64 257.439C200.366 257.385 200.071 257.346 199.755 257.322C199.431 257.299 199.11 257.262 198.793 257.212C198.467 257.171 198.169 257.098 197.899 256.991C197.62 256.894 197.393 256.736 197.217 256.517C197.033 256.307 196.924 256.017 196.891 255.645C196.856 255.248 196.937 254.893 197.136 254.579C197.326 254.275 197.626 254.023 198.034 253.821C198.435 253.629 198.933 253.506 199.528 253.453Z" fill="#6F5C37"/>
<path d="M181 253.784L180.057 262.835L176.372 262.451C175.406 262.351 174.582 262.069 173.898 261.606C173.205 261.15 172.691 260.561 172.357 259.837C172.023 259.114 171.902 258.309 171.995 257.421C172.087 256.533 172.371 255.77 172.847 255.131C173.324 254.492 173.948 254.017 174.721 253.705C175.485 253.402 176.349 253.3 177.315 253.4L181 253.784ZM179.957 254.512L177.28 254.233C176.479 254.15 175.769 254.233 175.15 254.482C174.522 254.739 174.016 255.126 173.63 255.644C173.245 256.17 173.014 256.795 172.938 257.519C172.862 258.252 172.959 258.911 173.229 259.497C173.499 260.083 173.915 260.562 174.478 260.934C175.031 261.314 175.708 261.546 176.51 261.629L179.186 261.908L179.957 254.512Z" fill="#6F5C37"/>
<path d="M163.103 250.971C163.796 251.13 164.371 251.413 164.829 251.82C165.285 252.236 165.603 252.731 165.782 253.306C165.96 253.889 165.973 254.51 165.822 255.169C165.671 255.828 165.398 256.379 165.003 256.821C164.6 257.263 164.121 257.571 163.565 257.746C162.999 257.927 162.407 257.947 161.79 257.806C161.165 257.663 160.645 257.392 160.229 256.995C159.803 256.604 159.51 256.118 159.349 255.539C159.186 254.969 159.182 254.349 159.334 253.682C159.344 253.64 159.359 253.594 159.379 253.546C159.389 253.503 159.399 253.457 159.411 253.406L165.202 254.733L165.048 255.405L159.739 254.188L160.154 254.003C160.044 254.485 160.052 254.936 160.178 255.356C160.294 255.782 160.505 256.142 160.811 256.434C161.117 256.727 161.503 256.926 161.968 257.033C162.424 257.137 162.858 257.126 163.269 256.998C163.681 256.87 164.032 256.639 164.322 256.305C164.611 255.971 164.812 255.56 164.925 255.07L164.957 254.93C165.073 254.423 165.066 253.951 164.935 253.512C164.794 253.079 164.55 252.708 164.203 252.397C163.846 252.093 163.41 251.882 162.895 251.764C162.489 251.671 162.097 251.657 161.718 251.721C161.33 251.783 160.976 251.933 160.654 252.171L160.281 251.472C160.658 251.185 161.092 250.999 161.582 250.916C162.064 250.831 162.571 250.849 163.103 250.971Z" fill="#6F5C37"/>
<path d="M151.092 247.492C151.764 247.725 152.305 248.068 152.716 248.523C153.124 248.986 153.386 249.513 153.502 250.103C153.615 250.702 153.561 251.321 153.339 251.96C153.118 252.598 152.787 253.116 152.346 253.514C151.897 253.908 151.387 254.162 150.815 254.276C150.233 254.395 149.643 254.35 149.045 254.143C148.439 253.933 147.951 253.607 147.581 253.167C147.2 252.732 146.961 252.218 146.864 251.625C146.765 251.04 146.827 250.424 147.051 249.777C147.066 249.736 147.085 249.692 147.111 249.646C147.125 249.605 147.14 249.56 147.158 249.511L152.77 251.459L152.544 252.11L147.398 250.324L147.832 250.185C147.67 250.652 147.628 251.101 147.708 251.532C147.777 251.969 147.947 252.349 148.22 252.673C148.493 252.997 148.855 253.238 149.305 253.394C149.747 253.547 150.18 253.583 150.603 253.5C151.026 253.418 151.4 253.226 151.724 252.926C152.048 252.626 152.293 252.239 152.458 251.764L152.505 251.629C152.675 251.137 152.72 250.666 152.637 250.216C152.544 249.771 152.342 249.375 152.031 249.028C151.709 248.687 151.299 248.43 150.799 248.257C150.406 248.12 150.018 248.063 149.634 248.086C149.242 248.106 148.873 248.217 148.528 248.418L148.233 247.682C148.639 247.438 149.09 247.301 149.586 247.272C150.075 247.239 150.577 247.313 151.092 247.492Z" fill="#6F5C37"/>
<path d="M134.181 240.149L129.573 247.996L126.378 246.12C125.541 245.629 124.907 245.031 124.477 244.326C124.035 243.624 123.812 242.875 123.807 242.078C123.802 241.281 124.026 240.498 124.478 239.728C124.93 238.959 125.505 238.382 126.203 237.997C126.901 237.613 127.666 237.44 128.499 237.476C129.32 237.516 130.149 237.782 130.986 238.273L134.181 240.149ZM132.93 240.38L130.609 239.017C129.914 238.609 129.234 238.39 128.568 238.361C127.89 238.335 127.268 238.477 126.703 238.789C126.134 239.108 125.665 239.581 125.296 240.209C124.923 240.844 124.738 241.484 124.742 242.129C124.745 242.774 124.925 243.383 125.283 243.955C125.629 244.53 126.149 245.021 126.844 245.429L129.165 246.792L132.93 240.38Z" fill="#6F5C37"/>
<path d="M119.057 230.175C119.622 230.606 120.028 231.102 120.277 231.663C120.519 232.23 120.603 232.812 120.529 233.41C120.449 234.014 120.204 234.584 119.793 235.122C119.383 235.659 118.906 236.047 118.363 236.287C117.814 236.521 117.249 236.603 116.671 236.532C116.081 236.462 115.534 236.236 115.031 235.852C114.522 235.462 114.16 235.001 113.946 234.467C113.721 233.934 113.654 233.371 113.748 232.777C113.837 232.191 114.089 231.625 114.504 231.081C114.531 231.047 114.563 231.011 114.601 230.975C114.628 230.941 114.657 230.903 114.688 230.862L119.409 234.468L118.991 235.016L114.662 231.709L115.117 231.713C114.818 232.106 114.638 232.519 114.579 232.954C114.507 233.39 114.55 233.805 114.708 234.198C114.866 234.591 115.134 234.932 115.513 235.221C115.885 235.506 116.284 235.675 116.712 235.729C117.14 235.783 117.555 235.718 117.957 235.534C118.359 235.351 118.712 235.059 119.017 234.66L119.104 234.546C119.42 234.133 119.609 233.7 119.672 233.246C119.723 232.794 119.655 232.355 119.468 231.928C119.269 231.504 118.96 231.131 118.539 230.81C118.209 230.557 117.858 230.382 117.486 230.283C117.107 230.179 116.722 230.169 116.332 230.252L116.281 229.461C116.744 229.356 117.215 229.367 117.696 229.495C118.17 229.617 118.623 229.844 119.057 230.175Z" fill="#6F5C37"/>
<path d="M110.334 222.76C110.744 223.147 111.078 223.57 111.336 224.028C111.588 224.493 111.735 224.912 111.776 225.285L110.974 225.528C110.915 225.187 110.782 224.81 110.574 224.399C110.36 223.995 110.08 223.629 109.733 223.301C109.261 222.855 108.852 222.606 108.508 222.554C108.157 222.509 107.865 222.609 107.633 222.855C107.461 223.038 107.387 223.236 107.411 223.45C107.423 223.664 107.5 223.886 107.641 224.115C107.777 224.35 107.943 224.596 108.141 224.854C108.338 225.113 108.529 225.377 108.715 225.647C108.894 225.912 109.033 226.181 109.133 226.454C109.227 226.733 109.253 227.015 109.212 227.298C109.165 227.575 109.007 227.855 108.739 228.139C108.483 228.41 108.179 228.581 107.825 228.652C107.472 228.723 107.093 228.682 106.69 228.528C106.275 228.374 105.857 228.098 105.435 227.699C105.113 227.396 104.834 227.048 104.596 226.656C104.352 226.271 104.192 225.911 104.115 225.575L104.916 225.314C104.994 225.673 105.129 226.003 105.322 226.305C105.508 226.612 105.727 226.885 105.979 227.123C106.427 227.545 106.832 227.779 107.195 227.824C107.545 227.869 107.834 227.772 108.06 227.533C108.239 227.344 108.322 227.142 108.31 226.928C108.291 226.708 108.217 226.477 108.088 226.235C107.946 225.994 107.78 225.748 107.589 225.495C107.391 225.237 107.206 224.973 107.033 224.702C106.847 224.431 106.705 224.159 106.605 223.886C106.493 223.614 106.461 223.339 106.508 223.062C106.543 222.785 106.689 222.511 106.944 222.24C107.218 221.95 107.538 221.776 107.904 221.716C108.258 221.657 108.646 221.713 109.068 221.885C109.477 222.058 109.9 222.349 110.334 222.76Z" fill="#6F5C37"/>
<path d="M103.477 215.84L98.3718 220.37L97.7592 219.68L102.864 215.15L103.477 215.84ZM96.9332 221.021C97.0598 221.163 97.1176 221.327 97.1066 221.51C97.0957 221.694 97.0221 221.846 96.886 221.967C96.7499 222.087 96.5933 222.139 96.4162 222.123C96.2327 222.112 96.0777 222.035 95.9511 221.892C95.8246 221.75 95.7635 221.589 95.768 221.412C95.7725 221.234 95.8428 221.085 95.9789 220.964C96.1215 220.837 96.2846 220.78 96.4681 220.79C96.6459 220.795 96.8009 220.872 96.9332 221.021Z" fill="#6F5C37"/>
<path d="M98.3054 205.361C98.6728 205.865 98.9513 206.402 99.1409 206.971C99.3306 207.541 99.3934 208.069 99.3293 208.555L98.4864 208.59C98.5288 208.162 98.4788 207.711 98.3363 207.236C98.1958 206.748 97.97 206.291 97.6587 205.864C97.1485 205.163 96.6088 204.768 96.0398 204.679C95.4777 204.584 94.8534 204.787 94.1668 205.287L92.7902 206.289L91.7679 206.873L90.8758 207.635L89.2049 208.852L88.6845 208.138L93.5289 204.61C94.4816 203.916 95.3496 203.643 96.1328 203.791C96.9179 203.927 97.6421 204.45 98.3054 205.361ZM96.1036 207.173C96.4863 207.699 96.7186 208.253 96.8005 208.837C96.8755 209.425 96.7991 209.99 96.5713 210.531C96.3385 211.066 95.9594 211.524 95.4339 211.907C94.9085 212.289 94.3594 212.507 93.7866 212.56C93.2017 212.61 92.6441 212.507 92.1138 212.25C91.5835 211.993 91.127 211.602 90.7443 211.076C90.3871 210.586 90.1673 210.071 90.0847 209.53C90.0021 208.99 90.0763 208.459 90.3073 207.937C90.5382 207.415 90.9409 206.945 91.5154 206.526C92.0898 206.108 92.6609 205.869 93.2286 205.809C93.7963 205.75 94.3281 205.839 94.824 206.079C95.3199 206.318 95.7464 206.683 96.1036 207.173ZM95.388 207.582C95.092 207.175 94.7452 206.876 94.3475 206.683C93.9427 206.495 93.5234 206.42 93.0895 206.457C92.6486 206.5 92.2285 206.666 91.8292 206.957C91.4298 207.248 91.1459 207.594 90.9773 207.996C90.8087 208.397 90.7552 208.817 90.8166 209.255C90.8711 209.697 91.0463 210.122 91.3422 210.528C91.6331 210.928 91.9834 211.225 92.3932 211.419C92.791 211.612 93.2068 211.69 93.6407 211.653C94.0695 211.608 94.4836 211.441 94.8829 211.15C95.2822 210.859 95.5722 210.514 95.7529 210.114C95.9215 209.713 95.9785 209.291 95.9241 208.848C95.8575 208.403 95.6788 207.981 95.388 207.582Z" fill="#6F5C37"/>
<path d="M82.6273 198.438C82.3555 197.955 82.212 197.479 82.197 197.01C82.1702 196.538 82.2883 196.094 82.5513 195.677C82.8101 195.253 83.2265 194.88 83.8007 194.557L87.2568 192.614L87.7092 193.419L84.3324 195.317C83.7054 195.67 83.3224 196.094 83.1835 196.59C83.0328 197.082 83.1168 197.611 83.4354 198.178C83.6732 198.601 83.9683 198.922 84.3204 199.142C84.6608 199.358 85.0422 199.462 85.4647 199.453C85.8755 199.441 86.3075 199.307 86.7607 199.052L89.8883 197.294L90.3406 198.098L84.3916 201.443L83.9583 200.673L85.59 199.755L85.3542 200.052C84.8174 200.105 84.3113 199.992 83.8359 199.713C83.353 199.437 82.9501 199.013 82.6273 198.438Z" fill="#6F5C37"/>
<path d="M83.4619 184.413C83.683 184.931 83.8205 185.452 83.8743 185.975C83.9201 186.502 83.8876 186.945 83.7766 187.303L82.9438 187.206C83.0262 186.87 83.0541 186.471 83.0275 186.011C82.993 185.555 82.8821 185.108 82.695 184.669C82.4399 184.071 82.1646 183.68 81.869 183.495C81.5654 183.314 81.2582 183.29 80.9473 183.422C80.7161 183.521 80.5691 183.673 80.5062 183.879C80.4319 184.08 80.4139 184.314 80.4522 184.58C80.4825 184.85 80.5367 185.143 80.6147 185.458C80.6927 185.773 80.7628 186.092 80.8249 186.414C80.8836 186.729 80.9042 187.031 80.8867 187.321C80.8612 187.614 80.7731 187.883 80.6225 188.126C80.4685 188.361 80.2122 188.556 79.8535 188.709C79.5107 188.855 79.163 188.89 78.8104 188.815C78.4577 188.739 78.1274 188.55 77.8195 188.248C77.5002 187.941 77.2266 187.521 76.9986 186.987C76.8252 186.581 76.7075 186.15 76.6456 185.696C76.5757 185.245 76.5724 184.851 76.6355 184.513L77.4752 184.593C77.4029 184.954 77.395 185.31 77.4513 185.663C77.4997 186.019 77.5919 186.357 77.728 186.676C77.9695 187.242 78.2478 187.618 78.5627 187.804C78.8663 187.985 79.1695 188.011 79.4724 187.882C79.7115 187.78 79.8682 187.628 79.9425 187.427C80.0134 187.218 80.0377 186.976 80.0153 186.703C79.9816 186.426 79.9275 186.133 79.8528 185.826C79.7748 185.51 79.7104 185.194 79.6597 184.876C79.5976 184.554 79.5753 184.248 79.5928 183.958C79.599 183.663 79.679 183.398 79.833 183.163C79.9757 182.923 80.2184 182.73 80.5611 182.583C80.9278 182.427 81.2909 182.395 81.6503 182.486C81.9984 182.573 82.3315 182.78 82.6497 183.106C82.9564 183.427 83.2272 183.863 83.4619 184.413Z" fill="#6F5C37"/>
</svg>
