<svg width="321" height="273" viewBox="0 0 321 273" fill="none" xmlns="http://www.w3.org/2000/svg">
<rect width="321" height="273" fill="#F2E8E8"/>
<circle cx="116" cy="149" r="100" fill="#07041B"/>
<path d="M294.822 184.205L303.065 188.06L301.495 191.416C301.084 192.296 300.547 192.982 299.885 193.476C299.228 193.982 298.503 194.274 297.71 194.353C296.917 194.432 296.116 194.282 295.308 193.904C294.499 193.526 293.871 193.007 293.424 192.348C292.976 191.689 292.732 190.943 292.691 190.111C292.654 189.29 292.841 188.44 293.252 187.561L294.822 184.205ZM295.168 185.429L294.028 187.866C293.686 188.596 293.532 189.294 293.565 189.96C293.602 190.638 293.802 191.243 294.165 191.776C294.535 192.313 295.051 192.736 295.71 193.045C296.377 193.357 297.032 193.481 297.674 193.418C298.316 193.355 298.905 193.118 299.441 192.709C299.981 192.311 300.422 191.747 300.763 191.017L301.904 188.579L295.168 185.429Z" fill="#6F5C37"/>
<path d="M286.301 200.192C286.678 199.59 287.134 199.139 287.669 198.839C288.211 198.545 288.783 198.407 289.385 198.425C289.994 198.449 290.585 198.639 291.158 198.998C291.731 199.356 292.162 199.795 292.451 200.313C292.736 200.839 292.87 201.393 292.853 201.975C292.839 202.569 292.664 203.135 292.329 203.671C291.989 204.215 291.563 204.618 291.051 204.881C290.542 205.155 289.987 205.273 289.388 205.235C288.795 205.202 288.209 205.004 287.628 204.641C287.591 204.618 287.553 204.589 287.514 204.554C287.477 204.531 287.437 204.506 287.393 204.478L290.543 199.441L291.127 199.807L288.239 204.425L288.2 203.971C288.619 204.233 289.048 204.374 289.486 204.392C289.927 204.423 290.336 204.341 290.712 204.147C291.089 203.954 291.404 203.655 291.657 203.251C291.905 202.854 292.036 202.44 292.05 202.009C292.064 201.578 291.961 201.171 291.74 200.788C291.52 200.405 291.197 200.08 290.77 199.814L290.649 199.738C290.208 199.462 289.759 199.314 289.302 199.293C288.847 199.285 288.416 199.394 288.009 199.62C287.605 199.857 287.262 200.2 286.982 200.649C286.761 201.001 286.619 201.367 286.556 201.747C286.488 202.133 286.513 202.517 286.633 202.899L285.85 203.022C285.702 202.572 285.669 202.102 285.751 201.611C285.828 201.128 286.012 200.655 286.301 200.192Z" fill="#6F5C37"/>
<path d="M279.079 210.4C279.519 209.842 280.022 209.443 280.586 209.204C281.157 208.97 281.74 208.895 282.336 208.979C282.939 209.068 283.506 209.322 284.037 209.741C284.568 210.159 284.949 210.642 285.18 211.189C285.405 211.742 285.478 212.307 285.398 212.884C285.32 213.474 285.085 214.017 284.693 214.513C284.296 215.017 283.829 215.371 283.291 215.577C282.755 215.794 282.191 215.852 281.599 215.749C281.014 215.651 280.452 215.391 279.915 214.967C279.881 214.94 279.846 214.907 279.81 214.868C279.776 214.841 279.739 214.811 279.698 214.779L283.378 210.115L283.918 210.541L280.545 214.818L280.556 214.363C280.944 214.669 281.355 214.855 281.788 214.921C282.223 214.999 282.639 214.963 283.034 214.811C283.43 214.659 283.775 214.397 284.07 214.022C284.36 213.655 284.535 213.258 284.596 212.831C284.657 212.404 284.598 211.988 284.421 211.584C284.244 211.179 283.958 210.821 283.563 210.509L283.451 210.421C283.042 210.099 282.612 209.903 282.159 209.833C281.708 209.775 281.268 209.836 280.839 210.016C280.411 210.209 280.034 210.513 279.706 210.928C279.449 211.254 279.268 211.603 279.163 211.973C279.053 212.35 279.037 212.735 279.114 213.127L278.323 213.164C278.225 212.701 278.243 212.23 278.378 211.751C278.507 211.279 278.741 210.829 279.079 210.4Z" fill="#6F5C37"/>
<path d="M266.602 223.973L272.507 230.897L269.688 233.301C268.949 233.931 268.176 234.334 267.369 234.509C266.561 234.697 265.78 234.663 265.026 234.406C264.272 234.149 263.605 233.682 263.026 233.002C262.447 232.323 262.09 231.591 261.955 230.806C261.821 230.02 261.908 229.24 262.215 228.466C262.522 227.703 263.044 227.007 263.783 226.377L266.602 223.973ZM266.41 225.23L264.362 226.976C263.749 227.499 263.319 228.071 263.073 228.691C262.826 229.323 262.758 229.956 262.867 230.592C262.982 231.235 263.276 231.833 263.748 232.387C264.226 232.947 264.77 233.332 265.381 233.54C265.991 233.748 266.625 233.777 267.283 233.626C267.939 233.488 268.574 233.157 269.187 232.634L271.235 230.888L266.41 225.23Z" fill="#6F5C37"/>
<path d="M252.224 234.994C252.816 234.602 253.418 234.381 254.029 234.33C254.644 234.286 255.222 234.397 255.762 234.664C256.307 234.937 256.765 235.356 257.139 235.919C257.512 236.483 257.722 237.061 257.771 237.652C257.812 238.248 257.705 238.808 257.448 239.331C257.189 239.866 256.796 240.309 256.268 240.658C255.733 241.012 255.179 241.202 254.604 241.229C254.027 241.268 253.474 241.146 252.943 240.863C252.418 240.587 251.966 240.164 251.588 239.593C251.564 239.557 251.542 239.515 251.52 239.466C251.496 239.43 251.47 239.391 251.441 239.347L256.395 236.068L256.776 236.643L252.233 239.649L252.386 239.221C252.659 239.633 252.991 239.938 253.382 240.136C253.771 240.347 254.177 240.442 254.6 240.421C255.023 240.401 255.433 240.26 255.831 239.996C256.221 239.738 256.512 239.416 256.703 239.029C256.894 238.643 256.969 238.23 256.927 237.79C256.885 237.35 256.725 236.92 256.448 236.501L256.369 236.382C256.082 235.948 255.735 235.627 255.327 235.419C254.916 235.223 254.479 235.144 254.015 235.181C253.548 235.23 253.095 235.4 252.654 235.692C252.307 235.921 252.026 236.196 251.811 236.515C251.589 236.838 251.453 237.198 251.404 237.595L250.64 237.383C250.692 236.912 250.857 236.47 251.135 236.058C251.405 235.65 251.768 235.296 252.224 234.994Z" fill="#6F5C37"/>
<path d="M242.36 240.807C242.86 240.547 243.369 240.37 243.886 240.276C244.408 240.19 244.852 240.189 245.218 240.272L245.185 241.11C244.843 241.053 244.444 241.056 243.987 241.118C243.535 241.187 243.097 241.332 242.675 241.552C242.098 241.852 241.729 242.157 241.567 242.465C241.41 242.782 241.409 243.09 241.565 243.39C241.681 243.613 241.844 243.748 242.054 243.795C242.261 243.853 242.495 243.853 242.758 243.795C243.024 243.744 243.312 243.668 243.62 243.566C243.929 243.464 244.241 243.369 244.558 243.283C244.866 243.2 245.166 243.157 245.457 243.152C245.751 243.155 246.026 243.222 246.28 243.354C246.526 243.489 246.74 243.73 246.92 244.076C247.092 244.406 247.154 244.75 247.105 245.108C247.057 245.465 246.894 245.809 246.616 246.139C246.335 246.481 245.937 246.786 245.422 247.054C245.03 247.258 244.61 247.408 244.162 247.505C243.717 247.609 243.325 247.643 242.983 247.606L242.998 246.762C243.363 246.807 243.72 246.787 244.067 246.704C244.419 246.629 244.748 246.511 245.056 246.351C245.601 246.067 245.955 245.76 246.116 245.432C246.274 245.116 246.277 244.811 246.125 244.519C246.005 244.288 245.841 244.144 245.635 244.085C245.421 244.031 245.178 244.025 244.908 244.068C244.633 244.123 244.346 244.199 244.045 244.297C243.737 244.399 243.426 244.488 243.113 244.562C242.797 244.649 242.493 244.695 242.203 244.699C241.908 244.716 241.638 244.656 241.392 244.521C241.141 244.397 240.93 244.17 240.758 243.839C240.574 243.486 240.514 243.126 240.578 242.761C240.638 242.407 240.818 242.059 241.119 241.717C241.416 241.386 241.83 241.083 242.36 240.807Z" fill="#6F5C37"/>
<path d="M233.576 245.019L236.183 251.326L235.33 251.679L232.723 245.372L233.576 245.019ZM236.327 252.899C236.503 252.826 236.676 252.825 236.846 252.895C237.016 252.965 237.135 253.085 237.205 253.253C237.274 253.421 237.272 253.586 237.199 253.748C237.128 253.918 237.005 254.039 236.829 254.112C236.652 254.185 236.481 254.19 236.315 254.128C236.148 254.065 236.03 253.95 235.96 253.782C235.888 253.605 235.886 253.432 235.957 253.263C236.019 253.096 236.143 252.975 236.327 252.899Z" fill="#6F5C37"/>
<path d="M221.98 246.472C222.577 246.29 223.176 246.203 223.776 246.21C224.376 246.218 224.895 246.331 225.334 246.551L225.091 247.359C224.7 247.179 224.258 247.078 223.762 247.057C223.255 247.03 222.749 247.094 222.244 247.248C221.415 247.5 220.865 247.881 220.594 248.389C220.32 248.889 220.307 249.546 220.555 250.358L221.051 251.987L221.268 253.144L221.696 254.237L222.298 256.214L221.452 256.472L219.706 250.739C219.362 249.611 219.389 248.702 219.785 248.01C220.171 247.313 220.902 246.8 221.98 246.472ZM222.971 249.146C223.593 248.957 224.193 248.919 224.771 249.033C225.352 249.155 225.861 249.412 226.298 249.804C226.726 250.199 227.035 250.708 227.224 251.329C227.414 251.951 227.44 252.541 227.302 253.1C227.158 253.669 226.878 254.162 226.461 254.579C226.045 254.996 225.525 255.299 224.904 255.488C224.323 255.665 223.764 255.704 223.227 255.605C222.689 255.506 222.212 255.262 221.794 254.873C221.377 254.484 221.064 253.949 220.857 253.269C220.65 252.589 220.611 251.971 220.741 251.416C220.871 250.86 221.13 250.387 221.518 249.997C221.907 249.606 222.391 249.323 222.971 249.146ZM223.123 249.956C222.642 250.103 222.246 250.332 221.933 250.645C221.623 250.966 221.415 251.337 221.308 251.759C221.203 252.19 221.223 252.641 221.367 253.114C221.511 253.586 221.745 253.968 222.069 254.259C222.394 254.55 222.772 254.738 223.206 254.823C223.642 254.917 224.101 254.89 224.582 254.744C225.054 254.6 225.45 254.366 225.768 254.043C226.08 253.73 226.29 253.363 226.397 252.94C226.496 252.521 226.473 252.075 226.329 251.602C226.185 251.13 225.954 250.743 225.635 250.441C225.311 250.15 224.931 249.958 224.495 249.864C224.053 249.781 223.596 249.812 223.123 249.956Z" fill="#6F5C37"/>
<path d="M210.304 259.017C209.758 259.116 209.261 259.095 208.813 258.956C208.359 258.827 207.978 258.57 207.67 258.185C207.355 257.801 207.138 257.285 207.021 256.637L206.317 252.735L207.226 252.571L207.914 256.384C208.041 257.092 208.317 257.592 208.739 257.886C209.155 258.19 209.683 258.284 210.323 258.169C210.8 258.082 211.201 257.909 211.523 257.648C211.839 257.397 212.062 257.071 212.192 256.669C212.315 256.277 212.33 255.825 212.238 255.313L211.601 251.782L212.51 251.618L213.721 258.335L212.851 258.492L212.519 256.649L212.722 256.97C212.596 257.494 212.324 257.935 211.904 258.293C211.486 258.659 210.952 258.9 210.304 259.017Z" fill="#6F5C37"/>
<path d="M197.325 253.634C197.887 253.595 198.425 253.636 198.937 253.756C199.45 253.886 199.857 254.061 200.159 254.284L199.795 255.039C199.504 254.85 199.137 254.694 198.694 254.568C198.251 254.451 197.792 254.409 197.317 254.443C196.668 254.488 196.208 254.62 195.937 254.839C195.666 255.066 195.542 255.348 195.566 255.685C195.583 255.936 195.679 256.125 195.853 256.252C196.019 256.388 196.234 256.482 196.498 256.533C196.763 256.592 197.057 256.637 197.38 256.667C197.704 256.696 198.028 256.734 198.353 256.781C198.669 256.829 198.961 256.908 199.229 257.02C199.498 257.14 199.723 257.311 199.904 257.533C200.076 257.756 200.175 258.062 200.202 258.451C200.228 258.822 200.148 259.162 199.961 259.471C199.774 259.779 199.487 260.03 199.101 260.222C198.707 260.423 198.22 260.544 197.64 260.584C197.2 260.615 196.754 260.585 196.305 260.495C195.856 260.413 195.483 260.287 195.184 260.117L195.535 259.349C195.852 259.536 196.186 259.66 196.538 259.723C196.89 259.794 197.24 259.817 197.585 259.793C198.199 259.75 198.646 259.61 198.924 259.374C199.195 259.146 199.319 258.868 199.296 258.54C199.278 258.28 199.186 258.083 199.02 257.947C198.846 257.811 198.626 257.709 198.361 257.641C198.087 257.582 197.793 257.537 197.478 257.507C197.155 257.477 196.835 257.434 196.518 257.378C196.193 257.331 195.897 257.252 195.628 257.141C195.352 257.038 195.128 256.876 194.956 256.653C194.776 256.44 194.673 256.147 194.647 255.775C194.619 255.378 194.707 255.024 194.912 254.714C195.108 254.414 195.412 254.167 195.824 253.973C196.229 253.789 196.729 253.676 197.325 253.634Z" fill="#6F5C37"/>
<path d="M178.794 253.609L177.677 262.64L174 262.186C173.037 262.067 172.218 261.769 171.543 261.292C170.859 260.824 170.357 260.224 170.037 259.495C169.716 258.765 169.611 257.958 169.721 257.072C169.83 256.186 170.129 255.428 170.617 254.799C171.106 254.169 171.739 253.706 172.518 253.41C173.287 253.12 174.154 253.035 175.117 253.155L178.794 253.609ZM177.737 254.317L175.067 253.987C174.267 253.888 173.555 253.957 172.932 254.194C172.299 254.439 171.785 254.817 171.39 255.327C170.994 255.845 170.752 256.466 170.662 257.188C170.572 257.919 170.656 258.58 170.915 259.171C171.174 259.762 171.581 260.249 172.136 260.632C172.681 261.023 173.354 261.267 174.154 261.366L176.825 261.697L177.737 254.317Z" fill="#6F5C37"/>
<path d="M160.955 250.453C161.644 250.625 162.214 250.919 162.664 251.335C163.112 251.759 163.42 252.26 163.589 252.838C163.755 253.424 163.756 254.046 163.593 254.701C163.429 255.357 163.146 255.903 162.742 256.338C162.33 256.771 161.845 257.07 161.286 257.234C160.716 257.405 160.125 257.414 159.511 257.261C158.889 257.105 158.374 256.825 157.966 256.419C157.547 256.02 157.263 255.53 157.113 254.947C156.962 254.374 156.969 253.755 157.135 253.09C157.145 253.048 157.161 253.003 157.182 252.955C157.192 252.913 157.204 252.866 157.216 252.816L162.981 254.254L162.814 254.923L157.529 253.604L157.948 253.427C157.829 253.907 157.828 254.358 157.946 254.78C158.053 255.209 158.257 255.572 158.558 255.871C158.859 256.169 159.24 256.376 159.703 256.491C160.157 256.604 160.591 256.601 161.005 256.481C161.419 256.361 161.774 256.137 162.07 255.809C162.367 255.481 162.576 255.073 162.697 254.585L162.732 254.446C162.858 253.942 162.86 253.469 162.737 253.028C162.605 252.593 162.368 252.216 162.027 251.899C161.676 251.588 161.244 251.369 160.731 251.241C160.328 251.14 159.936 251.118 159.555 251.175C159.166 251.23 158.809 251.373 158.483 251.605L158.124 250.899C158.506 250.619 158.943 250.442 159.435 250.368C159.918 250.292 160.425 250.32 160.955 250.453Z" fill="#6F5C37"/>
<path d="M149.013 246.742C149.68 246.988 150.214 247.343 150.617 247.805C151.016 248.276 151.268 248.807 151.372 249.4C151.474 250.001 151.408 250.619 151.174 251.253C150.94 251.887 150.599 252.399 150.151 252.788C149.694 253.173 149.179 253.418 148.606 253.52C148.021 253.628 147.432 253.572 146.838 253.353C146.236 253.131 145.755 252.797 145.393 252.349C145.021 251.907 144.792 251.388 144.706 250.793C144.618 250.207 144.692 249.592 144.929 248.95C144.944 248.909 144.965 248.866 144.991 248.82C145.006 248.779 145.022 248.735 145.04 248.686L150.614 250.742L150.376 251.388L145.265 249.503L145.701 249.373C145.53 249.836 145.481 250.285 145.552 250.717C145.612 251.155 145.775 251.539 146.042 251.868C146.308 252.197 146.665 252.444 147.113 252.609C147.552 252.771 147.983 252.815 148.408 252.741C148.833 252.666 149.21 252.482 149.54 252.188C149.87 251.894 150.122 251.512 150.296 251.04L150.346 250.906C150.526 250.418 150.579 249.948 150.506 249.496C150.421 249.049 150.227 248.65 149.922 248.297C149.607 247.95 149.201 247.685 148.705 247.502C148.315 247.358 147.928 247.294 147.543 247.309C147.151 247.321 146.78 247.425 146.431 247.619L146.15 246.878C146.561 246.642 147.015 246.513 147.512 246.493C148 246.471 148.501 246.554 149.013 246.742Z" fill="#6F5C37"/>
<path d="M132.246 239.076L127.488 246.833L124.33 244.896C123.502 244.389 122.88 243.779 122.464 243.065C122.035 242.355 121.826 241.602 121.837 240.805C121.848 240.009 122.086 239.23 122.553 238.469C123.02 237.708 123.606 237.142 124.311 236.772C125.016 236.401 125.785 236.242 126.616 236.295C127.436 236.35 128.26 236.632 129.088 237.139L132.246 239.076ZM130.991 239.283L128.697 237.876C128.01 237.454 127.334 237.222 126.668 237.18C125.991 237.141 125.367 237.272 124.796 237.572C124.221 237.88 123.743 238.345 123.362 238.965C122.977 239.593 122.78 240.23 122.77 240.875C122.761 241.52 122.93 242.131 123.276 242.71C123.611 243.291 124.122 243.793 124.809 244.214L127.103 245.621L130.991 239.283Z" fill="#6F5C37"/>
<path d="M117.317 228.813C117.873 229.255 118.27 229.759 118.507 230.324C118.739 230.896 118.812 231.479 118.726 232.075C118.634 232.678 118.378 233.244 117.958 233.773C117.537 234.302 117.053 234.681 116.506 234.91C115.951 235.134 115.386 235.205 114.809 235.123C114.22 235.042 113.678 234.805 113.183 234.411C112.68 234.012 112.328 233.544 112.124 233.006C111.909 232.469 111.854 231.905 111.959 231.313C112.058 230.728 112.321 230.167 112.747 229.631C112.774 229.597 112.807 229.563 112.846 229.527C112.873 229.494 112.903 229.456 112.935 229.416L117.586 233.112L117.157 233.652L112.893 230.262L113.348 230.275C113.041 230.662 112.853 231.072 112.786 231.505C112.706 231.94 112.741 232.355 112.891 232.751C113.041 233.147 113.303 233.494 113.676 233.79C114.042 234.082 114.439 234.258 114.865 234.321C115.292 234.383 115.708 234.326 116.113 234.15C116.519 233.974 116.878 233.69 117.191 233.296L117.28 233.184C117.603 232.777 117.801 232.348 117.873 231.895C117.932 231.444 117.873 231.004 117.694 230.574C117.503 230.146 117.201 229.767 116.787 229.438C116.461 229.179 116.114 228.997 115.744 228.891C115.367 228.78 114.983 228.762 114.59 228.838L114.555 228.046C115.019 227.95 115.49 227.97 115.969 228.107C116.44 228.238 116.889 228.473 117.317 228.813Z" fill="#6F5C37"/>
<path d="M108.738 221.232C109.14 221.626 109.466 222.055 109.715 222.519C109.958 222.989 110.097 223.41 110.131 223.784L109.324 224.012C109.272 223.669 109.146 223.29 108.946 222.875C108.74 222.467 108.467 222.095 108.127 221.761C107.663 221.306 107.259 221.049 106.916 220.991C106.566 220.939 106.273 221.033 106.036 221.275C105.86 221.454 105.782 221.651 105.802 221.865C105.81 222.08 105.883 222.303 106.02 222.534C106.151 222.772 106.312 223.022 106.505 223.284C106.697 223.545 106.883 223.813 107.063 224.087C107.237 224.356 107.372 224.627 107.466 224.902C107.554 225.183 107.575 225.465 107.529 225.747C107.476 226.023 107.313 226.301 107.04 226.579C106.779 226.845 106.471 227.01 106.116 227.075C105.761 227.139 105.384 227.09 104.984 226.929C104.572 226.767 104.159 226.483 103.745 226.076C103.429 225.766 103.156 225.413 102.926 225.017C102.689 224.627 102.536 224.263 102.466 223.927L103.272 223.681C103.343 224.042 103.472 224.374 103.658 224.679C103.839 224.99 104.053 225.267 104.3 225.51C104.739 225.941 105.14 226.183 105.502 226.234C105.852 226.286 106.142 226.195 106.373 225.96C106.555 225.774 106.642 225.574 106.634 225.36C106.619 225.139 106.55 224.907 106.425 224.663C106.288 224.419 106.126 224.17 105.94 223.914C105.748 223.652 105.568 223.384 105.4 223.11C105.22 222.836 105.082 222.561 104.988 222.286C104.881 222.011 104.854 221.736 104.907 221.46C104.947 221.183 105.098 220.912 105.359 220.646C105.638 220.362 105.962 220.194 106.329 220.141C106.684 220.089 107.071 220.153 107.489 220.333C107.895 220.513 108.311 220.813 108.738 221.232Z" fill="#6F5C37"/>
<path d="M102.015 214.181L96.8238 218.612L96.2246 217.91L101.416 213.479L102.015 214.181ZM95.373 219.235C95.4968 219.38 95.5514 219.544 95.537 219.728C95.5225 219.911 95.446 220.062 95.3076 220.18C95.1692 220.298 95.0116 220.347 94.8349 220.327C94.6516 220.312 94.4981 220.233 94.3743 220.088C94.2505 219.943 94.1926 219.781 94.2005 219.604C94.2084 219.426 94.2815 219.278 94.42 219.16C94.565 219.036 94.7291 218.981 94.9124 218.996C95.0901 219.004 95.2436 219.084 95.373 219.235Z" fill="#6F5C37"/>
<path d="M97.0461 203.604C97.4037 204.115 97.6718 204.658 97.8505 205.231C98.0291 205.804 98.0818 206.333 98.0084 206.818L97.1649 206.836C97.2155 206.41 97.1742 205.957 97.041 205.48C96.9098 204.99 96.6928 204.528 96.3898 204.095C95.8932 203.385 95.3612 202.979 94.794 202.879C94.2338 202.773 93.6057 202.964 92.9097 203.451L91.5141 204.427L90.4807 204.991L89.5741 205.736L87.8801 206.92L87.3735 206.196L92.2849 202.762C93.2508 202.086 94.1239 201.83 94.9041 201.993C95.6865 202.144 96.4005 202.681 97.0461 203.604ZM94.8098 205.374C95.1823 205.907 95.4039 206.466 95.4746 207.051C95.5383 207.641 95.451 208.204 95.2129 208.741C94.9698 209.27 94.5819 209.721 94.0493 210.094C93.5166 210.466 92.9634 210.673 92.3897 210.715C91.8039 210.754 91.2484 210.641 90.7231 210.373C90.1978 210.106 89.7489 209.706 89.3765 209.174C89.0288 208.676 88.8189 208.157 88.7467 207.615C88.6746 207.073 88.7589 206.544 88.9999 206.026C89.2408 205.509 89.6525 205.046 90.2349 204.639C90.8173 204.232 91.3929 204.004 91.9616 203.955C92.5303 203.907 93.0603 204.007 93.5515 204.255C94.0427 204.504 94.4622 204.877 94.8098 205.374ZM94.0865 205.769C93.7984 205.357 93.4574 205.051 93.0635 204.85C92.6624 204.655 92.2446 204.572 91.8101 204.601C91.3684 204.634 90.9452 204.793 90.5403 205.076C90.1355 205.359 89.845 205.7 89.6687 206.098C89.4924 206.496 89.4308 206.915 89.4838 207.354C89.5298 207.797 89.6968 208.225 89.9848 208.637C90.2679 209.042 90.6125 209.346 91.0185 209.548C91.4125 209.749 91.8267 209.834 92.2613 209.805C92.6908 209.769 93.108 209.61 93.5129 209.327C93.9177 209.044 94.2143 208.704 94.4026 208.308C94.5789 207.91 94.6441 207.489 94.5981 207.045C94.5401 206.599 94.3696 206.174 94.0865 205.769Z" fill="#6F5C37"/>
<path d="M81.504 196.382C81.2415 195.893 81.1072 195.414 81.1012 194.945C81.0835 194.473 81.2101 194.031 81.4811 193.62C81.748 193.201 82.1715 192.836 82.7518 192.524L86.2446 190.647L86.6815 191.461L83.2688 193.294C82.6351 193.634 82.2441 194.051 82.0957 194.544C81.9355 195.033 82.0093 195.564 82.3169 196.137C82.5466 196.565 82.8354 196.891 83.1833 197.118C83.5194 197.341 83.8988 197.452 84.3214 197.451C84.7323 197.446 85.1668 197.321 85.6249 197.075L88.7856 195.377L89.2224 196.19L83.2101 199.42L82.7918 198.641L84.4409 197.756L84.1993 198.048C83.6616 198.091 83.1578 197.968 82.6879 197.679C82.2104 197.394 81.8157 196.962 81.504 196.382Z" fill="#6F5C37"/>
<path d="M82.6081 182.375C82.8192 182.897 82.9466 183.42 82.9904 183.945C83.0261 184.473 82.985 184.915 82.8672 185.271L82.0364 185.158C82.1253 184.823 82.1609 184.425 82.1431 183.965C82.1173 183.508 82.0151 183.058 81.8365 182.616C81.5929 182.014 81.3251 181.617 81.0331 181.427C80.7331 181.24 80.4264 181.209 80.1131 181.336C79.88 181.43 79.7301 181.58 79.6632 181.784C79.5851 181.984 79.5626 182.218 79.5958 182.485C79.6209 182.755 79.6694 183.048 79.7414 183.365C79.8133 183.682 79.8772 184.002 79.9331 184.325C79.9858 184.64 80.0005 184.943 79.9774 185.233C79.9463 185.526 79.8531 185.792 79.6979 186.033C79.5394 186.265 79.2794 186.454 78.9178 186.601C78.5723 186.74 78.2239 186.769 77.8728 186.686C77.5217 186.604 77.1951 186.409 76.893 186.101C76.5796 185.788 76.3142 185.363 76.0966 184.824C75.9309 184.415 75.8215 183.982 75.7684 183.527C75.7072 183.075 75.7114 182.68 75.781 182.344L76.6191 182.44C76.5399 182.799 76.5251 183.155 76.5746 183.509C76.6162 183.866 76.7019 184.206 76.8318 184.527C77.0624 185.098 77.3333 185.479 77.6446 185.671C77.9446 185.858 78.2473 185.89 78.5527 185.767C78.7937 185.669 78.9533 185.521 79.0314 185.321C79.1063 185.113 79.1352 184.872 79.1182 184.599C79.0898 184.32 79.0413 184.027 78.9726 183.718C78.9006 183.401 78.8423 183.084 78.7977 182.765C78.7418 182.442 78.7254 182.135 78.7485 181.845C78.7603 181.551 78.8455 181.287 79.004 181.055C79.1512 180.818 79.3975 180.63 79.7431 180.49C80.1127 180.341 80.4763 180.315 80.8339 180.414C81.1803 180.507 81.5094 180.72 81.8212 181.052C82.1217 181.379 82.384 181.82 82.6081 182.375Z" fill="#6F5C37"/>
<path d="M76.8989 164.745L67.9653 166.477L67.2601 162.839C67.0754 161.887 67.1052 161.016 67.3495 160.227C67.5837 159.431 67.9981 158.768 68.5927 158.238C69.1873 157.708 69.9228 157.358 70.7992 157.188C71.6755 157.018 72.4885 157.068 73.2382 157.337C73.9879 157.607 74.6243 158.066 75.1473 158.715C75.6603 159.357 76.0091 160.155 76.1938 161.108L76.8989 164.745ZM75.8991 163.959L75.3869 161.317C75.2335 160.526 74.9476 159.871 74.5291 159.351C74.1005 158.825 73.5826 158.453 72.9754 158.236C72.3597 158.02 71.6945 157.981 70.9798 158.119C70.2566 158.26 69.6541 158.544 69.1722 158.973C68.6904 159.402 68.3532 159.939 68.1607 160.586C67.958 161.225 67.9334 161.941 68.0868 162.732L68.599 165.374L75.8991 163.959Z" fill="#6F5C37"/>
<path d="M74.3822 146.804C74.432 147.513 74.3287 148.146 74.0723 148.703C73.8073 149.26 73.4261 149.708 72.9286 150.047C72.4225 150.387 71.8322 150.58 71.1579 150.627C70.4835 150.675 69.877 150.574 69.3382 150.325C68.7989 150.067 68.3647 149.698 68.0355 149.217C67.6972 148.729 67.5058 148.169 67.4616 147.537C67.4167 146.898 67.5239 146.321 67.7833 145.808C68.0334 145.286 68.4121 144.864 68.9195 144.542C69.4182 144.22 70.0091 144.036 70.692 143.988C70.7353 143.985 70.7831 143.986 70.8356 143.991C70.8788 143.988 70.9264 143.984 70.9783 143.981L71.394 149.907L70.7067 149.955L70.3255 144.522L70.6233 144.866C70.1305 144.9 69.7015 145.039 69.3363 145.282C68.9618 145.517 68.6792 145.823 68.4886 146.201C68.2979 146.58 68.2193 147.006 68.2526 147.482C68.2854 147.949 68.4229 148.361 68.6651 148.717C68.9073 149.074 69.2302 149.342 69.6338 149.522C70.0374 149.703 70.4899 149.775 70.9913 149.74L71.134 149.73C71.6527 149.693 72.103 149.549 72.485 149.296C72.8576 149.036 73.1421 148.694 73.3384 148.272C73.5254 147.842 73.6004 147.363 73.5634 146.836C73.5343 146.421 73.4338 146.041 73.262 145.697C73.0895 145.344 72.8429 145.049 72.5221 144.811L73.0823 144.25C73.4666 144.527 73.7699 144.888 73.9923 145.333C74.214 145.769 74.344 146.26 74.3822 146.804Z" fill="#6F5C37"/>
<path d="M74.2165 134.3C74.1888 135.01 74.0173 135.628 73.702 136.153C73.378 136.678 72.9502 137.083 72.4188 137.366C71.8788 137.648 71.271 137.776 70.5955 137.75C69.92 137.724 69.328 137.558 68.8195 137.252C68.3114 136.937 67.9199 136.523 67.645 136.01C67.3618 135.487 67.2325 134.909 67.2571 134.277C67.282 133.636 67.4514 133.075 67.765 132.593C68.0704 132.101 68.4927 131.723 69.0321 131.458C69.5629 131.192 70.1703 131.073 70.8545 131.099C70.8978 131.101 70.9452 131.107 70.9969 131.118C71.0402 131.119 71.0878 131.121 71.1398 131.123L70.9086 137.06L70.2201 137.033L70.432 131.59L70.6907 131.964C70.1971 131.945 69.7555 132.037 69.366 132.238C68.9682 132.431 68.654 132.705 68.4233 133.06C68.1927 133.416 68.068 133.832 68.0495 134.308C68.0313 134.776 68.1232 135.2 68.3252 135.581C68.5272 135.961 68.819 136.263 69.2006 136.486C69.5822 136.709 70.0242 136.83 70.5265 136.85L70.6694 136.855C71.189 136.875 71.6523 136.781 72.0595 136.571C72.4583 136.352 72.7782 136.044 73.0192 135.645C73.2519 135.238 73.3785 134.77 73.3991 134.242C73.4153 133.826 73.3567 133.438 73.2233 133.077C73.0902 132.708 72.8772 132.388 72.5842 132.116L73.202 131.62C73.5539 131.937 73.8162 132.329 73.9889 132.795C74.1619 133.253 74.2377 133.754 74.2165 134.3Z" fill="#6F5C37"/>
<path d="M76.3194 115.985L67.4709 113.86L68.3359 110.258C68.5626 109.314 68.9505 108.533 69.4997 107.917C70.0425 107.289 70.6943 106.858 71.4551 106.621C72.216 106.385 73.0304 106.371 73.8984 106.58C74.7664 106.788 75.4857 107.17 76.0563 107.726C76.627 108.282 77.0159 108.964 77.2231 109.771C77.424 110.568 77.4111 111.438 77.1844 112.382L76.3194 115.985ZM75.735 114.855L76.3633 112.239C76.5515 111.455 76.5627 110.74 76.3969 110.094C76.2247 109.438 75.9074 108.885 75.4449 108.435C74.9741 107.983 74.3847 107.672 73.6768 107.502C72.9605 107.33 72.2942 107.34 71.678 107.531C71.0618 107.721 70.5322 108.071 70.0892 108.58C69.6398 109.078 69.321 109.719 69.1328 110.502L68.5045 113.119L75.735 114.855Z" fill="#6F5C37"/>
<path d="M81.4609 98.6134C81.2125 99.2793 80.8563 99.8124 80.3924 100.213C79.9204 100.61 79.3878 100.86 78.7945 100.963C78.1932 101.062 77.5758 100.994 76.9425 100.757C76.3091 100.521 75.7988 100.178 75.4116 99.7282C75.0274 99.2704 74.7851 98.7545 74.6848 98.1805C74.5793 97.5954 74.6372 97.0065 74.8583 96.4137C75.0825 95.8129 75.419 95.3325 75.8677 94.9727C76.3114 94.6017 76.8309 94.3746 77.4262 94.2915C78.0133 94.2053 78.6277 94.2818 79.2691 94.5212C79.3097 94.5363 79.3529 94.557 79.3986 94.5833C79.4392 94.5985 79.4838 94.6151 79.5325 94.6333L77.4558 100.2L76.8103 99.9587L78.7143 94.8553L78.8429 95.2918C78.38 95.1191 77.9321 95.0676 77.4991 95.1373C77.061 95.1959 76.6768 95.3578 76.3466 95.6231C76.0163 95.8884 75.7679 96.2443 75.6013 96.6909C75.4377 97.1294 75.3923 97.5611 75.465 97.986C75.5377 98.4109 75.7204 98.7889 76.0131 99.1201C76.3058 99.4513 76.6876 99.7048 77.1586 99.8805L77.2926 99.9305C77.7798 100.112 78.2495 100.167 78.7018 100.095C79.149 100.013 79.5493 99.8197 79.9028 99.5168C80.2513 99.2028 80.5179 98.7981 80.7027 98.3028C80.8481 97.913 80.9139 97.526 80.9 97.1415C80.8892 96.749 80.7872 96.3779 80.5939 96.0283L81.3359 95.7501C81.5709 96.1616 81.6975 96.6158 81.7155 97.1128C81.7366 97.6017 81.6518 98.1019 81.4609 98.6134Z" fill="#6F5C37"/>
<path d="M86.0166 88.1102C85.7656 88.6145 85.4583 89.0569 85.0947 89.4375C84.7233 89.8141 84.3653 90.0764 84.0206 90.2243L83.5542 89.5275C83.864 89.3719 84.1853 89.1349 84.518 88.8165C84.843 88.4942 85.1116 88.1196 85.324 87.6929C85.6136 87.111 85.7329 86.6476 85.6819 86.3027C85.6231 85.954 85.4424 85.7044 85.1398 85.5538C84.9148 85.4418 84.7035 85.4286 84.506 85.5143C84.3046 85.5883 84.115 85.7262 83.937 85.9281C83.7514 86.1261 83.5638 86.3571 83.3744 86.621C83.185 86.8849 82.9878 87.145 82.7828 87.4011C82.5818 87.6496 82.3651 87.8612 82.1329 88.0361C81.8929 88.207 81.6315 88.3141 81.3486 88.3573C81.0696 88.3927 80.7555 88.3235 80.4064 88.1497C80.0728 87.9837 79.8204 87.7419 79.6492 87.4244C79.4781 87.1069 79.4076 86.733 79.4379 86.3028C79.4642 85.8609 79.6067 85.38 79.8654 84.8602C80.0623 84.4645 80.3136 84.0958 80.6191 83.7541C80.9169 83.4086 81.2149 83.1503 81.513 82.9792L81.9968 83.6702C81.6755 83.8491 81.3988 84.0744 81.1667 84.3461C80.9269 84.614 80.7298 84.9031 80.5753 85.2135C80.3012 85.7644 80.1954 86.22 80.2581 86.5803C80.3169 86.929 80.4937 87.1767 80.7886 87.3235C81.0213 87.4393 81.2384 87.4602 81.4398 87.3862C81.6451 87.3044 81.8444 87.1665 82.0379 86.9723C82.2274 86.7665 82.415 86.5356 82.6005 86.2794C82.79 86.0155 82.9891 85.7613 83.1979 85.5167C83.4029 85.2605 83.6215 85.045 83.8537 84.8702C84.082 84.6837 84.3357 84.5728 84.6147 84.5373C84.8898 84.4903 85.1941 84.5498 85.5278 84.7159C85.8847 84.8935 86.1448 85.1488 86.3083 85.4818C86.4678 85.8032 86.5266 86.1907 86.4848 86.6443C86.4391 87.0862 86.2831 87.5748 86.0166 88.1102Z" fill="#6F5C37"/>
<path d="M90.6415 79.5359L84.822 75.9702L85.3043 75.1831L91.1238 78.7488L90.6415 79.5359ZM83.7807 74.7833C83.6811 74.9458 83.5419 75.0486 83.3632 75.0915C83.1844 75.1344 83.0174 75.1084 82.8622 75.0133C82.707 74.9182 82.6117 74.7835 82.5761 74.6093C82.5332 74.4305 82.5616 74.2599 82.6612 74.0973C82.7608 73.9347 82.8963 73.8297 83.0677 73.7822C83.239 73.7348 83.4023 73.7586 83.5575 73.8537C83.7201 73.9533 83.8228 74.0925 83.8658 74.2713C83.9132 74.4426 83.8849 74.6133 83.7807 74.7833Z" fill="#6F5C37"/>
<path d="M99.1628 71.5388C98.7871 72.037 98.3544 72.4597 97.8648 72.8069C97.3751 73.154 96.8883 73.3677 96.4045 73.448L96.1257 72.6517C96.5472 72.5678 96.9645 72.3886 97.3777 72.114C97.8031 71.8378 98.1749 71.4886 98.4932 71.0665C99.0149 70.3745 99.2358 69.7432 99.1558 69.1728C99.0827 68.6075 98.7071 68.0692 98.0289 67.5579L96.6691 66.5327L95.8131 65.7245L94.8241 65.0928L93.1737 63.8484L93.7059 63.1426L98.4911 66.7505C99.4323 67.4601 99.946 68.211 100.032 69.0034C100.131 69.794 99.8411 70.6392 99.1628 71.5388ZM96.7878 69.9597C96.3965 70.4788 95.9335 70.8624 95.399 71.1106C94.8576 71.3536 94.2949 71.445 93.7109 71.3845C93.1322 71.3172 92.5833 71.0879 92.0643 70.6966C91.5453 70.3053 91.1772 69.8433 90.9602 69.3106C90.7414 68.7658 90.6778 68.2023 90.7695 67.6201C90.8611 67.0379 91.1025 66.4873 91.4939 65.9683C91.8591 65.4839 92.2881 65.1236 92.781 64.8874C93.2739 64.6512 93.8036 64.5676 94.3703 64.6366C94.9369 64.7057 95.5039 64.9541 96.0714 65.3819C96.6388 65.8098 97.0337 66.2866 97.256 66.8123C97.4782 67.3381 97.5471 67.873 97.4625 68.4171C97.3779 68.9611 97.153 69.4753 96.7878 69.9597ZM96.1886 69.394C96.4912 68.9927 96.6769 68.5737 96.7456 68.137C96.8074 67.6952 96.7573 67.2721 96.5954 66.8679C96.4266 66.4584 96.145 66.1049 95.7505 65.8075C95.3561 65.5101 94.9422 65.3392 94.509 65.2948C94.0758 65.2503 93.6587 65.3212 93.2578 65.5074C92.8501 65.6884 92.4948 65.9795 92.1922 66.3809C91.8948 66.7753 91.7126 67.197 91.6456 67.6457C91.5769 68.0823 91.6235 68.5028 91.7854 68.9071C91.9525 69.3044 92.2333 69.6518 92.6278 69.9492C93.0222 70.2466 93.4369 70.4236 93.8718 70.4802C94.3051 70.5246 94.7256 70.4563 95.1334 70.2754C95.5395 70.0822 95.8912 69.7885 96.1886 69.394Z" fill="#6F5C37"/>
<path d="M101.223 54.525C101.606 54.1242 102.02 53.8484 102.464 53.6976C102.908 53.5345 103.367 53.5183 103.842 53.6487C104.323 53.773 104.802 54.0627 105.277 54.5181L108.142 57.2591L107.504 57.926L104.705 55.2479C104.185 54.7506 103.668 54.5077 103.154 54.5191C102.639 54.5182 102.156 54.7526 101.707 55.2222C101.372 55.5729 101.15 55.9487 101.042 56.3495C100.935 56.738 100.946 57.1332 101.078 57.5348C101.209 57.9242 101.463 58.2986 101.838 58.6581L104.431 61.1385L103.793 61.8054L98.8612 57.0873L99.4723 56.4486L100.825 57.7427L100.473 57.6034C100.265 57.1053 100.226 56.5882 100.355 56.0521C100.478 55.5099 100.767 55.0009 101.223 54.525Z" fill="#6F5C37"/>
<path d="M114.885 51.2418C114.453 51.6041 113.995 51.8872 113.51 52.091C113.019 52.2883 112.586 52.3859 112.211 52.3841L112.061 51.5591C112.407 51.54 112.796 51.4508 113.229 51.2915C113.655 51.1256 114.051 50.8894 114.416 50.5828C114.914 50.1648 115.208 49.7875 115.299 49.4509C115.384 49.1077 115.318 48.8067 115.1 48.5478C114.939 48.3554 114.75 48.259 114.535 48.2588C114.321 48.2463 114.092 48.2971 113.848 48.4112C113.599 48.5187 113.335 48.6557 113.056 48.8221C112.777 48.9885 112.492 49.1483 112.202 49.3015C111.919 49.449 111.636 49.5567 111.353 49.6244C111.065 49.6854 110.782 49.6793 110.506 49.606C110.236 49.5272 109.975 49.3384 109.724 49.0398C109.485 48.7544 109.35 48.432 109.319 48.0726C109.289 47.7132 109.374 47.3423 109.573 46.9598C109.774 46.5651 110.096 46.181 110.541 45.8075C110.879 45.5232 111.257 45.2854 111.673 45.0941C112.084 44.896 112.46 44.7781 112.802 44.7401L112.97 45.5667C112.604 45.6025 112.26 45.6987 111.939 45.8553C111.612 46.0053 111.316 46.1918 111.051 46.4147C110.58 46.8105 110.301 47.1861 110.215 47.5415C110.129 47.8847 110.193 48.1824 110.404 48.4346C110.572 48.6337 110.762 48.7395 110.977 48.752C111.197 48.7589 111.435 48.7119 111.69 48.611C111.946 48.498 112.21 48.361 112.482 48.2002C112.761 48.0337 113.045 47.8801 113.335 47.7391C113.625 47.586 113.911 47.4755 114.194 47.4079C114.478 47.328 114.754 47.3275 115.024 47.4063C115.295 47.4729 115.551 47.6489 115.79 47.9343C116.047 48.2396 116.184 48.5775 116.201 48.948C116.219 49.3064 116.118 49.6852 115.899 50.0844C115.68 50.4714 115.342 50.8572 114.885 51.2418Z" fill="#6F5C37"/>
<path d="M129.884 40.359L125.473 32.3993L128.714 30.6036C129.563 30.1331 130.4 29.892 131.226 29.8803C132.055 29.8568 132.814 30.0458 133.502 30.4472C134.19 30.8487 134.751 31.4398 135.183 32.2206C135.616 33.0014 135.82 33.79 135.796 34.5863C135.771 35.3826 135.531 36.1298 135.076 36.828C134.624 37.5144 133.973 38.0928 133.124 38.5632L129.884 40.359ZM130.322 39.165L132.676 37.8607C133.381 37.4701 133.915 36.9955 134.28 36.4369C134.647 35.8666 134.841 35.2591 134.86 34.6143C134.875 33.9619 134.706 33.3173 134.353 32.6806C133.996 32.0362 133.539 31.5513 132.982 31.2257C132.425 30.9002 131.81 30.7459 131.135 30.7628C130.465 30.768 129.777 30.9659 129.072 31.3565L126.718 32.6608L130.322 39.165Z" fill="#6F5C37"/>
<path d="M146.166 32.4157C145.507 32.6823 144.873 32.7798 144.265 32.7082C143.653 32.6286 143.109 32.4047 142.632 32.0365C142.153 31.6602 141.786 31.1588 141.533 30.5321C141.279 29.9055 141.187 29.2975 141.257 28.7082C141.336 28.1157 141.552 27.5885 141.908 27.1268C142.268 26.6538 142.741 26.2986 143.328 26.0613C143.922 25.8207 144.504 25.7443 145.072 25.8321C145.645 25.9087 146.164 26.1383 146.627 26.5211C147.087 26.8958 147.446 27.4005 147.703 28.0352C147.719 28.0754 147.733 28.1212 147.744 28.1726C147.761 28.2128 147.778 28.257 147.798 28.3052L142.291 30.5339L142.032 29.8952L147.082 27.8518L146.847 28.2414C146.661 27.7835 146.397 27.4184 146.053 27.1462C145.714 26.8628 145.335 26.6889 144.916 26.6246C144.497 26.5603 144.067 26.6176 143.625 26.7964C143.191 26.9719 142.842 27.2301 142.578 27.5707C142.314 27.9113 142.159 28.3014 142.112 28.741C142.066 29.1805 142.137 29.6333 142.325 30.0992L142.379 30.2318C142.574 30.7138 142.851 31.0973 143.209 31.3823C143.572 31.6561 143.985 31.821 144.447 31.877C144.914 31.9218 145.393 31.8451 145.883 31.6467C146.268 31.4907 146.598 31.2777 146.872 31.0078C147.154 30.7347 147.359 30.4088 147.486 30.0301L148.193 30.3893C148.048 30.8405 147.799 31.2407 147.444 31.5897C147.098 31.9355 146.672 32.2108 146.166 32.4157Z" fill="#6F5C37"/>
<path d="M158.005 28.3897C157.321 28.5831 156.68 28.6112 156.083 28.4739C155.483 28.3283 154.967 28.0466 154.533 27.6288C154.098 27.2027 153.788 26.6644 153.604 26.0139C153.42 25.3634 153.395 24.7491 153.528 24.1709C153.67 23.5903 153.943 23.0898 154.346 22.6695C154.756 22.2384 155.265 21.9368 155.874 21.7646C156.491 21.59 157.077 21.5772 157.633 21.7263C158.194 21.8647 158.685 22.1493 159.104 22.5802C159.52 23.0027 159.822 23.5433 160.008 24.2022C160.02 24.2439 160.029 24.2909 160.035 24.3433C160.047 24.385 160.06 24.4309 160.074 24.4809L154.357 26.098L154.169 25.435L159.411 23.9524L159.135 24.3142C159 23.8388 158.777 23.4472 158.465 23.1392C158.158 22.8205 157.801 22.6065 157.391 22.4971C156.982 22.3877 156.548 22.3979 156.09 22.5276C155.639 22.655 155.264 22.8737 154.965 23.1836C154.665 23.4935 154.468 23.8644 154.374 24.2963C154.28 24.7282 154.302 25.186 154.439 25.6697L154.477 25.8073C154.619 26.3076 154.852 26.719 155.178 27.0412C155.509 27.3528 155.901 27.5616 156.355 27.6675C156.814 27.7628 157.298 27.7385 157.807 27.5946C158.207 27.4813 158.558 27.3055 158.86 27.067C159.17 26.8261 159.409 26.5244 159.576 26.1617L160.24 26.5956C160.047 27.0284 159.755 27.3991 159.365 27.7076C158.984 28.0137 158.53 28.2411 158.005 28.3897Z" fill="#6F5C37"/>
<path d="M176.073 24.7236L175.356 15.6519L179.05 15.3601C180.017 15.2836 180.879 15.4111 181.636 15.7425C182.4 16.0646 183.013 16.5509 183.473 17.2014C183.933 17.8518 184.198 18.622 184.268 19.5119C184.338 20.4018 184.198 21.204 183.845 21.9186C183.493 22.6333 182.965 23.214 182.262 23.6608C181.566 24.0983 180.734 24.3553 179.767 24.4318L176.073 24.7236ZM176.967 23.8184L179.649 23.6065C180.453 23.543 181.136 23.3325 181.699 22.975C182.27 22.6082 182.698 22.1354 182.982 21.5565C183.266 20.969 183.379 20.3124 183.322 19.5866C183.264 18.8522 183.049 18.2216 182.677 17.6946C182.305 17.1676 181.809 16.7721 181.188 16.5082C180.575 16.2349 179.867 16.1301 179.063 16.1936L176.381 16.4056L176.967 23.8184Z" fill="#6F5C37"/>
<path d="M194.183 24.239C193.473 24.2088 192.856 24.035 192.332 23.7177C191.808 23.3918 191.405 22.9626 191.124 22.4302C190.844 21.8891 190.718 21.2808 190.747 20.6055C190.776 19.9301 190.944 19.3387 191.252 18.8313C191.568 18.3244 191.984 17.9344 192.499 17.6614C193.022 17.3801 193.6 17.2529 194.232 17.2798C194.873 17.3071 195.434 17.4785 195.915 17.7939C196.405 18.101 196.782 18.5248 197.045 19.0652C197.309 19.5969 197.426 20.2047 197.397 20.8888C197.395 20.9321 197.389 20.9795 197.378 21.0311C197.376 21.0744 197.374 21.122 197.372 21.174L191.436 20.9211L191.465 20.2327L196.907 20.4646L196.532 20.7218C196.553 20.2283 196.463 19.7864 196.263 19.3962C196.072 18.9977 195.799 18.6824 195.445 18.4505C195.09 18.2185 194.675 18.0924 194.199 18.0721C193.731 18.0522 193.307 18.1425 192.925 18.3431C192.543 18.5437 192.24 18.8344 192.016 19.2152C191.792 19.596 191.669 20.0375 191.647 20.5397L191.641 20.6826C191.619 21.2021 191.712 21.6658 191.92 22.0737C192.138 22.4734 192.445 22.7944 192.842 23.0369C193.249 23.271 193.716 23.3994 194.244 23.4219C194.66 23.4396 195.048 23.3824 195.409 23.2503C195.779 23.1186 196.101 22.9068 196.373 22.6148L196.867 23.2344C196.549 23.5851 196.156 23.846 195.689 24.0169C195.231 24.1882 194.729 24.2623 194.183 24.239Z" fill="#6F5C37"/>
<path d="M205.581 25.3219C205.023 25.2392 204.508 25.0839 204.033 24.8558C203.56 24.6191 203.2 24.3598 202.953 24.0778L203.471 23.4187C203.715 23.6652 204.04 23.8973 204.445 24.1152C204.853 24.3246 205.292 24.4642 205.763 24.5341C206.406 24.6295 206.884 24.5996 207.196 24.4444C207.509 24.2806 207.691 24.0316 207.74 23.6972C207.777 23.4486 207.725 23.2436 207.582 23.0823C207.449 22.9137 207.259 22.776 207.012 22.6693C206.767 22.5539 206.489 22.447 206.179 22.3486C205.87 22.2501 205.562 22.143 205.255 22.0274C204.956 21.913 204.688 21.7725 204.45 21.6057C204.213 21.4304 204.03 21.2149 203.902 20.9593C203.782 20.7049 203.75 20.3849 203.808 19.9991C203.862 19.6305 204.014 19.3157 204.263 19.0547C204.512 18.7937 204.846 18.6111 205.264 18.5067C205.693 18.395 206.194 18.3818 206.768 18.467C207.206 18.5318 207.634 18.6567 208.053 18.8416C208.474 19.0179 208.812 19.2213 209.067 19.4519L208.559 20.1257C208.29 19.8755 207.99 19.682 207.66 19.5454C207.331 19.4003 206.995 19.3022 206.652 19.2514C206.043 19.1611 205.577 19.2015 205.254 19.3726C204.941 19.5364 204.76 19.7811 204.712 20.1069C204.673 20.3641 204.721 20.577 204.853 20.7456C204.995 20.9155 205.187 21.0624 205.432 21.1863C205.686 21.3029 205.964 21.4098 206.265 21.507C206.574 21.6055 206.878 21.7162 207.175 21.8391C207.482 21.9548 207.755 22.096 207.993 22.2627C208.241 22.4221 208.425 22.629 208.545 22.8834C208.674 23.1305 208.712 23.4383 208.657 23.8069C208.599 24.2013 208.436 24.5277 208.17 24.7861C207.914 25.0372 207.564 25.213 207.12 25.3136C206.685 25.4069 206.172 25.4096 205.581 25.3219Z" fill="#6F5C37"/>
<path d="M215.165 27.0673L216.756 20.4303L217.653 20.6454L216.063 27.2824L215.165 27.0673ZM217.562 19.0729C217.377 19.0284 217.236 18.9278 217.14 18.7711C217.044 18.6144 217.017 18.4476 217.059 18.2706C217.102 18.0936 217.2 17.9612 217.355 17.8735C217.512 17.7774 217.683 17.7516 217.868 17.796C218.054 17.8404 218.195 17.9368 218.294 18.0851C218.392 18.2334 218.42 18.396 218.377 18.573C218.333 18.7584 218.232 18.8992 218.075 18.9953C217.927 19.0935 217.756 19.1193 217.562 19.0729Z" fill="#6F5C37"/>
<path d="M225.406 32.6965C224.816 32.4934 224.28 32.2128 223.799 31.8545C223.317 31.4962 222.963 31.0995 222.737 30.6642L223.408 30.1528C223.619 30.5276 223.918 30.869 224.307 31.177C224.701 31.496 225.148 31.7416 225.648 31.9137C226.468 32.1958 227.136 32.2105 227.654 31.9579C228.169 31.7136 228.565 31.1898 228.841 30.3867L229.395 28.7765L229.899 27.7125L230.194 26.5766L230.867 24.6221L231.703 24.9099L229.752 30.5765C229.368 31.691 228.813 32.4119 228.086 32.7392C227.365 33.0775 226.472 33.0632 225.406 32.6965ZM226.173 29.9496C225.559 29.738 225.051 29.4165 224.649 28.985C224.25 28.5453 223.99 28.0385 223.866 27.4644C223.751 26.8932 223.8 26.3003 224.011 25.6857C224.223 25.0711 224.548 24.5782 224.988 24.207C225.438 23.8305 225.954 23.5957 226.536 23.5027C227.118 23.4097 227.717 23.469 228.331 23.6806C228.905 23.878 229.38 24.1746 229.757 24.5702C230.134 24.9658 230.378 25.4437 230.487 26.0039C230.597 26.5641 230.536 27.1802 230.305 27.8521C230.073 28.5241 229.742 29.0471 229.311 29.4211C228.88 29.7951 228.392 30.0261 227.849 30.1139C227.305 30.2018 226.747 30.147 226.173 29.9496ZM226.526 29.2048C227.001 29.3684 227.457 29.4153 227.893 29.3456C228.333 29.2677 228.719 29.0892 229.054 28.8101C229.391 28.5229 229.64 28.1457 229.801 27.6786C229.962 27.2116 229.996 26.7651 229.904 26.3394C229.813 25.9137 229.616 25.539 229.315 25.2154C229.017 24.8836 228.63 24.6359 228.155 24.4723C227.688 24.3115 227.23 24.2687 226.783 24.3438C226.346 24.4135 225.961 24.5879 225.627 24.867C225.301 25.1488 225.057 25.5233 224.896 25.9904C224.735 26.4575 224.695 26.9066 224.776 27.3377C224.868 27.7634 225.063 28.1421 225.361 28.4739C225.67 28.8004 226.059 29.044 226.526 29.2048Z" fill="#6F5C37"/>
<path d="M242.223 29.3922C242.723 29.6328 243.113 29.941 243.394 30.3167C243.686 30.6883 243.844 31.1201 243.866 31.6121C243.897 32.1078 243.77 32.6524 243.484 33.2458L241.763 36.8182L240.932 36.4177L242.613 32.9273C242.925 32.2792 242.996 31.7122 242.826 31.2264C242.667 30.7364 242.295 30.3505 241.71 30.0685C241.272 29.8579 240.846 29.7634 240.432 29.7851C240.029 29.8027 239.657 29.9362 239.316 30.1855C238.986 30.4307 238.708 30.7876 238.483 31.2561L236.926 34.4888L236.094 34.0883L239.056 27.9392L239.852 28.3227L239.04 30.0093L239.063 29.631C239.473 29.28 239.953 29.0829 240.502 29.0398C241.056 28.989 241.629 29.1064 242.223 29.3922Z" fill="#6F5C37"/>
<path d="M249.571 41.368C249.093 41.0699 248.682 40.7216 248.339 40.3232C247.999 39.9175 247.772 39.536 247.658 39.1788L248.396 38.7812C248.522 39.1045 248.727 39.4469 249.012 39.8086C249.302 40.1629 249.649 40.4662 250.053 40.7185C250.605 41.0624 251.054 41.2255 251.403 41.2078C251.755 41.1826 252.021 41.0267 252.2 40.7399C252.333 40.5266 252.366 40.3176 252.3 40.1128C252.246 39.9052 252.127 39.7032 251.943 39.5068C251.763 39.303 251.551 39.0942 251.307 38.8804C251.062 38.6666 250.822 38.4454 250.587 38.2169C250.359 37.993 250.169 37.7571 250.017 37.5092C249.87 37.2539 249.788 36.9835 249.772 36.6978C249.764 36.4167 249.863 36.1107 250.069 35.7797C250.266 35.4635 250.531 35.2355 250.864 35.0955C251.196 34.9556 251.575 34.9212 252 34.9925C252.438 35.0609 252.903 35.2488 253.395 35.5561C253.77 35.79 254.113 36.0754 254.424 36.4122C254.74 36.7417 254.968 37.0631 255.11 37.3762L254.376 37.7917C254.229 37.4547 254.031 37.1577 253.783 36.9007C253.539 36.6363 253.27 36.4124 252.976 36.229C252.454 35.9033 252.01 35.7545 251.646 35.7824C251.293 35.8075 251.029 35.9598 250.855 36.2392C250.717 36.4599 250.676 36.6739 250.73 36.8815C250.792 37.0937 250.91 37.3053 251.085 37.5164C251.272 37.7248 251.484 37.9336 251.721 38.1428C251.965 38.3566 252.199 38.5792 252.423 38.8105C252.658 39.039 252.852 39.2772 253.004 39.5251C253.167 39.7702 253.254 40.0333 253.262 40.3144C253.283 40.5928 253.194 40.89 252.997 41.2062C252.786 41.5445 252.507 41.779 252.16 41.9098C251.825 42.0378 251.433 42.0593 250.986 41.9743C250.55 41.8865 250.079 41.6844 249.571 41.368Z" fill="#6F5C37"/>
<path d="M264.561 52.2644L270.766 45.6078L273.476 48.134C274.186 48.7959 274.674 49.5176 274.941 50.2993C275.22 51.0805 275.275 51.8604 275.106 52.639C274.937 53.4175 274.548 54.1333 273.939 54.7863C273.331 55.4393 272.644 55.8773 271.879 56.1004C271.114 56.3235 270.33 56.3265 269.525 56.1095C268.732 55.8921 267.981 55.4524 267.271 54.7906L264.561 52.2644ZM265.832 52.3117L267.8 54.1465C268.39 54.6961 269.006 55.0577 269.65 55.2313C270.306 55.4045 270.944 55.4005 271.563 55.2193C272.188 55.0318 272.749 54.6718 273.245 54.1392C273.748 53.6004 274.067 53.0158 274.205 52.3855C274.342 51.7552 274.298 51.1221 274.073 50.4861C273.861 49.8497 273.46 49.2567 272.87 48.7072L270.902 46.8723L265.832 52.3117Z" fill="#6F5C37"/>
<path d="M277.151 65.2903C276.694 64.7463 276.405 64.1739 276.285 63.573C276.172 62.9665 276.216 62.3798 276.419 61.813C276.628 61.2407 276.992 60.737 277.509 60.302C278.027 59.867 278.577 59.5916 279.159 59.4759C279.746 59.3668 280.315 59.4098 280.864 59.605C281.425 59.8012 281.909 60.1414 282.316 60.6257C282.729 61.1166 282.981 61.6459 283.074 62.2136C283.178 62.7825 283.12 63.3464 282.9 63.9055C282.686 64.4591 282.317 64.9561 281.793 65.3967C281.759 65.4246 281.72 65.4519 281.675 65.4788C281.642 65.5067 281.605 65.5373 281.565 65.5708L277.742 61.0233L278.27 60.58L281.775 64.7493L281.332 64.6464C281.71 64.3285 281.975 63.9639 282.127 63.5527C282.292 63.1425 282.34 62.7284 282.272 62.3103C282.203 61.8923 282.016 61.5008 281.709 61.136C281.408 60.7778 281.055 60.5257 280.649 60.3799C280.243 60.2341 279.824 60.207 279.392 60.2988C278.96 60.3906 278.551 60.5982 278.166 60.9216L278.057 61.0137C277.659 61.3483 277.38 61.7301 277.219 62.1591C277.072 62.5892 277.042 63.0326 277.132 63.4894C277.234 63.9473 277.455 64.3785 277.795 64.7832C278.063 65.1016 278.367 65.3494 278.709 65.5266C279.056 65.7104 279.429 65.8042 279.829 65.808L279.705 66.5909C279.232 66.5929 278.774 66.4795 278.332 66.2506C277.896 66.0283 277.503 65.7082 277.151 65.2903Z" fill="#6F5C37"/>
<path d="M284.642 75.3028C284.247 74.7124 284.022 74.112 283.968 73.5015C283.921 72.8863 284.029 72.308 284.292 71.7666C284.562 71.2203 284.979 70.7591 285.54 70.3829C286.102 70.0067 286.678 69.7927 287.269 69.7409C287.865 69.6964 288.426 69.8009 288.95 70.0545C289.487 70.3106 289.931 70.7014 290.283 71.227C290.64 71.7599 290.834 72.3135 290.864 72.8879C290.906 73.4647 290.787 74.019 290.507 74.5509C290.234 75.0779 289.813 75.5319 289.244 75.9129C289.208 75.937 289.166 75.9599 289.118 75.9817C289.082 76.0058 289.043 76.0323 289 76.0613L285.693 71.1253L286.266 70.7419L289.297 75.2674L288.868 75.1169C289.278 74.842 289.581 74.5084 289.778 74.1162C289.986 73.7263 290.079 73.3199 290.056 72.8969C290.034 72.4739 289.89 72.0644 289.625 71.6684C289.364 71.2795 289.04 70.9906 288.653 70.8015C288.265 70.6125 287.852 70.5401 287.412 70.5843C286.972 70.6286 286.543 70.7905 286.126 71.0703L286.007 71.1499C285.575 71.4393 285.256 71.7885 285.05 72.1976C284.856 72.609 284.779 73.0467 284.819 73.5105C284.87 73.9767 285.043 74.4294 285.337 74.8686C285.569 75.2143 285.845 75.4937 286.165 75.7069C286.49 75.9273 286.851 76.0612 287.247 76.1084L287.04 76.8732C286.569 76.8238 286.126 76.6613 285.712 76.3858C285.303 76.1174 284.946 75.7565 284.642 75.3028Z" fill="#6F5C37"/>
<path d="M293.718 91.3507L302.123 87.8626L303.543 91.2846C303.916 92.1811 304.061 93.0403 303.98 93.8622C303.91 94.6888 303.637 95.4214 303.161 96.06C302.684 96.6987 302.034 97.1891 301.21 97.5313C300.385 97.8734 299.579 97.9876 298.79 97.8738C298.002 97.7601 297.286 97.4377 296.644 96.9068C296.012 96.3806 295.511 95.6692 295.139 94.7727L293.718 91.3507ZM294.856 91.9203L295.887 94.4057C296.196 95.1502 296.607 95.7348 297.122 96.1595C297.647 96.5889 298.229 96.8494 298.867 96.941C299.514 97.0292 300.173 96.9338 300.846 96.6548C301.526 96.3724 302.06 95.9728 302.446 95.456C302.832 94.9392 303.054 94.3449 303.113 93.673C303.183 93.0058 303.064 92.2999 302.755 91.5555L301.724 89.07L294.856 91.9203Z" fill="#6F5C37"/>
<path d="M299.782 108.422C299.591 107.738 299.565 107.097 299.705 106.5C299.852 105.901 300.136 105.386 300.555 104.954C300.983 104.52 301.523 104.212 302.174 104.03C302.825 103.849 303.439 103.826 304.017 103.962C304.597 104.106 305.097 104.38 305.516 104.785C305.945 105.197 306.245 105.707 306.415 106.316C306.587 106.934 306.598 107.52 306.446 108.075C306.306 108.636 306.019 109.126 305.587 109.543C305.163 109.958 304.621 110.258 303.962 110.442C303.92 110.453 303.873 110.462 303.82 110.468C303.779 110.479 303.733 110.492 303.683 110.506L302.087 104.783L302.751 104.598L304.214 109.845L303.853 109.568C304.329 109.435 304.721 109.213 305.03 108.902C305.35 108.597 305.566 108.24 305.677 107.831C305.787 107.422 305.779 106.988 305.651 106.529C305.525 106.078 305.308 105.703 304.999 105.402C304.69 105.101 304.32 104.903 303.889 104.807C303.457 104.712 302.999 104.731 302.515 104.866L302.377 104.905C301.876 105.044 301.464 105.276 301.141 105.6C300.828 105.931 300.618 106.322 300.51 106.775C300.413 107.234 300.436 107.718 300.578 108.227C300.689 108.628 300.864 108.98 301.101 109.282C301.341 109.593 301.642 109.833 302.004 110.002L301.567 110.664C301.135 110.47 300.766 110.177 300.459 109.785C300.154 109.403 299.928 108.948 299.782 108.422Z" fill="#6F5C37"/>
<path d="M302.278 119.596C302.184 119.04 302.172 118.501 302.242 117.98C302.321 117.457 302.456 117.034 302.648 116.712L303.435 117.001C303.276 117.309 303.156 117.689 303.074 118.143C303.001 118.595 303.004 119.055 303.083 119.525C303.192 120.166 303.368 120.611 303.612 120.86C303.865 121.107 304.158 121.203 304.491 121.147C304.739 121.105 304.917 120.991 305.027 120.806C305.146 120.627 305.218 120.404 305.243 120.136C305.277 119.867 305.293 119.57 305.29 119.245C305.288 118.92 305.295 118.594 305.31 118.266C305.326 117.947 305.377 117.648 305.462 117.37C305.555 117.091 305.704 116.851 305.907 116.649C306.112 116.456 306.406 116.328 306.791 116.263C307.158 116.201 307.505 116.248 307.83 116.404C308.155 116.56 308.432 116.821 308.661 117.186C308.9 117.559 309.067 118.032 309.164 118.604C309.237 119.04 309.251 119.486 309.205 119.942C309.168 120.397 309.079 120.781 308.938 121.095L308.141 120.821C308.295 120.487 308.386 120.142 308.414 119.786C308.45 119.428 308.44 119.078 308.382 118.736C308.28 118.13 308.097 117.699 307.834 117.445C307.582 117.197 307.293 117.101 306.968 117.156C306.712 117.199 306.524 117.31 306.405 117.488C306.287 117.675 306.207 117.904 306.164 118.175C306.132 118.453 306.117 118.75 306.117 119.066C306.119 119.391 306.108 119.714 306.083 120.034C306.068 120.362 306.018 120.665 305.933 120.943C305.858 121.228 305.718 121.467 305.514 121.66C305.319 121.86 305.038 121.991 304.67 122.053C304.277 122.119 303.917 122.066 303.588 121.892C303.27 121.726 302.995 121.448 302.762 121.056C302.539 120.672 302.377 120.185 302.278 119.596Z" fill="#6F5C37"/>
<path d="M303.583 129.25L310.386 128.709L310.46 129.629L303.656 130.17L303.583 129.25ZM311.927 129.056C311.912 128.866 311.964 128.701 312.083 128.561C312.202 128.421 312.353 128.344 312.534 128.33C312.716 128.315 312.872 128.368 313.003 128.488C313.143 128.607 313.221 128.762 313.236 128.952C313.251 129.142 313.203 129.307 313.092 129.446C312.982 129.585 312.836 129.662 312.654 129.676C312.464 129.692 312.299 129.639 312.159 129.52C312.02 129.409 311.943 129.255 311.927 129.056Z" fill="#6F5C37"/>
<path d="M301.398 140.73C301.409 140.106 301.51 139.509 301.701 138.941C301.893 138.372 302.161 137.913 302.505 137.563L303.199 138.043C302.907 138.359 302.675 138.749 302.503 139.214C302.321 139.688 302.226 140.189 302.217 140.718C302.202 141.584 302.395 142.225 302.796 142.639C303.187 143.053 303.808 143.267 304.657 143.282L306.36 143.311L307.527 143.46L308.699 143.389L310.765 143.424L310.75 144.308L304.758 144.206C303.58 144.186 302.723 143.881 302.186 143.292C301.642 142.71 301.379 141.856 301.398 140.73ZM304.247 140.609C304.258 139.959 304.407 139.377 304.693 138.862C304.988 138.346 305.389 137.942 305.897 137.647C306.405 137.361 306.983 137.223 307.633 137.234C308.283 137.245 308.853 137.402 309.342 137.705C309.839 138.017 310.222 138.435 310.49 138.96C310.759 139.485 310.887 140.072 310.876 140.722C310.866 141.329 310.731 141.872 310.472 142.353C310.212 142.834 309.833 143.214 309.334 143.491C308.835 143.769 308.231 143.901 307.52 143.889C306.809 143.877 306.21 143.724 305.721 143.43C305.232 143.135 304.861 142.743 304.609 142.254C304.358 141.764 304.237 141.216 304.247 140.609ZM305.065 140.714C305.056 141.217 305.153 141.665 305.354 142.058C305.564 142.452 305.853 142.764 306.222 142.996C306.6 143.228 307.035 143.348 307.529 143.356C308.023 143.365 308.458 143.26 308.835 143.041C309.211 142.822 309.507 142.519 309.721 142.133C309.945 141.746 310.06 141.302 310.069 140.799C310.077 140.305 309.977 139.857 309.767 139.455C309.565 139.061 309.28 138.749 308.912 138.517C308.543 138.294 308.111 138.179 307.617 138.17C307.123 138.162 306.684 138.263 306.299 138.473C305.923 138.692 305.623 138.994 305.399 139.381C305.185 139.776 305.073 140.22 305.065 140.714Z" fill="#6F5C37"/>
<path d="M309.742 155.699C309.668 156.249 309.496 156.715 309.226 157.098C308.963 157.491 308.601 157.775 308.14 157.949C307.678 158.131 307.121 158.178 306.468 158.09L302.539 157.56L302.662 156.645L306.501 157.163C307.214 157.26 307.775 157.152 308.185 156.84C308.602 156.538 308.854 156.064 308.941 155.42C309.006 154.939 308.964 154.505 308.815 154.118C308.673 153.74 308.431 153.427 308.089 153.18C307.754 152.942 307.328 152.789 306.813 152.719L303.257 152.239L303.381 151.324L310.144 152.238L310.026 153.114L308.171 152.863L308.538 152.768C308.998 153.049 309.334 153.444 309.545 153.954C309.765 154.465 309.831 155.046 309.742 155.699Z" fill="#6F5C37"/>
<path d="M300.627 166.392C300.763 165.845 300.967 165.346 301.239 164.896C301.52 164.448 301.813 164.114 302.117 163.895L302.724 164.474C302.455 164.693 302.193 164.994 301.937 165.377C301.69 165.762 301.509 166.186 301.394 166.649C301.237 167.28 301.222 167.758 301.346 168.084C301.479 168.411 301.71 168.616 302.038 168.697C302.282 168.758 302.491 168.725 302.665 168.598C302.846 168.482 303.001 168.307 303.131 168.071C303.269 167.837 303.402 167.571 303.53 167.272C303.657 166.974 303.793 166.677 303.938 166.383C304.08 166.096 304.246 165.843 304.435 165.622C304.632 165.403 304.864 165.242 305.131 165.138C305.395 165.043 305.717 165.042 306.095 165.136C306.457 165.226 306.756 165.407 306.992 165.68C307.228 165.953 307.378 166.303 307.442 166.729C307.512 167.166 307.477 167.667 307.337 168.23C307.231 168.659 307.065 169.074 306.841 169.473C306.625 169.875 306.391 170.192 306.137 170.424L305.514 169.854C305.789 169.61 306.011 169.33 306.178 169.014C306.354 168.701 306.484 168.376 306.567 168.039C306.716 167.442 306.72 166.974 306.581 166.636C306.448 166.309 306.221 166.105 305.902 166.026C305.649 165.963 305.433 165.99 305.252 166.106C305.07 166.23 304.905 166.408 304.758 166.64C304.618 166.882 304.485 167.148 304.359 167.438C304.232 167.737 304.092 168.028 303.941 168.312C303.797 168.607 303.63 168.864 303.442 169.086C303.259 169.317 303.036 169.48 302.771 169.575C302.513 169.681 302.203 169.689 301.841 169.599C301.454 169.503 301.145 169.31 300.913 169.021C300.687 168.742 300.546 168.376 300.488 167.924C300.437 167.483 300.483 166.972 300.627 166.392Z" fill="#6F5C37"/>
<path d="M294.902 184.016L303.152 187.858L301.588 191.216C301.178 192.096 300.643 192.784 299.982 193.279C299.325 193.786 298.601 194.08 297.808 194.16C297.016 194.24 296.215 194.092 295.405 193.715C294.596 193.338 293.967 192.821 293.518 192.163C293.07 191.504 292.824 190.759 292.781 189.926C292.743 189.106 292.929 188.255 293.338 187.375L294.902 184.016ZM295.25 185.24L294.115 187.679C293.774 188.41 293.621 189.108 293.655 189.774C293.694 190.452 293.895 191.057 294.258 191.589C294.63 192.126 295.146 192.548 295.806 192.855C296.474 193.166 297.129 193.289 297.77 193.225C298.412 193.16 299.001 192.923 299.536 192.512C300.076 192.113 300.515 191.549 300.856 190.818L301.992 188.378L295.25 185.24Z" fill="#6F5C37"/>
<path d="M286.41 200.019C286.786 199.416 287.241 198.964 287.775 198.664C288.317 198.368 288.889 198.229 289.49 198.247C290.099 198.269 290.691 198.459 291.265 198.816C291.838 199.174 292.27 199.611 292.56 200.129C292.846 200.654 292.981 201.208 292.965 201.79C292.952 202.385 292.778 202.95 292.444 203.487C292.105 204.032 291.679 204.436 291.168 204.699C290.659 204.974 290.105 205.094 289.505 205.057C288.913 205.025 288.326 204.827 287.745 204.465C287.708 204.442 287.67 204.414 287.63 204.379C287.593 204.356 287.553 204.331 287.509 204.303L290.651 199.261L291.235 199.625L288.355 204.248L288.316 203.795C288.735 204.056 289.164 204.196 289.602 204.213C290.043 204.243 290.452 204.161 290.828 203.966C291.204 203.772 291.519 203.473 291.771 203.068C292.018 202.671 292.148 202.257 292.162 201.826C292.175 201.395 292.071 200.988 291.85 200.605C291.629 200.223 291.305 199.898 290.878 199.633L290.757 199.557C290.316 199.282 289.866 199.135 289.409 199.115C288.954 199.107 288.523 199.217 288.117 199.443C287.713 199.682 287.371 200.026 287.091 200.474C286.871 200.827 286.73 201.194 286.667 201.573C286.6 201.96 286.626 202.344 286.746 202.725L285.963 202.85C285.815 202.4 285.781 201.93 285.862 201.439C285.939 200.956 286.121 200.482 286.41 200.019Z" fill="#6F5C37"/>
<path d="M279.206 210.24C279.645 209.681 280.147 209.281 280.71 209.041C281.281 208.806 281.864 208.73 282.46 208.813C283.064 208.901 283.631 209.154 284.162 209.572C284.694 209.989 285.076 210.471 285.308 211.017C285.535 211.57 285.609 212.136 285.53 212.713C285.452 213.302 285.218 213.846 284.827 214.343C284.431 214.847 283.964 215.203 283.427 215.409C282.892 215.628 282.328 215.686 281.735 215.584C281.15 215.488 280.588 215.228 280.05 214.805C280.015 214.778 279.981 214.745 279.945 214.706C279.911 214.679 279.874 214.65 279.833 214.618L283.504 209.947L284.045 210.373L280.68 214.655L280.69 214.2C281.078 214.506 281.489 214.691 281.923 214.756C282.358 214.834 282.773 214.796 283.169 214.644C283.564 214.492 283.909 214.228 284.203 213.853C284.493 213.485 284.667 213.088 284.727 212.661C284.787 212.234 284.728 211.818 284.55 211.414C284.372 211.009 284.085 210.652 283.69 210.341L283.577 210.253C283.169 209.931 282.738 209.736 282.285 209.667C281.834 209.61 281.394 209.672 280.965 209.853C280.538 210.046 280.161 210.351 279.834 210.766C279.577 211.093 279.396 211.442 279.293 211.813C279.184 212.19 279.168 212.574 279.246 212.966L278.454 213.006C278.356 212.542 278.373 212.071 278.507 211.592C278.636 211.12 278.869 210.669 279.206 210.24Z" fill="#6F5C37"/>
<path d="M266.753 223.835L272.67 230.748L269.855 233.157C269.118 233.789 268.346 234.193 267.539 234.37C266.731 234.559 265.95 234.526 265.195 234.271C264.441 234.016 263.773 233.549 263.193 232.871C262.612 232.192 262.254 231.461 262.119 230.676C261.983 229.891 262.068 229.111 262.374 228.335C262.679 227.572 263.2 226.875 263.938 226.244L266.753 223.835ZM266.563 225.092L264.518 226.842C263.906 227.366 263.477 227.938 263.233 228.559C262.987 229.191 262.919 229.825 263.03 230.461C263.146 231.103 263.44 231.7 263.914 232.254C264.393 232.813 264.938 233.197 265.549 233.404C266.159 233.611 266.794 233.639 267.451 233.487C268.107 233.348 268.741 233.016 269.354 232.492L271.398 230.742L266.563 225.092Z" fill="#6F5C37"/>
<path d="M252.394 234.882C252.986 234.489 253.587 234.266 254.198 234.214C254.813 234.169 255.391 234.28 255.932 234.545C256.477 234.817 256.937 235.235 257.311 235.798C257.685 236.361 257.897 236.938 257.946 237.53C257.989 238.126 257.882 238.686 257.626 239.209C257.368 239.745 256.976 240.188 256.449 240.538C255.915 240.893 255.36 241.084 254.786 241.112C254.209 241.152 253.655 241.031 253.124 240.749C252.598 240.474 252.146 240.052 251.767 239.481C251.743 239.445 251.72 239.403 251.699 239.355C251.675 239.319 251.648 239.279 251.619 239.236L256.568 235.948L256.949 236.522L252.412 239.537L252.564 239.108C252.838 239.519 253.17 239.824 253.562 240.021C253.951 240.231 254.357 240.326 254.78 240.305C255.203 240.284 255.613 240.141 256.01 239.877C256.4 239.618 256.69 239.296 256.88 238.909C257.071 238.522 257.145 238.109 257.102 237.669C257.06 237.229 256.899 236.8 256.621 236.381L256.542 236.262C256.254 235.829 255.906 235.509 255.498 235.301C255.087 235.106 254.65 235.027 254.186 235.065C253.719 235.115 253.266 235.286 252.826 235.578C252.479 235.809 252.199 236.083 251.984 236.403C251.763 236.727 251.628 237.087 251.579 237.484L250.815 237.273C250.866 236.802 251.03 236.36 251.307 235.947C251.577 235.539 251.939 235.184 252.394 234.882Z" fill="#6B4C10"/>
<path d="M242.541 240.712C243.04 240.451 243.549 240.273 244.066 240.178C244.588 240.091 245.032 240.089 245.398 240.172L245.367 241.01C245.024 240.954 244.625 240.957 244.169 241.02C243.717 241.09 243.279 241.235 242.857 241.456C242.281 241.757 241.912 242.063 241.751 242.372C241.594 242.689 241.594 242.997 241.751 243.296C241.867 243.519 242.03 243.654 242.24 243.7C242.447 243.759 242.681 243.758 242.944 243.699C243.211 243.648 243.498 243.571 243.806 243.468C244.114 243.366 244.427 243.271 244.743 243.184C245.052 243.101 245.351 243.057 245.642 243.051C245.937 243.054 246.211 243.121 246.465 243.252C246.712 243.387 246.926 243.627 247.107 243.973C247.279 244.303 247.342 244.647 247.294 245.004C247.246 245.362 247.084 245.706 246.807 246.037C246.526 246.379 246.128 246.685 245.614 246.954C245.222 247.158 244.802 247.309 244.354 247.407C243.91 247.512 243.518 247.546 243.176 247.509L243.19 246.666C243.555 246.71 243.911 246.69 244.258 246.606C244.61 246.53 244.939 246.411 245.246 246.251C245.792 245.966 246.145 245.659 246.305 245.33C246.462 245.014 246.465 244.709 246.312 244.417C246.192 244.187 246.028 244.043 245.822 243.984C245.607 243.93 245.365 243.925 245.095 243.968C244.82 244.024 244.533 244.101 244.232 244.199C243.924 244.302 243.614 244.391 243.301 244.466C242.985 244.553 242.681 244.599 242.391 244.605C242.096 244.622 241.826 244.563 241.579 244.428C241.329 244.304 241.117 244.077 240.945 243.747C240.76 243.394 240.699 243.034 240.762 242.669C240.822 242.315 241.002 241.967 241.302 241.624C241.598 241.293 242.011 240.989 242.541 240.712Z" fill="#6F5C37"/>
<path d="M233.764 244.94L236.383 251.242L235.531 251.596L232.912 245.294L233.764 244.94ZM236.529 252.814C236.705 252.741 236.878 252.74 237.048 252.81C237.218 252.88 237.338 252.999 237.408 253.167C237.478 253.335 237.476 253.5 237.403 253.662C237.332 253.832 237.209 253.954 237.033 254.027C236.857 254.1 236.686 254.105 236.519 254.043C236.353 253.981 236.234 253.866 236.165 253.698C236.091 253.522 236.09 253.349 236.16 253.179C236.222 253.012 236.345 252.891 236.529 252.814Z" fill="#6F5C37"/>
<path d="M222.171 246.413C222.768 246.23 223.366 246.142 223.966 246.148C224.566 246.155 225.086 246.267 225.525 246.486L225.283 247.295C224.893 247.115 224.45 247.015 223.954 246.995C223.447 246.969 222.941 247.034 222.436 247.189C221.607 247.443 221.058 247.824 220.788 248.333C220.515 248.833 220.504 249.49 220.753 250.302L221.252 251.93L221.471 253.087L221.901 254.179L222.506 256.155L221.661 256.414L219.904 250.684C219.559 249.557 219.584 248.648 219.979 247.955C220.363 247.258 221.094 246.743 222.171 246.413ZM223.167 249.086C223.789 248.895 224.389 248.856 224.967 248.969C225.548 249.09 226.057 249.346 226.495 249.738C226.924 250.132 227.233 250.64 227.424 251.261C227.615 251.883 227.641 252.473 227.504 253.031C227.362 253.601 227.083 254.095 226.667 254.512C226.251 254.93 225.732 255.234 225.111 255.424C224.531 255.602 223.972 255.642 223.434 255.544C222.896 255.446 222.418 255.203 222 254.814C221.582 254.426 221.269 253.892 221.06 253.212C220.852 252.533 220.812 251.915 220.941 251.359C221.069 250.803 221.328 250.329 221.715 249.939C222.103 249.548 222.587 249.263 223.167 249.086ZM223.32 249.895C222.84 250.043 222.443 250.273 222.132 250.586C221.822 250.908 221.614 251.279 221.508 251.702C221.405 252.132 221.425 252.584 221.57 253.056C221.715 253.528 221.95 253.91 222.274 254.2C222.599 254.49 222.978 254.678 223.412 254.762C223.848 254.855 224.307 254.828 224.787 254.68C225.26 254.536 225.655 254.301 225.972 253.977C226.284 253.664 226.493 253.296 226.599 252.874C226.697 252.454 226.674 252.008 226.529 251.536C226.384 251.063 226.152 250.677 225.833 250.376C225.509 250.085 225.128 249.894 224.692 249.801C224.25 249.719 223.793 249.75 223.32 249.895Z" fill="#6F5C37"/>
<path d="M210.517 258.979C209.972 259.079 209.475 259.059 209.027 258.921C208.572 258.792 208.19 258.536 207.882 258.151C207.566 257.768 207.349 257.253 207.231 256.605L206.52 252.704L207.428 252.539L208.122 256.35C208.251 257.058 208.527 257.558 208.951 257.851C209.367 258.154 209.895 258.247 210.535 258.13C211.012 258.043 211.412 257.869 211.734 257.608C212.05 257.357 212.272 257.03 212.401 256.627C212.524 256.235 212.538 255.783 212.445 255.272L211.802 251.742L212.71 251.576L213.933 258.291L213.064 258.449L212.728 256.608L212.932 256.927C212.807 257.452 212.535 257.894 212.116 258.252C211.698 258.619 211.165 258.861 210.517 258.979Z" fill="#6F5C37"/>
<path d="M197.529 253.619C198.091 253.579 198.628 253.619 199.141 253.738C199.654 253.867 200.062 254.042 200.364 254.264L200.001 255.019C199.71 254.832 199.342 254.675 198.899 254.551C198.456 254.435 197.997 254.394 197.522 254.428C196.873 254.474 196.414 254.607 196.143 254.826C195.872 255.054 195.749 255.336 195.773 255.674C195.791 255.924 195.887 256.113 196.061 256.239C196.227 256.375 196.443 256.469 196.707 256.519C196.972 256.578 197.266 256.623 197.59 256.652C197.913 256.681 198.237 256.718 198.562 256.764C198.878 256.811 199.171 256.89 199.439 257.002C199.709 257.121 199.934 257.292 200.115 257.514C200.287 257.736 200.387 258.042 200.415 258.431C200.441 258.802 200.361 259.143 200.175 259.451C199.988 259.76 199.702 260.011 199.316 260.203C198.922 260.405 198.436 260.527 197.857 260.568C197.416 260.6 196.971 260.571 196.521 260.481C196.072 260.401 195.698 260.275 195.399 260.106L195.748 259.338C196.066 259.523 196.401 259.647 196.753 259.709C197.105 259.779 197.454 259.802 197.8 259.777C198.414 259.734 198.86 259.593 199.138 259.356C199.409 259.128 199.532 258.85 199.509 258.521C199.49 258.262 199.398 258.064 199.232 257.929C199.057 257.793 198.837 257.692 198.571 257.624C198.298 257.565 198.004 257.521 197.689 257.492C197.365 257.463 197.045 257.42 196.728 257.365C196.403 257.318 196.107 257.24 195.838 257.129C195.562 257.027 195.337 256.865 195.165 256.642C194.984 256.429 194.881 256.137 194.854 255.765C194.826 255.368 194.914 255.014 195.117 254.704C195.313 254.403 195.617 254.156 196.029 253.961C196.433 253.776 196.933 253.662 197.529 253.619Z" fill="#6F5C37"/>
<path d="M178.998 253.627L177.897 262.66L174.219 262.212C173.256 262.095 172.436 261.799 171.761 261.323C171.076 260.856 170.572 260.257 170.251 259.529C169.929 258.8 169.822 257.992 169.93 257.106C170.038 256.22 170.336 255.462 170.823 254.831C171.31 254.201 171.943 253.737 172.722 253.439C173.49 253.148 174.356 253.062 175.32 253.179L178.998 253.627ZM177.942 254.337L175.271 254.011C174.471 253.914 173.76 253.984 173.137 254.223C172.504 254.469 171.991 254.847 171.597 255.358C171.202 255.877 170.961 256.498 170.872 257.221C170.783 257.952 170.869 258.613 171.129 259.203C171.388 259.794 171.796 260.28 172.352 260.662C172.898 261.052 173.571 261.295 174.372 261.393L177.043 261.718L177.942 254.337Z" fill="#6F5C37"/>
<path d="M161.153 250.502C161.843 250.673 162.413 250.966 162.864 251.381C163.313 251.805 163.622 252.305 163.791 252.883C163.958 253.469 163.961 254.09 163.798 254.746C163.636 255.403 163.353 255.949 162.951 256.385C162.54 256.819 162.055 257.118 161.496 257.284C160.927 257.455 160.335 257.465 159.721 257.313C159.099 257.159 158.583 256.879 158.174 256.474C157.755 256.076 157.47 255.586 157.32 255.004C157.167 254.431 157.173 253.811 157.338 253.147C157.348 253.105 157.364 253.06 157.385 253.011C157.395 252.969 157.406 252.923 157.419 252.872L163.186 254.3L163.02 254.969L157.733 253.66L158.152 253.482C158.033 253.962 158.033 254.413 158.152 254.835C158.26 255.264 158.465 255.627 158.766 255.925C159.067 256.222 159.449 256.428 159.912 256.543C160.366 256.656 160.8 256.651 161.214 256.531C161.628 256.41 161.982 256.185 162.278 255.857C162.574 255.528 162.782 255.12 162.903 254.632L162.937 254.493C163.062 253.988 163.063 253.515 162.94 253.074C162.807 252.639 162.569 252.264 162.228 251.947C161.876 251.637 161.444 251.418 160.931 251.291C160.527 251.191 160.135 251.17 159.755 251.227C159.366 251.283 159.009 251.427 158.684 251.659L158.323 250.953C158.704 250.673 159.141 250.495 159.633 250.421C160.116 250.344 160.623 250.371 161.153 250.502Z" fill="#6F5C37"/>
<path d="M149.205 246.813C149.872 247.058 150.407 247.411 150.81 247.873C151.21 248.343 151.463 248.874 151.569 249.467C151.671 250.068 151.606 250.685 151.373 251.32C151.141 251.955 150.8 252.467 150.353 252.856C149.897 253.243 149.383 253.488 148.809 253.592C148.225 253.701 147.635 253.646 147.041 253.428C146.439 253.207 145.957 252.873 145.595 252.427C145.221 251.985 144.991 251.467 144.905 250.872C144.816 250.285 144.889 249.671 145.125 249.028C145.139 248.987 145.16 248.944 145.186 248.898C145.201 248.857 145.217 248.813 145.235 248.764L150.813 250.81L150.576 251.457L145.462 249.581L145.898 249.45C145.727 249.914 145.678 250.362 145.75 250.794C145.811 251.232 145.975 251.615 146.243 251.944C146.51 252.273 146.867 252.519 147.315 252.684C147.754 252.845 148.186 252.888 148.61 252.813C149.035 252.738 149.412 252.553 149.741 252.258C150.071 251.964 150.322 251.581 150.495 251.109L150.545 250.974C150.724 250.486 150.776 250.016 150.702 249.564C150.617 249.118 150.421 248.718 150.117 248.367C149.801 248.02 149.395 247.755 148.898 247.573C148.508 247.43 148.12 247.367 147.736 247.382C147.343 247.395 146.973 247.5 146.624 247.695L146.342 246.954C146.752 246.717 147.206 246.588 147.703 246.567C148.191 246.543 148.692 246.625 149.205 246.813Z" fill="#6F5C37"/>
<path d="M132.424 239.177L127.68 246.943L124.518 245.011C123.69 244.505 123.067 243.896 122.649 243.184C122.219 242.474 122.009 241.721 122.018 240.925C122.027 240.128 122.265 239.349 122.73 238.587C123.195 237.825 123.78 237.258 124.485 236.886C125.189 236.515 125.958 236.354 126.79 236.405C127.61 236.459 128.434 236.74 129.262 237.246L132.424 239.177ZM131.169 239.386L128.873 237.983C128.185 237.562 127.508 237.332 126.843 237.291C126.165 237.253 125.541 237.385 124.971 237.686C124.396 237.995 123.919 238.46 123.54 239.082C123.156 239.71 122.96 240.347 122.952 240.992C122.943 241.637 123.113 242.249 123.461 242.827C123.797 243.408 124.308 243.908 124.996 244.328L127.293 245.731L131.169 239.386Z" fill="#6F5C37"/>
<path d="M117.477 228.94C118.034 229.382 118.432 229.885 118.67 230.449C118.903 231.021 118.977 231.604 118.892 232.2C118.801 232.803 118.546 233.369 118.126 233.899C117.707 234.429 117.223 234.809 116.676 235.039C116.122 235.264 115.557 235.336 114.98 235.255C114.391 235.175 113.848 234.939 113.352 234.546C112.85 234.148 112.496 233.68 112.292 233.142C112.075 232.606 112.019 232.042 112.123 231.45C112.222 230.865 112.483 230.304 112.909 229.767C112.935 229.733 112.968 229.698 113.008 229.663C113.034 229.629 113.064 229.591 113.096 229.551L117.754 233.239L117.326 233.779L113.056 230.398L113.511 230.41C113.204 230.797 113.017 231.207 112.95 231.641C112.871 232.075 112.907 232.491 113.058 232.887C113.209 233.282 113.471 233.628 113.845 233.924C114.211 234.215 114.608 234.391 115.035 234.452C115.462 234.514 115.878 234.456 116.283 234.28C116.688 234.103 117.047 233.818 117.359 233.424L117.447 233.312C117.77 232.904 117.967 232.474 118.038 232.022C118.097 231.571 118.036 231.13 117.857 230.701C117.665 230.273 117.362 229.895 116.948 229.566C116.622 229.308 116.274 229.126 115.904 229.021C115.527 228.911 115.142 228.894 114.75 228.97L114.714 228.178C115.178 228.081 115.649 228.101 116.127 228.236C116.599 228.367 117.049 228.601 117.477 228.94Z" fill="#6F5C37"/>
<path d="M108.884 221.374C109.287 221.768 109.613 222.197 109.864 222.66C110.108 223.129 110.247 223.55 110.282 223.924L109.475 224.153C109.423 223.811 109.296 223.432 109.095 223.018C108.889 222.609 108.615 222.238 108.274 221.905C107.81 221.45 107.405 221.194 107.062 221.137C106.712 221.085 106.419 221.181 106.182 221.422C106.006 221.602 105.929 221.799 105.95 222.013C105.958 222.227 106.031 222.45 106.168 222.682C106.3 222.919 106.462 223.169 106.654 223.43C106.847 223.692 107.034 223.959 107.215 224.233C107.389 224.501 107.524 224.772 107.619 225.047C107.708 225.328 107.729 225.609 107.683 225.892C107.631 226.168 107.469 226.446 107.196 226.725C106.935 226.991 106.628 227.157 106.273 227.222C105.918 227.287 105.541 227.239 105.141 227.078C104.728 226.917 104.314 226.633 103.899 226.227C103.583 225.918 103.31 225.566 103.079 225.17C102.842 224.78 102.688 224.417 102.617 224.081L103.423 223.833C103.494 224.194 103.623 224.526 103.811 224.831C103.992 225.141 104.206 225.418 104.454 225.66C104.894 226.091 105.295 226.332 105.657 226.383C106.007 226.434 106.297 226.342 106.527 226.107C106.709 225.921 106.796 225.721 106.787 225.506C106.773 225.286 106.703 225.054 106.578 224.81C106.44 224.566 106.278 224.317 106.091 224.061C105.899 223.8 105.718 223.532 105.549 223.258C105.369 222.985 105.231 222.71 105.136 222.436C105.029 222.161 105.001 221.885 105.053 221.609C105.093 221.333 105.244 221.062 105.504 220.795C105.783 220.51 106.106 220.341 106.473 220.288C106.828 220.235 107.215 220.299 107.634 220.478C108.04 220.657 108.457 220.956 108.884 221.374Z" fill="#6F5C37"/>
<path d="M102.149 214.336L96.9655 218.776L96.365 218.075L101.548 213.635L102.149 214.336ZM95.5157 219.402C95.6398 219.546 95.6947 219.71 95.6806 219.894C95.6664 220.077 95.5902 220.228 95.452 220.346C95.3138 220.465 95.1563 220.514 94.9796 220.494C94.7963 220.48 94.6426 220.401 94.5186 220.256C94.3945 220.111 94.3363 219.95 94.3439 219.772C94.3515 219.594 94.4244 219.446 94.5626 219.328C94.7074 219.204 94.8714 219.149 95.0547 219.163C95.2324 219.171 95.3861 219.25 95.5157 219.402Z" fill="#6F5C37"/>
<path d="M97.1611 203.768C97.5196 204.278 97.7887 204.82 97.9683 205.393C98.148 205.966 98.2016 206.494 98.1291 206.979L97.2856 207C97.3355 206.573 97.2933 206.121 97.1592 205.643C97.0273 205.153 96.8094 204.692 96.5057 204.259C96.0077 203.55 95.4751 203.146 94.9076 203.046C94.3473 202.942 93.7196 203.134 93.0244 203.622L91.6305 204.6L90.5982 205.166L89.6928 205.913L88.001 207.1L87.4931 206.377L92.3983 202.933C93.3631 202.256 94.2357 201.998 95.0162 202.16C95.7988 202.31 96.5138 202.845 97.1611 203.768ZM94.9279 205.542C95.3014 206.074 95.524 206.632 95.5957 207.217C95.6604 207.807 95.5741 208.37 95.337 208.907C95.0949 209.437 94.7078 209.889 94.1758 210.263C93.6437 210.636 93.0909 210.844 92.5173 210.887C91.9316 210.927 91.3759 210.814 90.8501 210.548C90.3244 210.282 89.8748 209.883 89.5013 209.351C89.1528 208.854 88.9419 208.335 88.8688 207.793C88.7957 207.252 88.8791 206.722 89.1192 206.204C89.3592 205.686 89.77 205.223 90.3517 204.815C90.9334 204.406 91.5085 204.177 92.0772 204.128C92.6458 204.078 93.176 204.177 93.6676 204.425C94.1593 204.673 94.5794 205.045 94.9279 205.542ZM94.2053 205.938C93.9165 205.526 93.5749 205.221 93.1806 205.021C92.7792 204.826 92.3613 204.744 91.9268 204.773C91.4852 204.808 91.0623 204.967 90.6579 205.251C90.2536 205.535 89.9636 205.876 89.7881 206.275C89.6125 206.673 89.5516 207.092 89.6055 207.53C89.6522 207.974 89.8199 208.402 90.1087 208.813C90.3926 209.217 90.7377 209.52 91.144 209.722C91.5383 209.922 91.9527 210.007 92.3872 209.977C92.8167 209.941 93.2337 209.78 93.638 209.496C94.0423 209.213 94.3383 208.873 94.526 208.476C94.7015 208.078 94.7659 207.656 94.7192 207.213C94.6604 206.767 94.4891 206.342 94.2053 205.938Z" fill="#6F5C37"/>
<path d="M81.6061 196.573C81.3428 196.085 81.2077 195.606 81.2008 195.137C81.1822 194.665 81.3081 194.223 81.5783 193.811C81.8445 193.392 82.2674 193.026 82.847 192.713L86.3366 190.83L86.7748 191.642L83.3654 193.482C82.7323 193.824 82.342 194.241 82.1945 194.734C82.0353 195.224 82.11 195.755 82.4186 196.327C82.6491 196.754 82.9384 197.08 83.2867 197.306C83.6232 197.528 84.0028 197.638 84.4254 197.637C84.8363 197.632 85.2706 197.506 85.7282 197.259L88.8859 195.555L89.3242 196.368L83.3177 199.608L82.8979 198.83L84.5454 197.941L84.3044 198.234C83.7668 198.278 83.2627 198.156 82.7923 197.868C82.3143 197.584 81.9189 197.153 81.6061 196.573Z" fill="#6F5C37"/>
<path d="M82.6854 182.564C82.8975 183.086 83.0258 183.609 83.0705 184.133C83.1071 184.661 83.0669 185.103 82.9497 185.459L82.1186 185.348C82.207 185.013 82.2418 184.615 82.2233 184.155C82.1967 183.698 82.0936 183.249 81.9142 182.807C81.6696 182.205 81.4011 181.809 81.1088 181.619C80.8084 181.432 80.5017 181.402 80.1885 181.53C79.9557 181.624 79.806 181.774 79.7395 181.979C79.6617 182.179 79.6397 182.412 79.6733 182.679C79.6989 182.949 79.7479 183.243 79.8205 183.559C79.893 183.876 79.9575 184.196 80.0139 184.519C80.0671 184.834 80.0824 185.137 80.0598 185.427C80.0292 185.72 79.9365 185.987 79.7817 186.227C79.6236 186.46 79.3639 186.649 79.0026 186.796C78.6574 186.937 78.3091 186.966 77.9578 186.884C77.6065 186.802 77.2796 186.608 76.9769 186.3C76.663 185.988 76.3968 185.563 76.1783 185.025C76.0119 184.616 75.9017 184.183 75.8478 183.728C75.7858 183.276 75.7893 182.882 75.8583 182.545L76.6965 182.64C76.618 182.999 76.6038 183.355 76.654 183.709C76.6961 184.066 76.7825 184.405 76.9129 184.727C77.1445 185.297 77.4162 185.677 77.7278 185.869C78.0282 186.056 78.3309 186.087 78.636 185.963C78.8769 185.865 79.0362 185.716 79.114 185.516C79.1885 185.308 79.217 185.067 79.1994 184.794C79.1706 184.516 79.1215 184.222 79.0523 183.914C78.9797 183.597 78.9209 183.279 78.8757 182.961C78.8193 182.638 78.8023 182.331 78.8249 182.041C78.8362 181.747 78.9209 181.483 79.079 181.251C79.2257 181.013 79.4718 180.825 79.817 180.684C80.1864 180.534 80.55 180.508 80.9078 180.606C81.2543 180.699 81.5838 180.911 81.8962 181.243C82.1973 181.57 82.4604 182.01 82.6854 182.564Z" fill="#6F5C37"/>
</svg>
